<svg width="231" height="231" viewBox="0 0 231 231" fill="none" xmlns="http://www.w3.org/2000/svg">
<circle cx="115.5" cy="115.5" r="115.5" fill="#EDEDED"/>
<path d="M137.852 32.1557C138.736 32.9263 139.439 33.8636 139.886 35.0082C140.231 35.6766 140.472 35.8323 141.1 36.1457C141.284 36.239 141.467 36.3324 141.656 36.4285C141.851 36.5233 142.046 36.6181 142.248 36.7157C142.448 36.8162 142.648 36.9166 142.855 37.0201C144.054 37.6169 145.263 38.1741 146.492 38.694C147.548 39.1707 148.574 39.719 149.606 40.2575C150.741 40.8471 151.887 41.3764 153.058 41.8758C153.783 42.2022 154.47 42.5939 155.166 42.9891C155.726 43.2887 156.292 43.5397 156.872 43.7873C158.01 44.2762 159.114 44.8322 160.217 45.4082C161.493 46.0735 162.774 46.6915 164.09 47.2529C164.88 47.6076 165.65 48.0025 166.423 48.4007C167.405 48.9068 168.386 49.3918 169.396 49.8257C170.69 50.3819 171.94 51.0284 173.198 51.676C174.254 52.2085 175.324 52.6968 176.399 53.1801C177.158 53.5334 177.897 53.921 178.639 54.3145C179.809 54.9087 180.778 55.1882 182.065 55.2407C182.151 55.1467 182.236 55.0526 182.324 54.9557C183.301 54.7969 184.258 54.7163 185.141 55.2541C185.866 55.9158 186.398 56.4607 186.531 57.5074C186.581 58.7355 186.568 59.5514 185.847 60.5311C185.168 61.2258 185.168 61.2258 184.651 61.2258C184.651 65.1759 184.651 69.126 184.651 73.1958C184.992 73.3839 185.333 73.572 185.685 73.7658C186.229 74.3016 186.432 74.7051 186.544 75.5003C186.595 76.6617 186.556 77.3009 185.992 78.308C185.016 79.3228 184.426 79.5627 183.081 79.5192C182.451 79.4518 182.059 79.3125 181.548 78.8958C181.292 78.5196 181.036 78.1434 180.772 77.7558C164.134 77.6147 164.134 77.6147 147.16 77.4708C147.16 106.72 147.16 135.97 147.16 166.106C150.403 166.106 153.645 166.106 156.985 166.106C158.537 167.531 158.537 167.531 158.713 168.556C158.712 168.947 158.704 169.337 158.688 169.728C158.687 169.911 158.685 170.094 158.683 170.283C158.675 170.963 158.654 171.643 158.634 172.323C158.602 173.845 158.57 175.367 158.537 176.936C161.694 176.936 164.851 176.936 168.103 176.936C168.103 169.318 168.103 161.7 168.103 153.851C178.257 153.851 188.41 153.851 198.871 153.851C198.913 162.543 198.913 162.543 198.923 166.835C198.929 169.157 198.936 171.478 198.949 173.8C198.96 175.638 198.966 177.476 198.969 179.314C198.97 180.287 198.973 181.26 198.981 182.233C198.988 183.32 198.989 184.407 198.989 185.494C198.992 185.816 198.996 186.137 199 186.469C198.992 188.224 198.916 189.287 197.837 190.616C197.02 191.259 196.218 191.292 195.231 191.366C194.931 191.39 194.631 191.414 194.322 191.439C194.01 191.461 193.698 191.484 193.377 191.507C193.061 191.531 192.745 191.556 192.42 191.581C191.64 191.642 190.86 191.7 190.08 191.756C190.029 192.214 190.029 192.214 189.977 192.681C189.689 194.667 188.951 196.122 187.506 197.365C185.737 198.625 183.909 199.241 181.807 198.881C179.772 198.25 178.129 196.834 176.894 194.962C176.636 194.321 176.636 194.321 176.636 193.466C176.341 193.552 176.046 193.637 175.742 193.725C174.045 194.14 172.32 194.251 170.591 194.396C167.786 194.631 165.002 194.894 162.221 195.372C158.16 196.038 154.182 195.922 150.131 195.236C148.256 194.921 146.386 194.735 144.494 194.588C141.924 194.388 139.373 194.12 136.818 193.751C136.746 193.966 136.674 194.18 136.6 194.401C135.727 196.663 134.162 197.679 132.164 198.596C130.617 199.164 129.073 199.096 127.575 198.382C125.111 197.013 125.111 197.013 124.569 195.817C124.516 195.606 124.462 195.394 124.407 195.176C124.237 195.176 124.066 195.176 123.89 195.176C123.759 194.767 123.631 194.357 123.502 193.947C123.43 193.719 123.358 193.491 123.284 193.256C123.115 192.611 123.115 192.611 123.115 191.756C122.823 191.744 122.823 191.744 122.526 191.731C121.639 191.688 120.753 191.633 119.866 191.578C119.561 191.565 119.256 191.552 118.941 191.539C117.233 191.423 116.111 191.259 114.881 189.892C114.2 188.945 114.285 188.146 114.274 186.959C114.272 186.758 114.27 186.558 114.267 186.352C114.261 185.688 114.257 185.024 114.253 184.359C114.252 184.133 114.25 183.906 114.249 183.672C114.242 182.471 114.237 181.269 114.233 180.068C114.229 178.829 114.217 177.589 114.204 176.35C114.195 175.396 114.192 174.442 114.191 173.488C114.189 173.031 114.185 172.574 114.179 172.117C114.171 171.477 114.171 170.837 114.173 170.196C114.171 169.832 114.169 169.468 114.166 169.093C114.374 167.784 114.774 167.325 115.616 166.391C118.778 164.649 122.683 166.106 126.217 166.106C126.217 146.638 126.217 127.169 126.217 107.111C120.586 107.111 114.955 107.111 109.153 107.111C108.641 106.17 108.129 105.23 107.601 104.261C107.317 103.793 107.028 103.328 106.729 102.871C106.588 102.649 106.447 102.426 106.303 102.197C105.968 101.682 105.619 101.179 105.254 100.69C103.534 98.2239 103.445 96.1327 103.521 93.1681C103.524 92.7641 103.526 92.3601 103.527 91.9561C103.538 90.4763 103.567 88.9967 103.594 87.5171C103.636 84.2018 103.679 80.8865 103.723 77.4708C96.3851 77.4708 89.0473 77.4708 81.4871 77.4708C81.4871 96.0927 81.4871 114.715 81.4871 133.901C81.8284 133.995 82.1697 134.089 82.5213 134.186C84.2121 135.565 84.2121 135.565 84.5898 136.751C84.6677 137.599 84.6684 138.444 84.6676 139.296C84.6687 139.543 84.6698 139.791 84.6709 140.045C84.6724 140.568 84.6725 141.091 84.6714 141.614C84.6706 142.411 84.6767 143.207 84.6832 144.004C84.6838 144.513 84.684 145.022 84.6837 145.53C84.6861 145.767 84.6885 146.004 84.6909 146.248C84.6808 147.665 84.5214 148.631 83.8141 149.861C83.08 150.629 82.4981 151.121 81.4871 151.286C81.4765 151.492 81.4658 151.697 81.4548 151.909C81.0431 153.368 79.8655 154.039 78.7076 154.742C77.8224 155.213 77.8224 155.213 77.3502 156.131C77.16 157.211 77.1502 158.188 77.3502 159.266C78.1193 160.517 78.984 161.167 80.3236 161.457C81.7868 161.14 82.8509 160.761 83.7848 159.421C84.0869 158.916 84.3786 158.403 84.6575 157.882C85.1069 157.271 85.1069 157.271 85.8068 157.043C86.0025 157.024 86.1981 157.005 86.3997 156.986C86.2823 157.616 86.1635 158.245 86.0442 158.874C85.9782 159.225 85.9122 159.575 85.8442 159.936C85.3531 162.255 84.7788 163.29 83.0385 164.681C81.4088 165.732 79.6473 165.89 77.8239 165.379C75.9363 164.503 74.3942 162.564 73.585 160.531C73.3073 158.126 73.3294 156.136 74.6384 154.097C75.5918 152.819 76.5226 152.012 77.8673 151.286C77.7584 151.128 77.6494 150.97 77.5371 150.807C77.3954 150.601 77.2538 150.394 77.1078 150.182C76.9669 149.977 76.8259 149.772 76.6806 149.56C75.9076 148.385 76.0112 147.278 76.0049 145.874C76.0035 145.619 76.002 145.364 76.0005 145.101C75.998 144.56 75.9963 144.02 75.9953 143.479C75.9928 142.653 75.9848 141.828 75.9767 141.002C75.975 140.477 75.9736 139.951 75.9726 139.426C75.9694 139.18 75.9662 138.933 75.9629 138.679C75.9683 137.072 76.1676 136.065 77.23 134.885C78.327 133.933 78.327 133.933 78.9016 133.616C79.0295 105.824 79.0295 105.824 79.1601 77.4708C63.867 77.4934 63.867 77.4934 48.5739 77.5221C45.6221 77.5247 45.6221 77.5247 44.242 77.5252C43.2741 77.5257 42.3063 77.5279 41.3385 77.531C40.1059 77.5349 38.8734 77.5361 37.6408 77.5352C37.1872 77.5354 36.7336 77.5366 36.28 77.5387C35.6697 77.5416 35.0595 77.5409 34.4492 77.5393C34.2696 77.541 34.0901 77.5427 33.9051 77.5444C32.6791 77.5358 32.6791 77.5358 32.103 76.9008C31.9657 76.1159 31.9657 76.1159 32.103 75.1908C32.5861 74.5206 33.1727 74.0221 33.7836 73.4986C34.1203 73.1962 34.457 72.8938 34.7936 72.5913C34.9559 72.4484 35.1182 72.3055 35.2855 72.1583C35.789 71.7121 36.275 71.2475 36.757 70.7733C38.7703 68.825 40.7976 66.8937 42.8816 65.0376C44.0912 63.9561 45.2372 62.8119 46.3832 61.6499C47.3197 60.7225 48.2898 59.8467 49.2697 58.9758C49.9649 58.374 49.9649 58.374 50.6425 57.6355C51.5337 56.8213 52.2304 56.78 53.393 56.7954C53.6714 56.7961 53.6714 56.7961 53.9554 56.7967C54.5747 56.7998 55.1934 56.813 55.8126 56.8261C56.2579 56.8303 56.7032 56.8337 57.1485 56.8365C58.1072 56.8436 59.0657 56.8549 60.0244 56.8693C61.5469 56.8912 63.0693 56.8995 64.5919 56.9051C68.9216 56.9229 73.2511 56.9529 77.5806 57.0102C79.9723 57.0418 82.3637 57.0586 84.7555 57.0599C86.0179 57.0612 87.2794 57.0698 88.5416 57.0968C94.4802 57.2201 98.8464 56.9641 103.852 53.1541C104.807 52.4472 105.816 51.8761 106.842 51.3042C107.189 51.1029 107.536 50.9012 107.882 50.6985C108.392 50.4022 108.902 50.106 109.412 49.8101C111.641 48.5173 113.86 47.2054 116.069 45.8713C118.622 44.3302 121.196 42.8359 123.777 41.3535C124.743 40.7972 125.707 40.2353 126.67 39.6726C126.932 39.5199 126.932 39.5199 127.199 39.3641C128.146 38.8116 129.09 38.2557 130.034 37.6965C130.236 37.5771 130.438 37.4578 130.647 37.3348C131.036 37.1049 131.425 36.874 131.814 36.6421C133.14 35.8607 133.14 35.8607 133.715 35.8607C133.737 35.5609 133.758 35.2611 133.78 34.9523C133.989 33.7794 134.263 33.2872 135.008 32.4407C135.93 31.9324 136.853 31.902 137.852 32.1557Z" fill="#F7CC35"/>
<path d="M168.103 153.851C178.257 153.851 188.41 153.851 198.871 153.851C198.913 162.543 198.913 162.543 198.923 166.835C198.929 169.157 198.936 171.478 198.949 173.8C198.96 175.638 198.966 177.476 198.969 179.314C198.97 180.287 198.973 181.26 198.981 182.233C198.988 183.32 198.989 184.407 198.989 185.494C198.992 185.816 198.996 186.137 199 186.469C198.992 188.224 198.915 189.287 197.837 190.616C197.02 191.259 196.218 191.292 195.231 191.367C194.931 191.39 194.631 191.414 194.322 191.439C194.01 191.461 193.698 191.484 193.377 191.507C193.061 191.531 192.745 191.556 192.419 191.581C191.64 191.642 190.86 191.7 190.08 191.756C190.029 192.214 190.029 192.214 189.977 192.681C189.689 194.667 188.951 196.122 187.506 197.365C185.737 198.625 183.909 199.241 181.807 198.881C179.771 198.25 178.129 196.834 176.894 194.962C176.635 194.321 176.635 194.321 176.635 193.466C176.341 193.552 176.046 193.637 175.742 193.726C174.045 194.141 172.32 194.251 170.591 194.396C167.786 194.631 165.002 194.894 162.221 195.372C158.16 196.038 154.182 195.922 150.131 195.236C148.256 194.921 146.386 194.735 144.494 194.588C141.924 194.389 139.373 194.12 136.818 193.751C136.746 193.966 136.674 194.18 136.6 194.401C135.727 196.663 134.162 197.679 132.164 198.596C130.617 199.165 129.072 199.096 127.575 198.382C125.111 197.013 125.111 197.013 124.569 195.817C124.516 195.606 124.462 195.394 124.407 195.176C124.237 195.176 124.066 195.176 123.89 195.176C123.759 194.767 123.63 194.357 123.502 193.947C123.43 193.719 123.358 193.491 123.284 193.256C123.114 192.611 123.114 192.611 123.114 191.756C122.92 191.748 122.726 191.74 122.526 191.731C121.639 191.688 120.753 191.633 119.866 191.578C119.561 191.565 119.255 191.552 118.941 191.539C118.495 191.509 118.495 191.509 118.039 191.478C117.767 191.463 117.495 191.448 117.215 191.433C116.392 191.186 116.392 191.186 114.582 189.476C114.582 185.338 114.582 181.2 114.582 176.936C132.244 176.936 149.906 176.936 168.103 176.936C168.103 169.318 168.103 161.7 168.103 153.851Z" fill="#EF8C2A"/>
<path d="M103.723 77.4708C111.146 77.4708 118.569 77.4708 126.217 77.4708C126.217 87.252 126.217 97.0332 126.217 107.111C122.042 107.199 122.042 107.199 117.782 107.289C116.905 107.315 116.028 107.341 115.125 107.368C114.429 107.376 113.733 107.383 113.037 107.389C112.857 107.397 112.678 107.404 112.493 107.412C111.343 107.457 110.27 107.463 109.152 107.111C108.38 106.259 108.001 105.369 107.601 104.261C107.317 103.793 107.028 103.328 106.728 102.871C106.588 102.649 106.447 102.426 106.302 102.197C105.968 101.682 105.619 101.179 105.254 100.69C103.534 98.2239 103.445 96.1327 103.521 93.1681C103.524 92.7641 103.526 92.3601 103.527 91.9561C103.538 90.4763 103.567 88.9967 103.593 87.5171C103.636 84.2018 103.679 80.8865 103.723 77.4708Z" fill="#EF8D2B"/>
<path d="M168.103 153.851C178.257 153.851 188.41 153.851 198.871 153.851C198.871 160.623 198.871 167.394 198.871 174.371C188.803 174.371 178.735 174.371 168.362 174.371C168.362 175.218 168.362 176.064 168.362 176.936C168.276 176.936 168.191 176.936 168.103 176.936C168.103 169.318 168.103 161.7 168.103 153.851Z" fill="#C7C7C7"/>
<path d="M182.324 79.1808C183.092 79.2749 183.86 79.3689 184.651 79.4658C184.645 79.8781 184.645 79.8781 184.639 80.2986C184.545 87.0302 184.484 93.7615 184.457 100.494C184.444 103.75 184.42 107.005 184.37 110.261C184.326 113.103 184.304 115.945 184.305 118.788C184.305 120.289 184.295 121.789 184.26 123.29C184.081 131.433 185.164 136.63 189.927 142.971C190.825 144.168 191.621 145.439 192.408 146.726C192.683 147.175 192.683 147.175 192.964 147.632C193.116 147.886 193.269 148.139 193.426 148.4C193.97 149.306 194.516 150.212 195.067 151.113C195.256 151.423 195.445 151.733 195.64 152.052C195.813 152.335 195.986 152.618 196.165 152.91C196.545 153.566 196.545 153.566 196.545 153.851C188.012 153.851 179.48 153.851 170.689 153.851C171.147 152.588 171.681 151.575 172.37 150.467C172.577 150.129 172.784 149.791 172.992 149.454C173.112 149.259 173.232 149.064 173.355 148.863C173.905 147.965 174.45 147.063 174.995 146.16C176.28 144.032 177.577 141.912 178.878 139.794C179.246 139.196 179.613 138.597 179.98 137.998C180.215 137.616 180.45 137.233 180.685 136.851C180.849 136.584 180.849 136.584 181.016 136.311C181.777 135.074 181.777 135.074 182.065 134.756C182.094 134.039 182.105 133.329 182.106 132.612C182.108 132.385 182.109 132.157 182.11 131.923C182.114 131.156 182.116 130.389 182.118 129.622C182.121 129.074 182.124 128.527 182.126 127.979C182.133 126.488 182.139 124.996 182.144 123.505C182.149 121.948 182.157 120.391 182.163 118.834C182.176 115.884 182.188 112.934 182.199 109.983C182.212 106.625 182.226 103.267 182.24 99.9095C182.27 93 182.298 86.0904 182.324 79.1808Z" fill="#CCCCCC"/>
<path d="M139.404 38.4257C140.757 38.8815 142.009 39.4079 143.264 40.129C143.826 40.4354 144.394 40.6882 144.979 40.9373C146.117 41.4262 147.22 41.9822 148.324 42.5582C149.39 43.1145 150.455 43.6565 151.556 44.1257C152.977 44.7314 154.343 45.4589 155.717 46.1831C156.678 46.6785 157.66 47.1049 158.647 47.5343C159.728 48.0157 160.788 48.546 161.849 49.0776C162.074 49.1893 162.298 49.3011 162.53 49.4162C163.798 50.0492 165.063 50.6911 166.326 51.3398C167.458 51.9195 168.599 52.4448 169.763 52.944C170.542 53.2962 171.3 53.6876 172.062 54.0829C173.512 54.8323 174.981 55.4719 176.485 56.0735C177.153 56.3807 177.153 56.3807 177.67 56.9507C167.431 56.9507 157.192 56.9507 146.643 56.9507C145.006 53.3407 145.006 53.3407 144.332 51.411C143.905 50.2757 143.385 49.1944 142.879 48.1001C142.444 47.1207 142.086 46.1233 141.731 45.1065C141.363 44.1174 140.922 43.1752 140.482 42.2231C139.404 39.8649 139.404 39.8649 139.404 38.4257Z" fill="#EDEDED"/>
<path d="M51.7533 60.0858C52.8269 60.5726 53.6375 61.4094 54.5005 62.2411C54.7413 62.4708 54.7413 62.4708 54.987 62.7051C55.9234 63.6008 56.8475 64.51 57.7647 65.4296C58.5665 66.2328 59.3836 66.9919 60.2372 67.7274C61.4476 68.7768 62.5652 69.9128 63.6868 71.0735C64.7713 72.1888 65.9009 73.2183 67.0778 74.2145C67.2254 74.3486 67.3731 74.4827 67.5252 74.6209C67.5252 74.7149 67.5252 74.809 67.5252 74.9059C57.2864 74.9059 47.0476 74.9059 36.4985 74.9059C38.6696 72.5127 40.9088 70.2455 43.3038 68.126C44.0309 67.4647 44.7252 66.7746 45.4187 66.0708C46.5826 64.8904 47.784 63.7792 49.0142 62.6842C49.9482 61.8439 50.8534 60.9698 51.7533 60.0858Z" fill="#EDEDED"/>
<path d="M81.4872 133.616C82.9248 134.165 83.9151 135.264 84.5898 136.751C84.6218 137.583 84.6385 138.408 84.6423 139.24C84.6438 139.488 84.6453 139.737 84.6468 139.992C84.6493 140.518 84.6509 141.045 84.6519 141.571C84.6544 142.373 84.6625 143.174 84.6706 143.976C84.6723 144.488 84.6737 144.999 84.6747 145.51C84.6779 145.749 84.681 145.988 84.6843 146.234C84.6795 147.658 84.527 148.626 83.8142 149.861C83.08 150.629 82.4982 151.121 81.4872 151.286C81.4765 151.492 81.4658 151.697 81.4548 151.909C81.0431 153.368 79.8655 154.039 78.7077 154.742C77.8225 155.213 77.8225 155.213 77.3503 156.131C77.16 157.211 77.1503 158.188 77.3503 159.266C78.1193 160.517 78.984 161.167 80.3237 161.457C81.7869 161.14 82.8509 160.761 83.7849 159.421C84.087 158.916 84.3786 158.403 84.6575 157.882C85.1069 157.271 85.1069 157.271 85.8069 157.043C86.0025 157.024 86.1981 157.005 86.3997 156.986C86.2823 157.616 86.1636 158.245 86.0442 158.874C85.9452 159.4 85.9452 159.4 85.8442 159.936C85.3531 162.255 84.7788 163.29 83.0385 164.681C81.4088 165.732 79.6473 165.89 77.8239 165.379C75.9363 164.503 74.3943 162.564 73.5851 160.531C73.3074 158.126 73.3295 156.136 74.6385 154.097C75.5918 152.819 76.5227 152.012 77.8674 151.286C77.7584 151.128 77.6494 150.97 77.5371 150.807C77.3955 150.601 77.2538 150.394 77.1079 150.182C76.9669 149.977 76.8259 149.772 76.6806 149.56C75.9076 148.385 76.0112 147.278 76.005 145.874C76.0035 145.619 76.002 145.364 76.0005 145.101C75.9981 144.56 75.9964 144.02 75.9954 143.479C75.9929 142.653 75.9849 141.828 75.9767 141.002C75.975 140.477 75.9736 139.951 75.9727 139.426C75.9695 139.18 75.9663 138.933 75.963 138.679C75.9684 137.072 76.1676 136.065 77.2301 134.885C78.7006 133.608 79.629 133.395 81.4872 133.616Z" fill="#EF8D2C"/>
<path d="M133.715 38.9957C133.104 41.1578 132.304 43.1608 131.428 45.2066C131.194 45.7545 130.959 46.3027 130.726 46.851C130.608 47.1275 130.608 47.1275 130.488 47.4095C129.979 48.6101 129.521 49.8206 129.089 51.0559C128.634 52.2725 128.119 53.4578 127.606 54.6457C127.278 55.4082 126.977 56.1491 126.734 56.9507C118.885 56.9507 111.035 56.9507 102.947 56.9507C103.831 56.1712 104.478 55.6246 105.445 55.0737C105.783 54.8801 105.783 54.8801 106.127 54.6825C106.363 54.5493 106.599 54.4161 106.842 54.2789C107.084 54.1403 107.326 54.0018 107.576 53.8591C109.1 52.9902 110.633 52.1451 112.173 51.312C112.707 51.0037 113.187 50.6725 113.677 50.2888C114.324 49.8257 114.324 49.8257 115.358 49.8257C115.358 49.6376 115.358 49.4495 115.358 49.2557C115.525 49.1653 115.692 49.075 115.864 48.9819C119.38 47.0625 122.839 45.0245 126.282 42.9501C126.52 42.8065 126.759 42.6629 127.005 42.5149C128.342 41.71 128.342 41.71 129.677 40.9025C130.22 40.574 130.763 40.2477 131.307 39.9219C131.464 39.8264 131.621 39.7308 131.782 39.6324C132.489 39.2114 132.897 38.9957 133.715 38.9957Z" fill="#EDEDED"/>
<path d="M129.579 108.251C134.613 108.251 139.647 108.251 144.834 108.251C144.834 116.527 144.834 124.804 144.834 133.331C144.663 133.331 144.492 133.331 144.316 133.331C143.933 132.685 143.58 132.041 143.234 131.372C142.435 129.863 141.604 128.415 140.679 126.995C140.031 125.971 139.419 124.923 138.806 123.873C137.932 122.375 137.054 120.882 136.156 119.402C136.057 119.239 135.958 119.076 135.856 118.908C135.302 117.994 134.747 117.081 134.191 116.168C133.665 115.302 133.139 114.436 132.614 113.57C132.401 113.22 132.189 112.871 131.976 112.521C131.675 112.026 131.374 111.531 131.074 111.035C130.898 110.746 130.722 110.457 130.541 110.159C130.096 109.391 130.096 109.391 129.579 108.251Z" fill="#EDEDED"/>
<path d="M129.837 77.4708C134.786 77.4708 139.734 77.4708 144.833 77.4708C144.833 85.7472 144.833 94.0236 144.833 102.551C144.095 101.737 143.637 101.209 143.119 100.275C142.997 100.058 142.875 99.8407 142.749 99.6168C142.621 99.3859 142.493 99.155 142.361 98.9171C141.341 97.1065 140.298 95.3225 139.193 93.5733C138.265 92.103 137.369 90.6196 136.505 89.1024C135.958 88.1554 135.396 87.2211 134.83 86.288C134.724 86.1121 134.617 85.9362 134.508 85.755C133.875 84.7117 133.239 83.6711 132.601 82.632C132.459 82.3987 132.316 82.1654 132.169 81.9251C131.889 81.467 131.608 81.0095 131.326 80.5529C131.199 80.3451 131.072 80.1374 130.942 79.9234C130.828 79.7386 130.715 79.5539 130.598 79.3636C130.354 78.8958 130.354 78.8958 130.354 78.3258C130.183 78.3258 130.013 78.3258 129.837 78.3258C129.837 78.0436 129.837 77.7615 129.837 77.4708Z" fill="#EDEDED"/>
<path d="M129.837 139.316C134.786 139.316 139.734 139.316 144.833 139.316C144.833 147.592 144.833 155.869 144.833 164.396C144.125 163.615 143.652 162.908 143.111 161.987C142.928 161.677 142.746 161.367 142.558 161.048C142.414 160.804 142.414 160.804 142.268 160.554C141.871 159.876 141.472 159.199 141.073 158.523C140.875 158.187 140.677 157.852 140.479 157.516C139.746 156.271 139.005 155.031 138.256 153.798C138.155 153.631 138.054 153.465 137.95 153.293C137.659 152.814 137.368 152.335 137.076 151.856C136.588 151.048 136.099 150.241 135.611 149.432C134.948 148.334 134.282 147.238 133.613 146.144C133.183 145.441 132.755 144.737 132.326 144.033C132.111 143.68 131.895 143.326 131.678 142.973C131.372 142.475 131.068 141.975 130.764 141.475C130.586 141.183 130.407 140.89 130.223 140.589C129.837 139.886 129.837 139.886 129.837 139.316Z" fill="#EDEDED"/>
<path d="M128.544 80.6059C129.203 81.3325 129.6 81.9014 130.079 82.7612C130.922 84.2465 131.796 85.7057 132.681 87.1609C133.669 88.7879 134.641 90.4232 135.589 92.0794C136.577 93.7827 137.607 95.4562 138.628 97.1359C143.541 105.222 143.541 105.222 143.541 105.686C138.592 105.686 133.643 105.686 128.544 105.686C128.544 97.4095 128.544 89.1331 128.544 80.6059Z" fill="#EDEDED"/>
<path d="M128.544 111.671C129.246 112.444 129.709 112.955 130.211 113.832C130.323 114.025 130.434 114.218 130.549 114.417C130.725 114.724 130.725 114.724 130.904 115.037C131.156 115.474 131.408 115.91 131.661 116.346C131.788 116.565 131.915 116.784 132.046 117.01C132.708 118.144 133.39 119.263 134.074 120.381C134.684 121.383 135.277 122.395 135.863 123.415C136.836 125.106 137.843 126.77 138.854 128.432C141.339 132.533 141.339 132.533 142.377 134.293C142.556 134.595 142.734 134.897 142.918 135.208C143.282 135.896 143.282 135.896 143.282 136.466C138.419 136.466 133.555 136.466 128.544 136.466C128.544 128.284 128.544 120.101 128.544 111.671Z" fill="#EDEDED"/>
<path d="M128.544 142.451C129.33 143.317 129.743 143.812 130.257 144.82C130.93 146.092 131.646 147.321 132.39 148.543C132.502 148.727 132.614 148.91 132.729 149.1C132.953 149.466 133.176 149.833 133.4 150.199C133.852 150.94 134.301 151.683 134.75 152.426C135.276 153.297 135.803 154.168 136.332 155.038C137.708 157.301 139.068 159.575 140.424 161.853C140.627 162.195 140.83 162.536 141.034 162.877C141.321 163.358 141.608 163.84 141.894 164.323C142.062 164.604 142.23 164.886 142.402 165.176C142.765 165.821 142.765 165.821 142.765 166.106C138.072 166.106 133.379 166.106 128.544 166.106C128.544 158.3 128.544 150.494 128.544 142.451Z" fill="#EDEDED"/>
<path d="M183.358 137.321C184.485 138.413 185.206 139.659 185.993 141.061C186.416 141.803 186.857 142.52 187.317 143.235C188.297 144.761 189.236 146.315 190.172 147.873C190.643 148.655 191.118 149.434 191.596 150.211C191.776 150.503 191.776 150.503 191.959 150.802C192.19 151.178 192.421 151.553 192.654 151.928C193.442 153.217 193.442 153.217 193.442 153.851C186.872 153.851 180.302 153.851 173.533 153.851C173.978 152.624 174.4 151.811 175.084 150.752C175.295 150.422 175.505 150.093 175.716 149.763C175.825 149.592 175.934 149.421 176.046 149.245C176.593 148.378 177.124 147.499 177.654 146.619C177.761 146.442 177.868 146.265 177.978 146.082C178.306 145.537 178.634 144.991 178.963 144.446C180.403 142.051 181.848 139.664 183.358 137.321Z" fill="#FDFDFD"/>
<path d="M105.533 80.3209C109.117 80.3209 112.7 80.3209 116.392 80.3209C116.392 84.8353 116.392 89.3497 116.392 94.0009C112.809 94.0009 109.225 94.0009 105.533 94.0009C105.533 89.4865 105.533 84.9721 105.533 80.3209Z" fill="#CEE7E6"/>
<path d="M136.56 38.9957C137.26 39.3816 137.279 39.7438 137.545 40.5454C137.991 41.8294 138.507 43.0432 139.081 44.2626C139.397 44.9657 139.679 45.6793 139.956 46.4016C140.403 47.5505 140.876 48.6868 141.343 49.8257C142.469 52.5702 142.469 52.5702 142.94 53.7924C143.18 54.4093 143.442 55.0165 143.718 55.6148C144.058 56.3807 144.058 56.3807 144.058 56.9507C139.194 56.9507 134.331 56.9507 129.32 56.9507C129.61 55.3497 129.61 55.3497 130.02 54.4893C130.107 54.3029 130.194 54.1165 130.284 53.9244C130.376 53.7298 130.469 53.5353 130.564 53.3348C131.239 51.8817 131.864 50.4411 132.393 48.9151C133.613 45.5267 135.047 42.2356 136.56 38.9957Z" fill="#EDEDED"/>
<path d="M79.16 77.4708C79.9279 77.4708 80.6959 77.4708 81.487 77.4708C81.487 95.9987 81.487 114.527 81.487 133.616C80.7191 133.616 79.9512 133.616 79.16 133.616C79.16 115.088 79.16 96.5601 79.16 77.4708Z" fill="#CBCBCB"/>
<path d="M168.103 170.381C178.257 170.381 188.41 170.381 198.871 170.381C198.871 171.698 198.871 173.014 198.871 174.371C188.803 174.371 178.735 174.371 168.362 174.371C168.362 175.218 168.362 176.064 168.362 176.936C168.276 176.936 168.191 176.936 168.103 176.936C168.103 174.773 168.103 172.61 168.103 170.381Z" fill="#C7C7C7"/>
<path d="M139.662 35.2907C139.797 35.3625 139.932 35.4342 140.072 35.5081C143.251 37.2054 143.251 37.2054 146.509 38.7041C147.561 39.1754 148.58 39.7223 149.605 40.2576C150.741 40.8472 151.887 41.3765 153.057 41.8758C153.783 42.2023 154.47 42.5939 155.166 42.9891C155.726 43.2887 156.292 43.5397 156.872 43.7873C158.01 44.2763 159.114 44.8323 160.217 45.4083C161.492 46.0736 162.773 46.6916 164.089 47.253C164.88 47.6077 165.649 48.0025 166.422 48.4008C167.405 48.9068 168.385 49.3918 169.396 49.8258C170.689 50.3819 171.939 51.0284 173.197 51.6761C174.253 52.2084 175.323 52.6962 176.398 53.1812C177.159 53.534 177.907 53.9118 178.655 54.2967C179.695 54.825 180.695 55.2263 181.806 55.5258C181.55 55.6669 181.55 55.6669 181.289 55.8108C180.996 56.3855 180.996 56.3855 180.772 56.9508C178.598 57.099 177.038 56.8541 175.084 55.8108C174.524 55.5254 173.964 55.2404 173.403 54.9558C173.117 54.8085 172.831 54.6611 172.537 54.5094C171.851 54.165 171.165 53.8484 170.462 53.5486C169.245 53.025 168.072 52.4164 166.892 51.7994C165.196 50.9195 163.473 50.1127 161.745 49.3118C160.542 48.7512 159.368 48.1583 158.205 47.5045C157.664 47.2078 157.114 46.9612 156.549 46.7264C155.227 46.1575 153.949 45.5012 152.664 44.8394C151.87 44.439 151.071 44.0637 150.263 43.6983C149.172 43.2046 148.099 42.6805 147.031 42.1308C145.17 41.1752 143.285 40.2959 141.373 39.4756C141.091 39.3525 140.809 39.2294 140.518 39.1026C140.133 38.9384 140.133 38.9384 139.74 38.7709C139.145 38.4257 139.145 38.4257 138.886 37.5707C139.057 37.2886 139.227 37.0064 139.403 36.7157C139.503 36.2439 139.591 35.7689 139.662 35.2907Z" fill="#CDCDCC"/>
<path d="M133.715 35.8607C134.135 36.6089 134.135 36.6089 134.491 37.5708C134.281 38.5326 134.281 38.5326 133.974 39.2808C133.758 39.3054 133.542 39.33 133.319 39.3553C132.264 39.6028 131.416 40.082 130.483 40.6523C130.201 40.821 130.201 40.821 129.912 40.9931C129.283 41.3698 128.655 41.7501 128.027 42.1308C127.567 42.4078 127.107 42.6846 126.647 42.9613C125.929 43.3934 125.211 43.8256 124.493 44.2585C122.877 45.2322 121.254 46.1911 119.624 47.1361C119.325 47.3094 119.325 47.3094 119.02 47.4861C118.489 47.7926 117.958 48.097 117.426 48.4008C117.135 48.5679 116.845 48.7351 116.545 48.9073C115.875 49.2558 115.875 49.2558 115.358 49.2558C115.358 49.4439 115.358 49.632 115.358 49.8258C115.123 49.9257 114.888 50.0256 114.647 50.1286C113.767 50.5428 112.963 51.0486 112.142 51.5892C110.744 52.5043 109.32 53.3235 107.856 54.101C107.028 54.5437 106.255 54.9935 105.479 55.5436C102.967 57.3069 100.652 57.15 97.7759 56.9508C98.9335 55.8198 100.222 55.1017 101.59 54.3324C102.08 54.053 102.57 53.7736 103.06 53.4941C103.303 53.3559 103.547 53.2177 103.797 53.0753C104.789 52.5102 105.775 51.9349 106.761 51.3577C107.119 51.148 107.478 50.9383 107.836 50.7287C108.011 50.6263 108.186 50.5239 108.367 50.4185C108.892 50.112 109.417 49.8067 109.943 49.5018C111.995 48.3108 114.035 47.0995 116.069 45.8714C118.622 44.3302 121.195 42.836 123.777 41.3536C124.743 40.7973 125.706 40.2353 126.669 39.6726C126.844 39.5708 127.019 39.469 127.199 39.3641C128.145 38.8117 129.09 38.2558 130.034 37.6966C130.337 37.5175 130.337 37.5175 130.647 37.3349C131.036 37.1049 131.425 36.8741 131.814 36.6421C133.14 35.8607 133.14 35.8607 133.715 35.8607Z" fill="#CDCDCC"/>
<path d="M165.776 61.2258C166.294 61.2258 166.294 61.2258 166.843 61.8136C166.957 61.9441 167.07 62.0745 167.187 62.2089C167.967 63.0724 168.819 63.8498 169.655 64.6458C170.781 65.7251 171.897 66.8148 173 67.9233C173.796 68.7168 174.601 69.4703 175.456 70.1855C177.163 71.6176 178.74 73.235 180.256 74.9059C175.477 74.9059 170.699 74.9059 165.776 74.9059C165.776 70.3915 165.776 65.877 165.776 61.2258Z" fill="#EDEDED"/>
<path d="M90.795 61.2258C91.6703 61.7082 92.0007 61.9288 92.6211 62.6686C93.5963 63.778 94.6624 64.7269 95.753 65.6946C96.4465 66.3226 97.1132 66.9716 97.776 67.6383C98.6596 68.526 99.5614 69.3745 100.491 70.2034C102.154 71.6878 103.76 73.2373 105.274 74.9059C100.496 74.9059 95.7179 74.9059 90.795 74.9059C90.795 70.3915 90.795 65.877 90.795 61.2258Z" fill="#EDEDED"/>
<path d="M111.997 59.5158C116.69 59.5158 121.382 59.5158 126.217 59.5158C126.217 64.0302 126.217 68.5446 126.217 73.1958C125.067 72.3502 124.183 71.606 123.196 70.5774C122.204 69.5558 121.2 68.5756 120.141 67.6383C118.975 66.6038 117.874 65.5142 116.78 64.3897C115.683 63.2692 114.538 62.2367 113.361 61.218C112.772 60.6558 112.772 60.6558 111.997 59.5158Z" fill="#EDEDED"/>
<path d="M109.67 61.2258C110.908 62.2494 112.004 63.1623 113.112 64.3074C114.257 65.471 115.435 66.566 116.647 67.6439C117.737 68.6327 118.798 69.6573 119.862 70.681C121.106 71.875 122.373 73.0283 123.663 74.1622C123.823 74.3136 123.984 74.4649 124.149 74.6209C124.149 74.7149 124.149 74.809 124.149 74.9059C119.371 74.9059 114.593 74.9059 109.67 74.9059C109.67 70.3915 109.67 65.877 109.67 61.2258Z" fill="#EDEDED"/>
<path d="M93.1222 59.5158C97.815 59.5158 102.508 59.5158 107.343 59.5158C107.343 64.0302 107.343 68.5446 107.343 73.1958C106.053 72.1299 104.923 71.1704 103.771 69.9717C102.559 68.7235 101.305 67.5544 100.012 66.407C99.115 65.593 98.2613 64.7315 97.4035 63.8676C96.4661 62.9511 95.4879 62.094 94.5049 61.238C93.8979 60.6558 93.8979 60.6558 93.1222 59.5158Z" fill="#EDEDED"/>
<path d="M130.613 59.5158C135.305 59.5158 139.998 59.5158 144.833 59.5158C144.833 64.0302 144.833 68.5446 144.833 73.1958C144.025 72.7501 143.62 72.501 143.006 71.8499C142.861 71.6976 142.715 71.5454 142.565 71.3885C142.413 71.2267 142.26 71.0648 142.102 70.898C140.762 69.4998 139.393 68.193 137.953 66.9213C137.241 66.2694 136.599 65.5691 135.954 64.8373C134.473 63.1929 132.8 61.7667 131.162 60.3196C130.981 60.1484 130.799 59.9772 130.613 59.8008C130.613 59.7067 130.613 59.6127 130.613 59.5158Z" fill="#EDEDED"/>
<path d="M149.229 59.5158C153.921 59.5158 158.614 59.5158 163.449 59.5158C163.449 63.9361 163.449 68.3565 163.449 72.9108C162.402 72.3337 161.62 71.6331 160.75 70.7911C160.426 70.48 160.101 70.169 159.776 69.8582C159.612 69.701 159.448 69.5439 159.279 69.382C158.69 68.8211 158.095 68.2698 157.498 67.7193C156.114 66.442 154.771 65.1274 153.451 63.7712C152.429 62.7291 151.359 61.774 150.253 60.8428C149.746 60.3708 149.746 60.3708 149.229 59.5158Z" fill="#EDEDED"/>
<path d="M55.373 59.5158C60.0658 59.5158 64.7586 59.5158 69.5936 59.5158C69.5936 64.0302 69.5936 68.5446 69.5936 73.1958C68.9963 72.6315 68.3991 72.0672 67.7837 71.4858C67.3708 71.121 66.9563 70.7585 66.5394 70.3992C65.4108 69.4107 64.3432 68.3657 63.2792 67.2943C62.5833 66.6121 61.8676 65.9662 61.1421 65.3227C60.1753 64.4615 59.293 63.5721 58.4333 62.5851C57.6345 61.7365 56.7524 61.0038 55.875 60.2572C55.7094 60.1066 55.5437 59.956 55.373 59.8008C55.373 59.7067 55.373 59.6127 55.373 59.5158Z" fill="#EDEDED"/>
<path d="M168.103 59.5158C169.888 59.4797 171.674 59.4547 173.459 59.4375C174.067 59.4303 174.674 59.4206 175.281 59.4083C176.154 59.391 177.027 59.3829 177.9 59.3766C178.172 59.3693 178.443 59.3619 178.723 59.3543C180.619 59.3535 180.619 59.3535 181.437 60.2192C181.559 60.4573 181.681 60.6954 181.806 60.9408C181.977 61.0348 182.148 61.1289 182.324 61.2258C182.324 65.0818 182.324 68.9379 182.324 72.9108C179.875 71.5614 177.873 69.2294 175.86 67.2108C174.795 66.1556 173.717 65.1425 172.579 64.1827C171.707 63.4447 170.94 62.6643 170.171 61.7958C169.622 61.263 169.068 60.7374 168.51 60.2149C168.376 60.0782 168.241 59.9416 168.103 59.8008C168.103 59.7067 168.103 59.6127 168.103 59.5158Z" fill="#EDEDED"/>
<path d="M147.16 61.5108C148.145 62.0538 148.71 62.5587 149.503 63.3812C150.469 64.3705 151.45 65.3182 152.477 66.2312C153.401 67.0537 154.297 67.8961 155.175 68.7784C156.296 69.9034 157.456 70.9617 158.633 72.0136C160.56 73.7495 160.56 73.7495 161.381 74.6209C161.381 74.7149 161.381 74.809 161.381 74.9059C156.688 74.9059 151.995 74.9059 147.16 74.9059C147.16 70.4855 147.16 66.0651 147.16 61.5108Z" fill="#EDEDED"/>
<path d="M128.544 61.5108C129.49 62.0319 130.043 62.4951 130.807 63.2743C131.151 63.6215 131.151 63.6215 131.502 63.9756C131.72 64.1968 131.939 64.418 132.164 64.6458C133.124 65.5887 134.097 66.5142 135.075 67.4346C135.387 67.7282 135.698 68.0217 136.01 68.3152C136.167 68.4629 136.324 68.6106 136.486 68.7628C137.412 69.6373 138.325 70.5258 139.226 71.4324C140.225 72.4356 141.264 73.3549 142.347 74.2468C142.485 74.3702 142.623 74.4937 142.765 74.6209C142.765 74.7149 142.765 74.809 142.765 74.9059C138.072 74.9059 133.379 74.9059 128.544 74.9059C128.544 70.4855 128.544 66.0651 128.544 61.5108Z" fill="#EDEDED"/>
<path d="M168.103 153.851C178.257 153.851 188.41 153.851 198.871 153.851C198.871 154.792 198.871 155.732 198.871 156.701C188.718 156.701 178.564 156.701 168.103 156.701C168.103 155.761 168.103 154.82 168.103 153.851Z" fill="#6F6F6F"/>
<path d="M78.643 67.2108C79.4986 68.0326 80.3241 68.8821 81.1457 69.7446C82.3221 70.9741 83.5822 72.0807 84.8483 73.1958C85.3729 73.6631 85.8894 74.1343 86.3996 74.6208C86.3996 74.7148 86.3996 74.8089 86.3996 74.9058C81.6215 74.9058 76.8434 74.9058 71.9205 74.9058C71.9205 72.5545 71.9205 70.2033 71.9205 67.7808C74.0985 65.7801 76.2015 65.2943 78.643 67.2108Z" fill="#EF8D2A"/>
<path d="M81.4872 151.571C80.9377 153.234 80.1024 153.888 78.7238 154.724C77.825 155.211 77.825 155.211 77.3503 156.131C77.16 157.211 77.1503 158.188 77.3503 159.266C78.1193 160.517 78.984 161.167 80.3237 161.457C81.7869 161.14 82.8509 160.761 83.7849 159.421C84.087 158.916 84.3786 158.403 84.6575 157.882C85.1069 157.271 85.1069 157.271 85.8069 157.043C86.0025 157.024 86.1981 157.005 86.3997 156.986C86.2823 157.616 86.1636 158.245 86.0442 158.874C85.9452 159.4 85.9452 159.4 85.8442 159.936C85.3531 162.255 84.7788 163.29 83.0385 164.681C81.4088 165.732 79.6473 165.89 77.8239 165.379C75.9363 164.503 74.3943 162.564 73.5851 160.531C73.3074 158.126 73.3295 156.136 74.6385 154.097C76.7493 151.268 78.2649 151.118 81.4872 151.571Z" fill="#6C6C6B"/>
<path d="M168.362 174.371C178.43 174.371 188.498 174.371 198.871 174.371C198.871 175.217 198.871 176.064 198.871 176.936C188.803 176.936 178.735 176.936 168.362 176.936C168.362 176.09 168.362 175.243 168.362 174.371Z" fill="#6A6968"/>
<path d="M168.362 167.531C178.43 167.531 188.498 167.531 198.871 167.531C198.871 168.378 198.871 169.224 198.871 170.096C188.803 170.096 178.735 170.096 168.362 170.096C168.362 169.25 168.362 168.403 168.362 167.531Z" fill="#686868"/>
<path d="M168.362 160.691C178.43 160.691 188.498 160.691 198.871 160.691C198.871 161.537 198.871 162.384 198.871 163.256C188.803 163.256 178.735 163.256 168.362 163.256C168.362 162.41 168.362 161.563 168.362 160.691Z" fill="#666666"/>
<path d="M74.2476 59.5158C78.9403 59.5158 83.6331 59.5158 88.4681 59.5158C88.4681 62.1492 88.4681 64.7826 88.4681 67.4958C87.3162 66.9315 87.3162 66.9315 86.1411 66.3558C85.4286 66.192 85.4286 66.192 84.7999 66.2311C84.5989 66.2315 84.3979 66.2318 84.1908 66.2322C83.3705 66.3918 82.7316 66.7734 82.0042 67.2108C81.7663 66.983 81.5283 66.7552 81.2831 66.5206C80.9525 66.2044 80.6219 65.8882 80.2913 65.572C80.1183 65.4064 79.9453 65.2408 79.767 65.0702C78.8722 64.2147 77.975 63.3626 77.0715 62.5183C76.9064 62.3637 76.7413 62.2092 76.5711 62.0499C76.2545 61.7539 75.9373 61.4587 75.6195 61.1643C74.5348 60.149 74.5348 60.149 74.2476 59.5158Z" fill="#EDEDED"/>
<path d="M123.115 191.756C124.032 191.688 124.825 191.716 125.7 192.041C126.208 192.726 126.538 193.425 126.904 194.21C127.232 194.955 127.232 194.955 127.963 195.497C129.434 195.934 130.782 195.978 132.229 195.426C132.851 194.958 133.189 194.582 133.667 193.965C134.167 193.368 134.36 193.191 135.106 193.134C135.69 193.209 136.248 193.312 136.818 193.466C136.434 195.382 135.429 196.548 134.009 197.649C132.358 198.779 130.742 199.183 128.803 198.881C127.4 198.395 126.069 197.617 124.925 196.601C124.569 195.817 124.569 195.817 124.408 195.176C124.237 195.176 124.066 195.176 123.891 195.176C123.76 194.767 123.631 194.357 123.503 193.947C123.431 193.719 123.359 193.491 123.285 193.256C123.115 192.611 123.115 192.611 123.115 191.756Z" fill="#6E6C67"/>
<path d="M190.08 191.756C189.924 193.82 189.377 195.515 187.979 196.957C186.349 198.36 184.512 199.1 182.438 198.989C180.38 198.637 178.826 197.375 177.411 195.746C176.83 194.866 176.635 194.551 176.635 193.466C177.422 193.258 178.153 193.118 178.962 193.181C179.657 193.965 179.657 193.965 180.255 194.891C181.562 195.896 182.85 195.949 184.392 195.746C185.613 195.263 186.394 194.549 187.236 193.466C187.412 192.993 187.585 192.518 187.753 192.041C188.58 191.737 189.216 191.735 190.08 191.756Z" fill="#6D6B66"/>
<path d="M125.7 192.041C126.749 192.157 127.798 192.273 128.847 192.391C129.204 192.431 129.56 192.47 129.917 192.509C130.43 192.566 130.944 192.624 131.457 192.681C131.766 192.716 132.075 192.75 132.393 192.785C133.03 192.873 133.617 192.986 134.233 193.181C133.829 194.382 133.073 194.99 132.164 195.746C130.866 196.223 129.506 196.326 128.21 195.783C126.927 194.974 126.306 194.086 125.7 192.611C125.7 192.423 125.7 192.235 125.7 192.041Z" fill="#F7C528"/>
<path d="M187.495 192.326C187.369 193.545 187.087 194.042 186.235 194.82C186.054 194.989 185.873 195.158 185.687 195.332C184.528 196.257 183.18 196.23 181.807 196.031C180.706 195.548 179.923 195.053 179.423 193.843C179.357 193.625 179.29 193.406 179.221 193.181C180.115 193.035 181.009 192.894 181.904 192.754C182.153 192.713 182.403 192.672 182.66 192.63C184.284 192.378 185.856 192.272 187.495 192.326Z" fill="#F6C528"/>
<path d="M129.837 139.316C134.786 139.316 139.734 139.316 144.833 139.316C144.833 147.592 144.833 155.869 144.833 164.396C144.057 163.541 144.057 163.541 143.974 162.529C143.976 162.102 143.983 161.674 143.993 161.246C143.996 161.013 143.998 160.779 144 160.538C144.009 159.766 144.024 158.993 144.038 158.221C144.046 157.685 144.052 157.15 144.059 156.614C144.077 155.204 144.1 153.794 144.124 152.385C144.152 150.693 144.174 149.002 144.196 147.311C144.232 144.741 144.275 142.171 144.316 139.601C139.538 139.695 134.76 139.789 129.837 139.886C129.837 139.698 129.837 139.51 129.837 139.316Z" fill="#FCF2CB"/>
<path d="M137.852 32.1558C138.814 32.8976 139.52 33.7906 139.801 35.0648C139.835 35.9399 139.803 36.5417 139.264 37.209C139.077 37.3881 139.077 37.3881 138.887 37.5708C138.67 37.1084 138.455 36.6451 138.24 36.1814C138.12 35.9235 138 35.6656 137.877 35.3999C137.594 34.7208 137.594 34.7208 137.594 34.1508C136.842 34.2482 136.425 34.3065 135.784 34.7208C135.238 35.6203 134.855 36.568 134.491 37.5708C134.02 36.976 133.731 36.6062 133.66 35.8084C133.82 34.3736 134.03 33.4867 135.008 32.4408C135.933 31.931 136.85 31.9092 137.852 32.1558Z" fill="#71706E"/>
<path d="M78.6431 67.2108C79.0697 67.7751 79.4963 68.3394 79.9359 68.9208C77.3762 68.9208 74.8165 68.9208 72.1792 68.9208C72.1792 68.4506 72.1792 67.9803 72.1792 67.4958C73.9989 65.4899 76.6247 65.55 78.6431 67.2108Z" fill="#6C6A68"/>
<path d="M88.4682 62.3658C88.4682 64.0587 88.4682 65.7516 88.4682 67.4958C87.9722 67.2136 87.9722 67.2136 87.4663 66.9258C86.1459 66.2817 84.9842 66.124 83.5556 66.3558C82.6494 66.7348 82.6494 66.7348 82.0043 67.2108C81.8336 66.9286 81.663 66.6465 81.4872 66.3558C87.1833 62.3658 87.1833 62.3658 88.4682 62.3658Z" fill="#CBCBCA"/>
<path d="M184.651 73.1958C185.518 73.6519 186.011 73.939 186.461 74.9058C186.646 76.2201 186.633 77.1628 185.992 78.308C185.163 79.1697 184.793 79.4559 183.633 79.5371C182.812 79.5089 182.215 79.467 181.548 78.8958C181.283 78.4254 181.024 77.9507 180.773 77.4708C181.012 77.4535 181.252 77.4363 181.499 77.4185C181.808 77.3946 182.118 77.3707 182.437 77.3461C182.9 77.3114 182.9 77.3114 183.373 77.276C184.104 77.278 184.104 77.278 184.392 76.9008C184.453 76.2787 184.499 75.6548 184.538 75.0305C184.559 74.6892 184.581 74.3479 184.603 73.9963C184.619 73.7321 184.635 73.468 184.651 73.1958Z" fill="#72706B"/>
<path d="M184.651 54.9558C185.444 55.4457 186.048 56.0408 186.461 56.9508C186.599 58.038 186.676 59.0795 186.19 60.0647C185.847 60.5311 185.847 60.5311 185.168 61.2258C184.997 61.2258 184.827 61.2258 184.651 61.2258C184.651 59.9091 184.651 58.5924 184.651 57.2358C183.371 57.1417 182.091 57.0477 180.773 56.9508C181.66 54.9941 182.718 54.5504 184.651 54.9558Z" fill="#73726C"/>
<path d="M86.7604 66.3169C88.0256 67.0079 88.0256 67.0079 88.4683 67.4958C88.4788 67.9707 88.4793 68.446 88.4683 68.9208C87.7245 68.9595 86.9824 68.9876 86.2382 69.0099C86.0293 69.0218 85.8203 69.0338 85.605 69.0461C84.4742 69.0714 83.7754 69.0187 82.8871 68.2028C82.6811 67.9695 82.4752 67.7362 82.2629 67.4958C82.5215 66.6408 82.5215 66.6408 82.978 66.3091C84.196 65.8068 85.5401 65.8319 86.7604 66.3169Z" fill="#6B6967"/>
<path d="M72.1792 61.5108C73.185 62.0652 73.8004 62.6173 74.6193 63.4524C74.859 63.6952 75.0986 63.9381 75.3455 64.1883C76.0266 64.8986 76.691 65.6212 77.3503 66.3558C77.166 66.3459 76.9817 66.336 76.7918 66.3258C75.1959 66.2761 74.1086 66.3828 72.6963 67.2108C72.5257 67.3049 72.355 67.3989 72.1792 67.4958C72.1792 65.5208 72.1792 63.5457 72.1792 61.5108Z" fill="#EDEDED"/>
<path d="M93.1222 59.5158C97.815 59.5158 102.508 59.5158 107.343 59.5158C107.343 64.0302 107.343 68.5446 107.343 73.1958C106.826 72.6258 106.826 72.6258 106.773 72.0704C106.779 71.8438 106.785 71.6172 106.791 71.3838C106.796 71.1271 106.801 70.8704 106.806 70.6059C106.815 70.3283 106.823 70.0507 106.832 69.7647C106.841 69.3389 106.841 69.3389 106.851 68.9045C106.873 67.9955 106.898 67.0866 106.923 66.1777C106.938 65.5624 106.952 64.9471 106.967 64.3318C107.003 62.8214 107.043 61.3111 107.084 59.8008C105.764 59.8063 104.445 59.8212 103.125 59.8443C102.677 59.8508 102.229 59.855 101.78 59.8565C98.512 59.7722 98.512 59.7722 95.6274 61.2629C95.1906 61.5108 95.1906 61.5108 94.6807 61.3562C94.1564 60.9408 94.1564 60.9408 93.1222 59.5158Z" fill="#FEFBF2"/>
<path d="M130.613 59.5158C135.305 59.5158 139.998 59.5158 144.833 59.5158C144.833 64.0302 144.833 68.5446 144.833 73.1958C144.492 73.0077 144.151 72.8196 143.799 72.6258C143.97 72.5318 144.14 72.4377 144.316 72.3408C144.316 68.2026 144.316 64.0644 144.316 59.8008C139.879 59.8948 135.442 59.9889 130.871 60.0858C130.786 59.8977 130.701 59.7096 130.613 59.5158Z" fill="#FCF4D1"/>
<path d="M38.567 72.6258C38.7376 72.7198 38.9083 72.8139 39.0841 72.9108C38.6575 73.381 38.2309 73.8513 37.7913 74.3358C47.5182 74.3358 57.245 74.3358 67.2666 74.3358C67.3946 74.6179 67.3946 74.6179 67.5252 74.9058C57.2864 74.9058 47.0476 74.9058 36.4985 74.9058C37.188 74.1458 37.8775 73.3858 38.567 72.6258Z" fill="#FDF6DC"/>
<path d="M84.0725 68.9208C85.523 68.9208 86.9735 68.9208 88.468 68.9208C88.468 70.2375 88.468 71.5542 88.468 72.9108C87.5012 72.378 86.9117 71.8729 86.1248 71.0761C85.9032 70.8531 85.6815 70.6301 85.4532 70.4004C84.9847 69.9167 84.5264 69.4211 84.0725 68.9208Z" fill="#F08D2A"/>
<path d="M90.795 61.2258C91.769 61.7626 92.0346 61.9929 92.6049 62.9358C92.2906 63.0696 92.2906 63.0696 91.97 63.2062C91.2021 63.7563 91.2021 63.7563 91.1417 64.9082C91.131 65.3739 91.1274 65.8399 91.1293 66.3057C91.1254 66.5512 91.1215 66.7967 91.1175 67.0497C91.1064 67.8338 91.1041 68.6176 91.1021 69.4018C91.0961 69.9334 91.0895 70.465 91.0824 70.9966C91.0661 72.2997 91.0578 73.6026 91.0536 74.9059C90.9683 74.9059 90.883 74.9059 90.795 74.9059C90.795 70.3915 90.795 65.877 90.795 61.2258Z" fill="#FCEAB1"/>
<path d="M93.1222 59.5158C94.7433 59.5158 96.3645 59.5158 98.0347 59.5158C97.4041 60.2109 97.0019 60.5871 96.241 61.0298C95.9815 61.1869 95.9815 61.1869 95.7168 61.3471C95.1906 61.5108 95.1906 61.5108 94.6725 61.3449C94.1564 60.9408 94.1564 60.9408 93.1222 59.5158Z" fill="#CECCC4"/>
<path d="M180.773 59.5158C181.285 59.5158 181.796 59.5158 182.324 59.5158C182.568 60.3224 182.614 60.8105 182.612 61.6451C182.612 62.0302 182.612 62.0302 182.612 62.423C182.61 62.6991 182.609 62.9753 182.608 63.2598C182.607 63.5432 182.607 63.8267 182.607 64.1187C182.605 65.0247 182.602 65.9307 182.599 66.8367C182.597 67.4507 182.596 68.0647 182.595 68.6787C182.592 70.1844 182.588 71.6901 182.582 73.1958C182.412 73.1018 182.241 73.0077 182.065 72.9108C182.151 69.0548 182.236 65.1987 182.324 61.2258C181.983 61.0377 181.641 60.8496 181.29 60.6558C180.966 60.0502 180.966 60.0502 180.773 59.5158Z" fill="#F1CF59"/>
<path d="M90.795 61.2258C91.769 61.7626 92.0346 61.9929 92.6049 62.9358C91.3768 63.7908 91.3768 63.7908 90.795 63.7908C90.795 62.9444 90.795 62.0979 90.795 61.2258Z" fill="#D4CDB4"/>
<path d="M88.4684 65.5008C88.4684 66.1592 88.4684 66.8175 88.4684 67.4958C87.208 66.7121 87.208 66.7121 86.9171 66.0708C87.8867 65.5008 87.8867 65.5008 88.4684 65.5008Z" fill="#EDEDED"/>
<path d="M180.773 59.5158C181.285 59.5158 181.796 59.5158 182.324 59.5158C182.324 59.986 182.324 60.4563 182.324 60.9408C181.839 60.8695 181.839 60.8695 181.29 60.6558C180.966 60.068 180.966 60.068 180.773 59.5158Z" fill="#77746C"/>
<path d="M34.1715 73.1958C34.3421 73.2899 34.5128 73.3839 34.6886 73.4808C33.9207 74.3273 33.1528 75.1737 32.3616 76.0458C32.2763 75.7637 32.1909 75.4815 32.103 75.1908C32.7856 74.5325 33.4682 73.8741 34.1715 73.1958Z" fill="#F8D452"/>
<path d="M86.3997 156.986C86.1412 157.841 86.1412 157.841 85.6564 158.144C85.4751 158.232 85.2938 158.32 85.107 158.411C84.723 158.693 84.723 158.693 84.3313 158.981C84.8124 157.798 85.1508 156.986 86.3997 156.986Z" fill="#8E8E8E"/>
</svg>
