<svg width="231" height="231" viewBox="0 0 231 231" fill="none" xmlns="http://www.w3.org/2000/svg">
<path d="M50.0503 91.888C51.1265 92.9865 51.6095 93.8577 51.9222 95.5397C51.9172 95.7486 51.9121 95.9574 51.9069 96.1726C51.8954 97.9763 52.3341 98.9067 53.3081 100.229C53.8162 100.864 54.328 101.49 54.8466 102.112C55.129 102.46 55.4109 102.809 55.6924 103.158C56.2975 103.906 56.9059 104.65 57.517 105.391C58.4827 106.562 59.4409 107.742 60.3983 108.924C61.9124 110.79 63.4315 112.65 64.9528 114.507C67.6801 117.837 70.3994 121.176 73.1159 124.52C74.0697 125.693 75.0258 126.863 75.984 128.031C76.5783 128.756 77.171 129.483 77.7633 130.211C78.039 130.549 78.3154 130.885 78.5926 131.221C78.9697 131.679 79.3442 132.139 79.7185 132.6C79.9291 132.857 80.1398 133.114 80.3568 133.379C80.8029 134.048 80.8029 134.048 80.8029 135.044C80.9794 135.044 81.1559 135.044 81.3378 135.044C81.1613 136.249 80.9848 137.454 80.8029 138.696C77.7988 138.999 77.7988 138.999 76.7259 138.311C76.2583 137.805 75.8609 137.285 75.4547 136.704C75.0109 136.148 74.5648 135.596 74.1176 135.044C73.7971 134.647 73.4768 134.249 73.1566 133.851C72.9006 133.533 72.9006 133.533 72.6395 133.209C65.3013 124.1 65.3013 124.1 64.7353 123.396C64.4276 123.015 64.1194 122.634 63.8099 122.255C63.2161 121.526 62.6584 120.787 62.1341 119.981C61.3766 118.866 60.5357 117.935 59.6438 116.989C58.6446 115.922 57.7727 114.75 56.9195 113.508C56.1066 112.34 55.231 111.338 54.2861 110.338C53.289 109.277 52.4214 108.107 51.5712 106.868C51.2445 106.41 50.9158 105.953 50.5851 105.499C50.429 105.28 50.2728 105.061 50.1119 104.835C48.792 103.179 47.6372 102.859 45.7853 102.672C44.4985 102.418 43.7993 101.718 42.8803 100.602C41.867 98.7175 42.0018 96.3609 42.2953 94.2118C42.9458 92.5873 43.761 91.7761 45.0864 91.0581C46.9873 90.7269 48.3071 90.7039 50.0503 91.888Z" fill="#EF8F30"/>
<path d="M194.85 110.189C196.153 111.201 196.804 112.003 197.395 113.798C197.515 114.801 197.527 115.792 197.53 116.804C197.533 117.09 197.535 117.375 197.538 117.67C197.542 118.272 197.544 118.874 197.544 119.476C197.546 120.391 197.56 121.305 197.575 122.221C197.578 122.808 197.579 123.395 197.58 123.983C197.589 124.389 197.589 124.389 197.597 124.803C197.577 126.927 196.981 128.22 195.791 129.733C195.349 130.072 194.903 130.405 194.454 130.729C194.299 131.037 194.145 131.345 193.986 131.662C193.177 133.084 192.147 133.79 190.977 134.712C190.268 135.232 190.268 135.232 189.907 136.04C189.683 137.734 189.764 138.997 190.375 140.542C191.134 141.563 191.597 141.627 192.68 141.763C194.226 141.82 195.134 141.7 196.325 140.356C196.75 139.674 197.15 138.987 197.531 138.267C198 137.6 198.305 137.492 199 137.368C198.45 143.258 198.45 143.258 196.818 144.931C194.866 146.599 193.329 146.867 190.977 146.663C189.48 146.278 188.494 145.446 187.501 144.007C187.211 143.627 187.211 143.627 186.916 143.24C185.957 141.475 185.748 139.471 185.896 137.368C186.311 134.784 187.349 132.769 189.108 131.264C189.543 130.952 189.992 130.671 190.442 130.397C190.273 130.126 190.273 130.126 190.101 129.851C189.954 129.613 189.808 129.376 189.657 129.131C189.511 128.896 189.365 128.661 189.215 128.419C188.426 127.001 188.523 125.541 188.516 123.886C188.515 123.604 188.513 123.323 188.511 123.033C188.509 122.438 188.507 121.843 188.506 121.248C188.504 120.341 188.495 119.434 188.487 118.527C188.485 117.948 188.484 117.369 188.483 116.79C188.479 116.52 188.476 116.25 188.473 115.972C188.479 114.11 188.724 112.688 189.774 111.26C191.328 109.758 192.984 109.136 194.85 110.189Z" fill="#EF8D2C"/>
<path d="M43.7995 180.752C45.4882 182.047 47.0108 184.143 47.6436 186.5C47.8401 189.666 47.6222 192.014 46.0224 194.529C44.4692 196.57 42.8213 197.537 40.5571 197.662C38.4178 197.547 36.7134 196.67 35.2423 194.716C34.0485 192.771 33.2826 190.747 33.384 188.27C33.6257 186.111 34.0387 184.05 35.3426 182.516C37.7719 180.283 40.8676 179.02 43.7995 180.752Z" fill="#C9C9C9"/>
<path d="M65.7817 180.745C67.2092 181.835 68.6358 183.22 69.3041 185.172C69.4879 186.189 69.4879 186.189 69.5715 187.496C69.5949 187.799 69.6184 188.102 69.6425 188.414C69.7613 191.028 69.3656 192.808 67.967 194.799C66.0912 196.768 64.3051 197.642 61.852 197.578C59.7258 197.265 58.1517 195.888 56.8443 193.833C55.6121 191.56 55.3707 189.209 55.666 186.5C56.3407 183.849 57.5418 182.174 59.4359 180.773C61.5749 179.424 63.635 179.412 65.7817 180.745Z" fill="#C9C9C9"/>
<path d="M193.919 39.7686C194.007 39.7686 194.095 39.7686 194.186 39.7686C194.186 62.8837 194.186 85.9989 194.186 109.814C193.392 109.814 192.598 109.814 191.78 109.814C191.748 101.045 191.725 92.2758 191.71 83.5063C191.703 79.4347 191.694 75.3632 191.679 71.2917C191.665 67.7438 191.657 64.1961 191.654 60.6482C191.652 58.7688 191.648 56.8895 191.638 55.01C191.629 53.2425 191.626 51.475 191.628 49.7074C191.628 49.0574 191.625 48.4074 191.62 47.7574C191.614 46.8723 191.615 45.9877 191.619 45.1025C191.615 44.8432 191.611 44.5839 191.607 44.3167C191.615 43.5994 191.615 43.5994 191.78 42.4244C192.429 41.8148 192.429 41.8148 193.117 41.4285C193.581 40.5705 193.581 40.5705 193.919 39.7686Z" fill="#CCCCCC"/>
<path d="M194.186 130.729C193.618 132.666 192.754 133.428 191.328 134.401C190.398 134.968 190.398 134.968 189.907 136.04C189.709 137.708 189.775 139.025 190.375 140.542C191.134 141.563 191.597 141.627 192.68 141.763C194.226 141.82 195.134 141.7 196.325 140.356C196.75 139.674 197.15 138.987 197.531 138.267C198 137.6 198.305 137.492 199 137.368C198.45 143.258 198.45 143.258 196.818 144.931C194.866 146.599 193.329 146.867 190.977 146.663C189.48 146.278 188.494 145.446 187.501 144.007C187.308 143.754 187.115 143.501 186.916 143.24C185.957 141.475 185.748 139.471 185.896 137.368C186.36 134.481 187.607 132.725 189.389 130.874C190.827 129.932 192.643 130.484 194.186 130.729Z" fill="#6B6B6B"/>
<path d="M46.0393 102.843C47.8934 102.811 47.8934 102.811 48.446 102.843C48.9037 103.411 48.7862 104.169 48.8189 104.948C48.8367 105.34 48.8545 105.733 48.8728 106.138C48.8821 106.354 48.8914 106.569 48.9011 106.791C49.063 110.5 49.2672 114.204 49.5115 117.906C49.535 118.263 49.5585 118.62 49.5827 118.988C49.7 120.759 49.8196 122.531 49.9411 124.302C50.2645 129.097 50.4612 133.887 50.5853 138.696C50.2434 138.799 49.9014 138.901 49.5491 139.007C48.9538 139.186 48.4601 139.351 47.9112 139.692C47.902 139.431 47.8928 139.17 47.8833 138.901C47.6764 133.254 47.3999 127.615 47.0431 121.979C47.0282 121.743 47.0133 121.508 46.9979 121.265C46.8461 118.872 46.6914 116.48 46.5337 114.088C46.4884 113.398 46.4434 112.708 46.3986 112.019C46.3432 111.167 46.2869 110.316 46.2295 109.464C46.0857 107.251 46.0016 105.064 46.0393 102.843Z" fill="#CDCCCC"/>
<path d="M52.2164 152.886C52.5606 152.884 52.5606 152.884 52.9117 152.881C53.164 152.882 53.4163 152.883 53.6762 152.885C53.9415 152.884 54.2067 152.882 54.48 152.881C55.3601 152.878 56.2401 152.88 57.1202 152.882C57.7297 152.882 58.3392 152.881 58.9487 152.881C60.2274 152.88 61.5061 152.881 62.7848 152.884C64.4269 152.888 66.0689 152.886 67.711 152.882C68.97 152.879 70.2289 152.88 71.4879 152.882C72.0935 152.882 72.6991 152.882 73.3047 152.88C74.1499 152.878 74.9951 152.881 75.8403 152.885C76.2187 152.883 76.2187 152.883 76.6048 152.881C76.949 152.883 76.949 152.883 77.3001 152.886C77.5001 152.887 77.7 152.887 77.9061 152.887C78.3964 152.971 78.3964 152.971 78.9312 153.635C78.998 154.465 78.998 154.465 78.9312 155.294C78.2939 156.086 78.1664 156.042 77.3001 156.043C76.9559 156.046 76.9559 156.046 76.6048 156.048C76.3525 156.047 76.1002 156.046 75.8403 156.044C75.4424 156.046 75.4424 156.046 75.0364 156.048C74.1564 156.051 73.2763 156.049 72.3963 156.047C71.7868 156.047 71.1773 156.048 70.5678 156.048C69.2891 156.049 68.0104 156.048 66.7317 156.045C65.0896 156.041 63.4476 156.043 61.8055 156.047C60.5465 156.05 59.2876 156.049 58.0286 156.047C57.423 156.047 56.8174 156.047 56.2118 156.049C55.3666 156.051 54.5214 156.048 53.6762 156.044C53.2978 156.046 53.2978 156.046 52.9117 156.048C52.6822 156.047 52.4528 156.045 52.2164 156.043C52.0164 156.042 51.8164 156.042 51.6104 156.042C51.1201 155.958 51.1201 155.958 50.5853 155.294C50.5184 154.465 50.5184 154.465 50.5853 153.635C51.2225 152.844 51.3501 152.887 52.2164 152.886Z" fill="#F08D29"/>
<path d="M52.2164 144.587C52.5606 144.584 52.5606 144.584 52.9117 144.581C53.164 144.583 53.4163 144.584 53.6762 144.585C53.9415 144.584 54.2067 144.583 54.48 144.582C55.3601 144.579 56.2401 144.581 57.1202 144.583C57.7297 144.583 58.3392 144.582 58.9487 144.581C60.2274 144.58 61.5061 144.582 62.7848 144.585C64.4269 144.589 66.0689 144.586 67.711 144.582C68.97 144.58 70.2289 144.581 71.4879 144.583C72.0935 144.583 72.6991 144.582 73.3047 144.581C74.1499 144.579 74.9951 144.582 75.8403 144.585C76.2187 144.583 76.2187 144.583 76.6048 144.581C76.949 144.584 76.949 144.584 77.3001 144.587C77.5001 144.587 77.7 144.588 77.9061 144.588C78.3964 144.671 78.3964 144.671 78.9312 145.335C78.998 146.165 78.998 146.165 78.9312 146.995C78.2939 147.786 78.1664 147.742 77.3001 147.743C76.9559 147.746 76.9559 147.746 76.6048 147.749C76.3525 147.748 76.1002 147.746 75.8403 147.745C75.4424 147.747 75.4424 147.747 75.0364 147.749C74.1564 147.752 73.2763 147.75 72.3963 147.747C71.7868 147.748 71.1773 147.748 70.5678 147.749C69.2891 147.75 68.0104 147.749 66.7317 147.746C65.0896 147.742 63.4476 147.744 61.8055 147.748C60.5465 147.75 59.2876 147.75 58.0286 147.748C57.423 147.748 56.8174 147.748 56.2118 147.75C55.3666 147.751 54.5214 147.749 53.6762 147.745C53.2978 147.747 53.2978 147.747 52.9117 147.749C52.6822 147.747 52.4528 147.745 52.2164 147.743C52.0164 147.743 51.8164 147.743 51.6104 147.743C51.1201 147.659 51.1201 147.659 50.5853 146.995C50.5184 146.165 50.5184 146.165 50.5853 145.335C51.2225 144.544 51.3501 144.588 52.2164 144.587Z" fill="#F08D2A"/>
<path d="M52.2164 161.186C52.5606 161.183 52.5606 161.183 52.9117 161.18C53.164 161.181 53.4163 161.183 53.6762 161.184C53.9415 161.183 54.2067 161.182 54.48 161.18C55.3601 161.178 56.2401 161.179 57.1202 161.182C57.7297 161.181 58.3392 161.181 58.9487 161.18C60.2274 161.179 61.5061 161.18 62.7848 161.183C64.4269 161.187 66.0689 161.185 67.711 161.181C68.97 161.179 70.2289 161.179 71.4879 161.181C72.0935 161.182 72.6991 161.181 73.3047 161.179C74.1499 161.178 74.9951 161.18 75.8403 161.184C76.2187 161.182 76.2187 161.182 76.6048 161.18C76.949 161.183 76.949 161.183 77.3001 161.186C77.5001 161.186 77.7 161.186 77.9061 161.186C78.3964 161.27 78.3964 161.27 78.9312 161.934C78.7792 163.782 78.7792 163.782 78.3964 164.258C77.5526 164.293 76.7146 164.306 75.8706 164.306C75.4728 164.308 75.4728 164.308 75.0669 164.309C74.1854 164.312 73.3039 164.313 72.4224 164.313C71.8125 164.314 71.2026 164.316 70.5927 164.317C69.3125 164.319 68.0322 164.319 66.7519 164.319C65.1077 164.319 63.4635 164.324 61.8193 164.329C60.5592 164.333 59.2991 164.334 58.039 164.334C57.4327 164.334 56.8263 164.335 56.2199 164.338C55.3734 164.341 54.527 164.34 53.6805 164.338C53.4278 164.34 53.1751 164.342 52.9147 164.344C52.6848 164.343 52.455 164.341 52.2182 164.34C51.9177 164.34 51.9177 164.34 51.6112 164.34C51.1201 164.258 51.1201 164.258 50.5853 163.594C50.5184 162.764 50.5184 162.764 50.5853 161.934C51.2225 161.143 51.3501 161.187 52.2164 161.186Z" fill="#F08C29"/>
<path d="M191.848 32.3862C192.856 32.969 193.663 33.5265 194.187 34.7891C194.604 36.4361 194.779 38.497 194.221 40.111C193.45 41.5923 192.629 42.2614 191.245 42.7564C189.595 43.0797 188.586 42.6128 187.234 41.4285C186.065 39.8316 186.057 38.1778 186.071 36.1014C186.243 34.2873 187.003 33.6452 188.103 32.5068C189.358 31.8696 190.56 31.8459 191.848 32.3862Z" fill="#686867"/>
<path d="M184.56 39.4366C184.471 39.9844 184.383 40.5321 184.292 41.0965C184.116 41.0965 183.939 41.0965 183.757 41.0965C183.736 41.4102 183.715 41.7238 183.693 42.047C183.496 43.7434 182.93 45.2386 182.387 46.8022C181.209 50.2759 180.182 53.7926 179.211 57.3631C178.947 57.3631 178.682 57.3631 178.409 57.3631C178.08 56.8884 177.753 56.411 177.443 55.9172C177.034 55.2823 177.034 55.2823 176.27 54.5413C175.661 53.9111 175.221 53.3824 174.732 52.6325C174.209 51.7117 174.209 51.7117 173.596 51.3876C174.001 50.1212 174.593 49.5183 175.451 48.6903C176.517 47.6378 177.542 46.5595 178.543 45.4121C179.76 44.0204 181.018 42.7124 182.311 41.4311C182.966 40.7776 182.966 40.7776 183.541 40.015C184.025 39.4366 184.025 39.4366 184.56 39.4366Z" fill="#FEFCF7"/>
<path d="M50.0503 91.888C51.1201 92.98 51.6351 93.8547 51.9222 95.5397C51.9605 96.5386 51.9544 97.5284 51.9222 98.5274C51.7457 98.3015 51.5692 98.0755 51.3874 97.8427C49.2092 95.0359 49.2092 95.0359 46.2992 94.1029C45.6046 94.2463 45.3851 94.5103 44.9694 95.2077C44.7221 96.248 44.7574 97.1475 44.9694 98.1955C45.7713 99.6817 46.7141 100.857 47.911 101.847C47.911 102.066 47.911 102.285 47.911 102.511C48.0875 102.621 48.264 102.73 48.4458 102.843C46.3268 103.037 44.8734 102.76 43.203 101.085C42.0168 99.4841 42.0733 97.4891 42.1313 95.4126C42.3415 93.8737 42.7202 93.067 43.6345 92.0164C45.6127 90.3069 48.0154 90.5058 50.0503 91.888Z" fill="#6D6B69"/>
<circle cx="115.5" cy="115.5" r="115.5" fill="#EDEDED"/>
<path d="M191.848 32.3862C192.855 32.9689 193.663 33.5264 194.187 34.7891C194.603 36.4346 194.799 38.5308 194.193 40.1226C193.696 41.0288 193.341 41.6447 192.515 42.0717C192.361 42.1881 192.206 42.3045 192.047 42.4244C192.036 42.801 192.025 43.1776 192.014 43.5655C191.883 45.8106 190.308 47.219 189.106 48.7318C188.796 49.1568 188.489 49.5852 188.187 50.0182C187.965 50.3347 187.965 50.3347 187.738 50.6575C186.983 51.7503 186.236 52.8513 185.489 53.9523C184.51 55.3913 183.517 56.8145 182.521 58.2345C181.515 59.6682 180.525 61.1123 179.562 62.5916C178.547 64.1499 177.47 65.6224 176.376 67.0966C175.784 67.9181 175.229 68.7574 174.682 69.6253C173.874 70.9039 173.017 72.109 172.125 73.2977C171.058 74.7212 170.058 76.185 169.092 77.7145C167.479 80.2165 165.773 82.6306 164.036 84.9997C163.07 86.3194 162.173 87.6897 161.284 89.0896C160.609 90.129 159.891 91.1155 159.171 92.1072C158.579 92.9433 158.014 93.8017 157.451 94.6683C156.412 96.2586 155.317 97.7672 154.201 99.2731C153.34 100.464 152.534 101.703 151.725 102.948C151.145 103.821 150.544 104.662 149.93 105.499C149.097 106.633 148.301 107.791 147.523 108.985C146.745 110.178 145.949 111.336 145.116 112.47C144.058 113.912 143.063 115.404 142.074 116.919C141.284 118.118 140.462 119.279 139.634 120.438C137.494 123.451 135.364 126.48 133.333 129.608C132.472 130.927 131.573 132.183 130.642 133.426C129.334 135.187 129.334 135.187 128.069 136.995C127.918 137.213 127.768 137.431 127.613 137.656C127.203 138.694 127.357 139.246 127.601 140.356C127.817 141.063 128.05 141.758 128.29 142.454C129.216 145.146 129.753 147.351 129.472 150.315C129.456 150.89 129.456 150.89 129.439 151.477C129.155 152.887 128.679 154.039 128.138 155.326C127.431 157.011 126.774 158.726 126.113 160.44C125.983 160.774 125.853 161.108 125.72 161.453C125.068 163.143 124.466 164.825 123.94 166.581C123.364 168.377 122.486 169.519 121.183 170.565C120.413 170.884 119.935 170.937 119.136 170.935C118.884 170.935 118.632 170.935 118.373 170.935C118.102 170.933 117.832 170.931 117.553 170.93C117.136 170.929 117.136 170.929 116.711 170.928C115.822 170.926 114.934 170.922 114.046 170.918C113.444 170.916 112.842 170.915 112.24 170.913C110.764 170.91 109.288 170.903 107.812 170.897C107.812 173.526 107.812 176.156 107.812 178.864C108.511 178.856 109.21 178.847 109.93 178.838C112.246 178.81 114.562 178.792 116.878 178.778C118.282 178.77 119.685 178.758 121.088 178.739C122.444 178.721 123.8 178.711 125.156 178.707C125.672 178.704 126.188 178.698 126.703 178.689C130.026 178.633 132.435 178.754 135.038 181.582C136.786 183.989 137.423 186.312 137.387 189.542C137.302 191.544 136.869 192.903 135.89 194.467C135.584 195.001 135.584 195.001 135.272 195.546C133.836 197.37 132.101 198.645 130.02 198.867C129.741 198.868 129.462 198.868 129.175 198.869C128.689 198.872 128.689 198.872 128.193 198.876C127.836 198.875 127.479 198.875 127.122 198.874C126.741 198.875 126.36 198.877 125.979 198.879C124.932 198.884 123.886 198.884 122.84 198.884C121.711 198.885 120.583 198.889 119.454 198.893C116.986 198.9 114.519 198.903 112.051 198.905C110.51 198.906 108.969 198.908 107.428 198.91C103.16 198.917 98.8927 198.922 94.6249 198.923C94.3518 198.923 94.0788 198.923 93.7975 198.923C93.244 198.923 92.6904 198.924 92.1369 198.924C91.8622 198.924 91.5874 198.924 91.3043 198.924C90.8917 198.924 90.8917 198.924 90.4707 198.924C86.0129 198.925 81.5551 198.934 77.0973 198.947C72.5191 198.959 67.9411 198.966 63.3629 198.966C60.793 198.966 58.2231 198.969 55.6532 198.978C53.465 198.987 51.2768 198.989 49.0886 198.984C47.9726 198.982 46.8566 198.982 45.7406 198.989C44.7178 198.996 43.6952 198.995 42.6724 198.988C42.1295 198.987 41.5865 198.993 41.0436 199C38.9097 198.976 37.4179 198.544 35.6101 197.123C35.3674 196.938 35.1247 196.753 34.8747 196.563C33.152 194.365 32.146 191.659 32 188.616C32.0461 185.903 32.875 183.742 34.3054 181.711C36.2213 179.456 38.1019 178.708 40.6873 178.751C40.9171 178.751 41.147 178.751 41.3838 178.751C42.1362 178.752 42.8885 178.759 43.6409 178.767C44.1654 178.769 44.69 178.77 45.2145 178.771C46.5897 178.775 47.9647 178.785 49.3399 178.796C50.7453 178.806 52.1507 178.811 53.5561 178.816C56.3096 178.826 59.0631 178.844 61.8167 178.864C61.8167 176.235 61.8167 173.606 61.8167 170.897C60.9056 170.913 59.9945 170.928 59.0558 170.944C58.1726 170.954 57.2893 170.962 56.406 170.97C55.7926 170.977 55.1791 170.986 54.5657 170.997C53.6835 171.013 52.8015 171.021 51.9192 171.027C51.6453 171.034 51.3715 171.04 51.0893 171.048C49.1811 171.048 49.1811 171.048 48.1453 170.267C47.2349 169.001 47.3335 167.889 47.329 166.266C47.3263 165.857 47.3263 165.857 47.3237 165.44C47.3184 164.535 47.3153 163.631 47.3126 162.726C47.3115 162.418 47.3104 162.109 47.3093 161.791C47.3037 160.157 47.2999 158.524 47.2974 156.891C47.2944 155.203 47.2852 153.515 47.2746 151.827C47.2676 150.53 47.2654 149.233 47.2644 147.935C47.2631 147.313 47.26 146.691 47.255 146.069C47.2485 145.198 47.2488 144.327 47.2506 143.456C47.2472 143.199 47.2438 142.942 47.2403 142.678C47.2498 141.445 47.3427 140.753 47.8856 139.706C48.655 138.775 49.0588 138.654 50.1009 138.643C50.453 138.639 50.453 138.639 50.8123 138.634C51.0704 138.632 51.3285 138.63 51.5945 138.628C51.8658 138.624 52.1371 138.621 52.4167 138.618C53.3167 138.607 54.2167 138.599 55.1167 138.591C55.7395 138.584 56.3622 138.577 56.985 138.57C58.6265 138.552 60.2681 138.535 61.9097 138.519C63.5838 138.503 65.2579 138.484 66.932 138.466C70.2186 138.43 73.5052 138.396 76.7919 138.364C76.5357 137.989 76.279 137.614 76.0222 137.24C75.8079 136.927 75.8079 136.927 75.5893 136.608C75.1581 135.999 74.7066 135.474 74.2013 134.961C72.7534 133.433 71.4401 131.742 70.1065 130.065C69.6612 129.511 69.2155 128.958 68.7694 128.405C68.4101 127.959 68.0507 127.513 67.6914 127.067C67.3993 126.704 67.3993 126.704 67.1012 126.334C65.3014 124.1 65.3014 124.1 64.7354 123.396C64.4278 123.015 64.1195 122.634 63.8101 122.255C63.2163 121.526 62.6586 120.787 62.1342 119.981C61.3767 118.866 60.5359 117.935 59.6439 116.989C58.6447 115.922 57.7728 114.75 56.9197 113.508C56.1067 112.34 55.2312 111.338 54.2862 110.338C53.2891 109.277 52.4215 108.107 51.5714 106.868C51.2446 106.41 50.9159 105.953 50.5853 105.499C50.4291 105.28 50.273 105.061 50.1121 104.835C48.7922 103.179 47.6373 102.859 45.7854 102.672C44.4986 102.418 43.7994 101.718 42.8804 100.602C41.8672 98.7175 42.0019 96.3609 42.2954 94.2118C42.9459 92.5873 43.7612 91.7761 45.0866 91.0581C46.9875 90.7269 48.3072 90.7039 50.0505 91.8881C51.1267 92.9865 51.6097 93.8577 51.9223 95.5397C51.9171 95.7481 51.9119 95.9565 51.9065 96.1712C51.8938 97.9812 52.3407 98.9166 53.3148 100.246C53.826 100.889 54.341 101.523 54.8628 102.153C55.147 102.505 55.4307 102.858 55.7139 103.212C56.4816 104.167 57.2557 105.114 58.0311 106.059C58.8419 107.05 59.6468 108.049 60.4523 109.047C61.8046 110.72 63.1608 112.388 64.5197 114.053C66.4378 116.402 68.349 118.761 70.2589 121.121C72.8159 124.28 75.3749 127.436 77.9419 130.583C78.2201 130.924 78.498 131.265 78.7757 131.607C79.1537 132.072 79.5326 132.536 79.9115 132.999C80.1237 133.26 80.3358 133.52 80.5544 133.788C81.0389 134.399 81.0389 134.399 81.6053 134.712C81.6122 134.494 81.6191 134.276 81.6262 134.051C81.7283 131.926 81.9943 129.93 82.3908 127.865C82.8501 125.472 83.1351 123.107 83.3178 120.657C83.4547 118.834 83.4547 118.834 83.7446 118.114C83.8256 117.472 83.896 116.828 83.9619 116.184C84.2036 114.055 84.4672 111.933 84.7641 109.814C84.8018 109.517 84.8395 109.22 84.8783 108.913C85.1583 106.982 85.5343 105.869 86.6862 104.503C87.4302 104.195 87.8816 104.127 88.6502 104.122C88.8875 104.12 89.1248 104.117 89.3693 104.115C89.6289 104.114 89.8886 104.113 90.1561 104.112C90.4301 104.11 90.7041 104.108 90.9865 104.106C91.8946 104.099 92.8028 104.095 93.711 104.092C94.021 104.091 94.331 104.089 94.6504 104.088C96.2907 104.081 97.9311 104.076 99.5715 104.073C101.267 104.069 102.962 104.058 104.657 104.045C105.959 104.036 107.262 104.033 108.565 104.032C109.19 104.03 109.815 104.027 110.44 104.02C111.314 104.012 112.188 104.013 113.063 104.015C113.45 104.009 113.45 104.009 113.845 104.002C115.415 104.017 116.206 104.291 117.439 105.499C118.64 105.431 119.42 104.289 120.28 103.341C120.446 103.161 120.612 102.981 120.783 102.796C121.967 101.51 123.131 100.198 124.295 98.8854C125.149 97.9524 126.04 97.086 126.933 96.2127C127.617 95.523 128.27 94.8035 128.921 94.0666C129.814 93.0559 130.722 92.0849 131.662 91.1411C133.036 89.7604 134.372 88.3317 135.704 86.8903C136.805 85.7003 137.914 84.5254 139.032 83.3605C140.119 82.2274 141.18 81.0682 142.225 79.8749C143.307 78.6411 144.422 77.4933 145.577 76.3658C147.201 74.7381 148.759 73.0101 150.331 71.3059C152.397 69.0674 154.469 66.8488 156.6 64.7053C157.752 63.5203 158.851 62.2639 159.958 61.0148C161.126 59.7167 162.317 58.4641 163.534 57.2386C164.738 56.0247 165.89 54.7586 167.036 53.4624C167.974 52.4269 168.951 51.4548 169.927 50.4747C170.633 49.7493 171.314 49.0002 171.991 48.2339C173.12 46.958 174.284 45.7536 175.476 44.5692C176.052 43.9767 176.601 43.3799 177.147 42.7486C179.57 39.9829 181.825 38.4415 185.059 37.4643C185.336 37.3483 185.612 37.2323 185.897 37.1129C186.237 36.0067 186.237 36.0067 186.432 34.7891C187.759 32.2886 189.54 31.4181 191.848 32.3862Z" fill="#F9C92D"/>
<path d="M42.0564 178.733C42.4402 178.732 42.824 178.73 43.2078 178.727C44.2589 178.722 45.3099 178.723 46.3609 178.724C47.4959 178.725 48.6308 178.721 49.7657 178.716C51.9878 178.709 54.2099 178.708 56.432 178.709C58.2384 178.709 60.0448 178.708 61.8512 178.705C62.3718 178.705 62.8924 178.704 63.413 178.703C63.6721 178.703 63.9313 178.702 64.1982 178.702C69.0975 178.696 73.9966 178.696 78.8959 178.698C83.3761 178.7 87.8563 178.693 92.3366 178.682C96.9389 178.671 101.541 178.666 106.144 178.668C108.727 178.668 111.31 178.667 113.893 178.658C116.092 178.651 118.291 178.65 120.49 178.657C121.611 178.66 122.732 178.66 123.854 178.653C124.882 178.647 125.909 178.648 126.937 178.656C127.482 178.658 128.028 178.652 128.573 178.645C131.195 178.677 133.066 179.411 135.038 181.582C136.786 183.989 137.423 186.312 137.387 189.542C137.302 191.544 136.869 192.903 135.89 194.467C135.686 194.823 135.482 195.179 135.272 195.546C133.836 197.37 132.101 198.645 130.02 198.867C129.741 198.868 129.462 198.868 129.175 198.869C128.851 198.871 128.527 198.874 128.193 198.876C127.836 198.875 127.479 198.875 127.122 198.874C126.741 198.875 126.36 198.877 125.979 198.879C124.932 198.884 123.886 198.884 122.84 198.884C121.711 198.885 120.583 198.889 119.454 198.893C116.986 198.9 114.519 198.903 112.051 198.905C110.51 198.906 108.969 198.908 107.428 198.91C103.16 198.917 98.8927 198.922 94.6249 198.923C94.3518 198.923 94.0788 198.923 93.7975 198.923C93.244 198.923 92.6904 198.924 92.1369 198.924C91.8621 198.924 91.5874 198.924 91.3043 198.924C90.8917 198.924 90.8917 198.924 90.4707 198.924C86.0128 198.925 81.5551 198.934 77.0973 198.947C72.5191 198.959 67.9411 198.966 63.3629 198.966C60.793 198.966 58.2231 198.969 55.6532 198.978C53.465 198.987 51.2768 198.989 49.0886 198.984C47.9726 198.982 46.8566 198.982 45.7406 198.989C44.7178 198.996 43.6952 198.995 42.6724 198.988C42.1295 198.987 41.5865 198.993 41.0436 199C38.9097 198.976 37.4179 198.544 35.6101 197.123C35.3674 196.938 35.1247 196.753 34.8747 196.563C33.152 194.365 32.146 191.659 32 188.616C32.0461 185.903 32.875 183.741 34.3054 181.711C36.6743 178.923 38.9144 178.717 42.0564 178.733Z" fill="#6A6969"/>
<path d="M89.8953 110.146C97.8375 110.146 105.78 110.146 113.963 110.146C116.248 117.592 116.248 117.592 116.909 120.391C117.212 121.593 117.562 122.768 117.924 123.944C119.143 127.912 120.265 131.923 121.333 135.957C121.797 137.703 122.296 139.426 122.821 141.144C124.392 146.305 124.392 146.305 124.392 148.323C111.596 148.323 98.8002 148.323 85.6167 148.323C85.6167 138.364 85.6167 138.364 85.8841 138.032C85.9639 137.575 86.0289 137.115 86.0878 136.654C86.1269 136.353 86.1661 136.053 86.2064 135.744C86.2489 135.41 86.2915 135.077 86.3354 134.733C86.7854 131.29 87.2636 127.855 87.756 124.421C88.2951 120.661 88.8203 116.899 89.3057 113.128C89.3448 112.829 89.3839 112.529 89.4242 112.221C89.4574 111.963 89.4906 111.704 89.5248 111.438C89.6279 110.81 89.6279 110.81 89.8953 110.146Z" fill="#CEE9E9"/>
<path d="M188.571 32.4653C188.367 32.657 188.163 32.8487 187.953 33.0462C186.961 34.0767 186.498 34.6671 186.262 36.2713C185.897 37.4448 185.897 37.4448 185.033 37.9998C184.682 38.1289 184.329 38.248 183.975 38.3577C183.625 38.4795 183.276 38.6022 182.927 38.726C182.754 38.7856 182.58 38.8452 182.401 38.9066C181.579 39.2226 180.803 39.6743 180.014 40.1006C179.498 40.3044 178.98 40.4982 178.459 40.6815C177.012 41.2201 175.616 41.8561 174.214 42.5489C172.37 43.4594 170.512 44.2731 168.625 45.0357C167.431 45.5207 166.258 46.0434 165.089 46.6155C163.996 47.1502 162.906 47.6147 161.779 48.0264C160.122 48.6384 158.533 49.4087 156.928 50.2013C155.453 50.9237 153.966 51.5287 152.444 52.084C151.476 52.4575 150.547 52.9149 149.613 53.4028C148.881 53.7674 148.137 54.0662 147.389 54.3753C146.853 54.6099 146.318 54.8464 145.783 55.0847C145.477 55.2205 145.172 55.3562 144.857 55.4961C144.535 55.6398 144.212 55.7834 143.879 55.9315C141.592 56.9479 139.303 57.9628 137.01 58.9607C136.796 59.0538 136.582 59.1469 136.362 59.2428C135.051 59.8107 133.734 60.3551 132.414 60.8903C130.961 61.4852 129.563 62.1759 128.157 62.9236C126.575 63.7201 124.945 64.3463 123.322 64.9984C122.608 65.287 121.895 65.578 121.183 65.8698C120.868 65.9974 120.554 66.1249 120.23 66.2563C119.598 66.5327 118.974 66.8386 118.358 67.1679C117.521 67.6107 116.708 67.9465 115.834 68.2559C114.511 68.7476 113.233 69.3244 111.957 69.978C110.448 70.7496 108.93 71.3807 107.365 71.9555C106.236 72.3947 105.137 72.9156 104.033 73.4415C101.951 74.4246 99.8422 75.3123 97.7335 76.2033C96.2087 76.8513 94.7057 77.5357 93.2132 78.2905C92.1189 78.8321 91.0077 79.3117 89.8952 79.7919C89.6745 79.8884 89.4539 79.9849 89.2266 80.0843C88.1302 80.5596 87.0344 81.004 85.9174 81.3985C84.9225 81.7615 83.984 82.2072 83.0312 82.7148C81.1392 83.718 79.198 84.5033 77.2431 85.2901C76.7115 85.5048 76.18 85.7199 75.6489 85.9363C75.1707 86.131 74.6921 86.3241 74.2135 86.517C73.2669 86.9297 72.3634 87.4082 71.4436 87.9044C70.9447 88.1013 70.4432 88.288 69.9394 88.4646C68.3427 89.0586 66.7968 89.7707 65.2429 90.5187C63.2304 91.4873 61.209 92.3824 59.1564 93.211C57.9086 93.7172 56.6973 94.2885 55.4854 94.916C54.3256 95.4605 53.1239 95.8293 51.9224 96.2037C51.6576 95.2177 51.3929 94.2318 51.1201 93.2159C51.7323 92.9028 52.3452 92.592 52.9586 92.2823C53.1275 92.1956 53.2964 92.1089 53.4704 92.0197C54.4501 91.5271 55.4283 91.1035 56.4433 90.7365C57.7872 90.2491 59.0778 89.6415 60.3793 89.004C63.7051 87.4019 67.0877 86.0239 70.4803 84.6586C71.8585 84.0983 73.2056 83.4675 74.5523 82.8003C76.3791 81.906 78.2136 81.1034 80.0813 80.3495C81.118 79.9173 82.1383 79.4464 83.1597 78.9619C84.8938 78.1409 86.6434 77.3973 88.406 76.6764C90.6602 75.7534 92.8939 74.7651 95.117 73.7321C97.3218 72.7099 99.5233 71.7428 101.777 70.8987C103.116 70.3888 104.385 69.7496 105.669 69.0599C106.53 68.6222 107.396 68.2589 108.28 67.9032C110.417 67.0408 112.514 66.0601 114.614 65.0681C116.169 64.3355 117.728 63.6425 119.311 63.0066C121.772 62.0065 124.218 60.988 126.638 59.8401C128.367 59.0262 130.114 58.2771 131.862 57.5291C132.166 57.3992 132.469 57.2694 132.782 57.1357C133.374 56.8824 133.966 56.6292 134.559 56.3761C137.206 55.2436 139.84 54.0743 142.464 52.8568C146.334 51.0616 150.229 49.3861 154.164 47.8193C155.652 47.219 157.091 46.5072 158.537 45.7648C160.408 44.8174 162.246 44.0385 164.199 43.3931C165.295 42.9951 166.315 42.4408 167.362 41.8759C168.423 41.34 169.499 40.8939 170.587 40.4533C172.304 39.7579 173.998 39.0161 175.684 38.2159C177.14 37.5287 178.608 36.8929 180.081 36.2622C183.434 34.988 183.434 34.988 186.461 32.9204C187.167 32.285 187.722 32.3934 188.571 32.4653Z" fill="#CDCDCD"/>
<path d="M62.0843 170.897C77.0862 170.897 92.0882 170.897 107.545 170.897C107.545 173.526 107.545 176.156 107.545 178.864C92.4545 178.864 77.3643 178.864 61.8169 178.864C61.9051 176.235 61.9934 173.606 62.0843 170.897Z" fill="#EF8C2A"/>
<path d="M133.495 181.969C134.976 183.372 135.727 185.09 135.992 187.375C136.088 190.091 135.574 192.647 134.185 194.778C131.969 196.94 130.399 197.685 127.6 197.455C125.778 197.071 124.309 195.952 123.176 194.136C121.94 191.749 121.427 189.682 121.717 186.832C122.408 183.999 123.952 181.939 125.998 180.471C128.779 178.968 131.093 179.996 133.495 181.969Z" fill="#C9C9C9"/>
<path d="M88.2229 181.052C89.8979 182.353 91.1216 183.791 91.7672 186.168C92.0553 188.858 92.0082 191.541 90.6976 193.803C88.9723 196.152 87.3254 197.47 84.7309 197.621C82.7504 197.556 81.271 196.881 79.7754 195.261C77.9805 192.88 77.7173 190.448 77.7886 187.253C77.9503 184.852 78.7858 183.425 80.188 181.786C82.6882 179.357 85.4947 179.149 88.2229 181.052Z" fill="#C9C9C9"/>
<path d="M46.4446 181.277C48.1196 182.578 49.3433 184.015 49.9889 186.392C50.277 189.083 50.2298 191.766 48.9192 194.028C47.1939 196.376 45.5471 197.695 42.9526 197.845C40.9721 197.78 39.4927 197.106 37.997 195.485C36.2022 193.104 35.939 190.672 36.0102 187.478C36.172 185.077 37.0075 183.649 38.4097 182.011C40.9098 179.581 43.7164 179.374 46.4446 181.277Z" fill="#C9C9C9"/>
<path d="M67.4446 181.277C69.1196 182.578 70.3433 184.015 70.9889 186.392C71.277 189.083 71.2298 191.766 69.9192 194.028C68.1939 196.376 66.5471 197.695 63.9526 197.845C61.9721 197.78 60.4927 197.106 58.997 195.485C57.2022 193.104 56.939 190.672 57.0102 187.478C57.172 185.077 58.0075 183.649 59.4097 182.011C61.9098 179.581 64.7164 179.374 67.4446 181.277Z" fill="#C9C9C9"/>
<path d="M109.404 180.472C111.197 181.483 112.576 183.085 113.473 185.268C113.989 187.354 114.036 190.43 113.378 192.496C112.178 194.91 110.845 196.469 108.617 197.328C106.495 197.829 104.609 197.451 102.731 196.127C101.247 194.767 100.242 193.043 99.7896 190.815C99.4872 188.027 99.6225 185.866 100.937 183.53C103.135 180.253 106.088 179.296 109.404 180.472Z" fill="#C9C9C9"/>
<path d="M138.297 88.5683C138.342 94.6067 138.211 100.627 138.03 106.661C138.004 107.552 137.978 108.443 137.952 109.335C137.89 111.486 137.827 113.638 137.762 115.79C136.868 115.306 136.278 114.695 135.589 113.842C135.268 113.447 135.268 113.447 134.941 113.043C134.712 112.758 134.484 112.473 134.248 112.18C134.012 111.888 133.777 111.595 133.533 111.294C132.908 110.519 132.284 109.741 131.661 108.964C131.15 108.328 130.637 107.695 130.125 107.061C129.515 106.307 128.907 105.55 128.298 104.793C127.952 104.366 127.952 104.366 127.6 103.93C127.389 103.666 127.178 103.403 126.961 103.131C126.774 102.899 126.587 102.666 126.395 102.427C125.996 101.847 125.996 101.847 125.996 101.183C126.417 100.714 126.855 100.268 127.3 99.8346C128.319 98.8228 129.312 97.7955 130.275 96.7016C131.406 95.4234 132.573 94.2162 133.763 93.0227C134.829 91.9403 135.876 90.8303 136.92 89.7148C138.001 88.5683 138.001 88.5683 138.297 88.5683Z" fill="#FEFDFA"/>
<path d="M125.461 105.499C126.925 107.013 128.28 108.622 129.622 110.299C129.833 110.562 130.044 110.824 130.261 111.095C130.929 111.926 131.597 112.758 132.264 113.591C132.719 114.157 133.174 114.724 133.629 115.291C134.74 116.673 135.851 118.057 136.96 119.442C136.853 119.597 136.746 119.752 136.635 119.912C136.493 120.118 136.35 120.324 136.204 120.536C136.063 120.739 135.923 120.943 135.778 121.152C135.149 122.065 134.526 122.984 133.902 123.902C132.966 125.278 132.024 126.644 131.065 127.994C130.624 128.621 130.187 129.251 129.753 129.884C129.61 130.091 129.468 130.298 129.322 130.511C129.038 130.924 128.755 131.337 128.473 131.75C127.766 132.78 127.049 133.772 126.264 134.712C126.02 132.117 125.92 129.531 125.853 126.921C125.842 126.498 125.83 126.075 125.818 125.639C125.794 124.746 125.771 123.853 125.748 122.96C125.718 121.835 125.688 120.709 125.657 119.584C125.528 114.888 125.418 110.198 125.461 105.499Z" fill="#FEFEFB"/>
<path d="M154.075 71.9698C154.13 74.1176 153.918 76.1014 153.623 78.215C153.065 82.3634 152.583 86.522 152.113 90.687C152.085 90.9305 152.057 91.1741 152.029 91.425C151.954 92.0901 151.879 92.7553 151.804 93.4205C151.691 94.3563 151.559 95.2782 151.401 96.2037C150.866 96.2037 150.866 96.2037 150.281 95.5397C149.704 94.798 149.165 94.0206 148.626 93.2367C147.88 92.1655 147.094 91.2485 146.217 90.3462C145.012 89.0918 144.004 87.6204 142.991 86.1356C142.599 85.5463 142.599 85.5463 142.041 85.2486C142.267 83.7021 143.019 83.0483 143.963 82.0949C144.307 81.7388 144.65 81.3826 144.994 81.0264C145.17 80.8454 145.347 80.6643 145.528 80.4778C146.335 79.6453 147.129 78.7949 147.924 77.9453C148.232 77.6184 148.54 77.2917 148.848 76.9649C149.516 76.2535 150.181 75.5369 150.845 74.8175C151.102 74.5402 151.102 74.5402 151.364 74.2573C151.694 73.9007 152.024 73.5428 152.352 73.1836C153.48 71.9698 153.48 71.9698 154.075 71.9698Z" fill="#FEFDF9"/>
<path d="M140.971 88.2364C142.264 89.5734 143.48 90.9731 144.664 92.456C144.909 92.7613 144.909 92.7613 145.16 93.0727C145.675 93.7144 146.19 94.3573 146.704 95.0003C147.056 95.4391 147.408 95.8778 147.761 96.3165C148.618 97.3846 149.475 98.4537 150.331 99.5234C149.193 102.469 147.145 104.854 145.38 107.236C144.504 108.447 143.68 109.703 142.856 110.967C142.155 112.042 141.444 113.097 140.704 114.13C140.616 114.13 140.527 114.13 140.437 114.13C140.43 111.714 140.425 109.298 140.422 106.882C140.421 106.061 140.419 105.24 140.416 104.418C140.413 103.236 140.412 102.053 140.41 100.871C140.409 100.505 140.408 100.139 140.406 99.7628C140.406 97.9857 140.465 96.3012 140.704 94.5438C140.739 94.0088 140.768 93.4732 140.789 92.9371C140.8 92.66 140.811 92.3829 140.823 92.0975C140.833 91.8161 140.844 91.5347 140.854 91.2448C140.866 90.9545 140.877 90.6641 140.889 90.365C140.917 89.6555 140.945 88.9459 140.971 88.2364Z" fill="#FEFDF9"/>
<path d="M169.585 55.3712C169.259 57.2561 168.897 59.1257 168.515 60.994C168.225 62.4129 167.943 63.8281 167.729 65.2681C167.127 69.2071 166.166 73.0877 165.306 76.9493C164.235 76.417 163.52 75.4817 162.728 74.4777C162.587 74.3018 162.446 74.1259 162.301 73.9447C161.853 73.3848 161.407 72.8226 160.96 72.2603C160.656 71.8793 160.352 71.4985 160.048 71.1178C159.303 70.1863 158.56 69.2528 157.818 68.3181C158.285 67.0683 158.84 66.3556 159.674 65.4341C159.869 65.2172 159.869 65.2172 160.068 64.9958C161.183 63.7686 162.338 62.6055 163.497 61.444C164.53 60.3803 165.515 59.2555 166.504 58.1295C168.929 55.3712 168.929 55.3712 169.585 55.3712Z" fill="#FEFDF7"/>
<path d="M156.749 71.3058C158.402 73.0004 159.904 74.8523 161.412 76.7419C161.659 77.0496 161.905 77.3572 162.159 77.6742C162.763 78.4278 163.366 79.1821 163.969 79.9371C163.511 81.1435 162.953 81.9709 162.214 82.9456C161.311 84.1529 160.441 85.3765 159.607 86.6595C158.6 88.2073 157.564 89.7206 156.515 91.2241C156.365 91.439 156.215 91.654 156.061 91.8754C155.418 92.7938 154.774 93.6906 154.075 94.5438C154.18 91.9601 154.432 89.4498 154.816 86.9099C155.118 84.8702 155.339 82.8245 155.545 80.767C155.866 77.592 156.27 74.4495 156.749 71.3058Z" fill="#FEFDF9"/>
<path d="M172.259 54.3753C173.13 54.8489 173.703 55.4267 174.369 56.266C174.653 56.6223 174.653 56.6223 174.943 56.9857C175.138 57.2335 175.333 57.4813 175.534 57.7365C175.734 57.9869 175.933 58.2372 176.138 58.4951C176.629 59.1122 177.118 59.7308 177.607 60.3508C176.733 61.8276 175.855 63.2608 174.849 64.6042C173.572 66.3408 172.379 68.1495 171.189 69.978C170.738 70.6634 170.287 71.3477 169.835 72.032C169.633 72.338 169.432 72.644 169.224 72.9592C169.078 73.1805 168.932 73.4017 168.782 73.6296C168.427 72.3068 168.69 71.6226 168.999 70.2892C169.404 68.5084 169.754 66.7421 170.014 64.918C170.119 64.3345 170.119 64.3345 170.387 64.0025C170.5 63.2782 170.612 62.5539 170.723 61.8291C171.157 59.322 171.722 56.8511 172.259 54.3753Z" fill="#FEFDF8"/>
<path d="M123.055 104.835C123.222 111.476 123.369 118.108 123.322 124.753C122.878 123.927 122.649 123.368 122.401 122.453C122.329 122.192 122.257 121.931 122.183 121.662C122.068 121.241 122.068 121.241 121.951 120.811C121.172 117.98 120.333 115.185 119.442 112.406C119.355 112.129 119.268 111.853 119.178 111.568C119.1 111.325 119.023 111.082 118.943 110.832C118.776 110.146 118.776 110.146 118.776 108.819C119.323 108.155 119.323 108.155 120.046 107.491C120.757 106.83 121.417 106.204 122.039 105.416C122.52 104.835 122.52 104.835 123.055 104.835Z" fill="#FEFCF3"/>
<path d="M186.699 40.7645C187.09 41.0259 187.479 41.2891 187.869 41.553C188.086 41.6993 188.303 41.8457 188.527 41.9964C189.106 42.4244 189.106 42.4244 189.641 43.0883C187.81 45.9001 185.927 48.6506 184.025 51.3876C183.661 50.031 184.065 49.1874 184.476 47.9226C184.626 47.4457 184.776 46.9685 184.925 46.491C185 46.2539 185.074 46.0169 185.151 45.7726C185.548 44.4689 185.887 43.1413 186.228 41.8136C186.432 41.0965 186.432 41.0965 186.699 40.7645Z" fill="#FDFAF0"/>
<path d="M77.5939 138.696C77.5939 138.915 77.5939 139.134 77.5939 139.36C77.4461 139.361 77.2982 139.362 77.1459 139.363C73.5481 139.39 69.9504 139.421 66.3526 139.455C64.6128 139.472 62.8729 139.487 61.1331 139.5C59.4547 139.512 57.7763 139.528 56.0979 139.545C55.4569 139.551 54.8159 139.556 54.1749 139.56C53.2785 139.566 52.3822 139.575 51.4858 139.586C51.2196 139.587 50.9534 139.587 50.6791 139.588C50.3124 139.594 50.3124 139.594 49.9383 139.599C49.7263 139.601 49.5143 139.603 49.2959 139.605C48.6468 139.702 48.2073 139.955 47.6436 140.356C48.2198 139.413 48.6026 138.802 49.551 138.537C50.2704 138.476 50.9804 138.465 51.7014 138.472C51.9746 138.468 52.2478 138.464 52.5293 138.46C53.4312 138.448 54.3327 138.449 55.2346 138.45C55.8609 138.444 56.4872 138.438 57.1136 138.432C58.4252 138.42 59.7368 138.413 61.0485 138.411C62.7329 138.407 64.4172 138.396 66.1015 138.381C67.7049 138.366 69.3083 138.356 70.9117 138.346C71.2192 138.344 71.5266 138.342 71.8434 138.34C72.7096 138.335 73.5758 138.332 74.4421 138.33C74.7006 138.329 74.9592 138.327 75.2255 138.325C75.4606 138.325 75.6956 138.325 75.9378 138.325C76.1427 138.325 76.3475 138.324 76.5585 138.324C77.0591 138.364 77.0591 138.364 77.5939 138.696Z" fill="#FAD665"/>
<path d="M36.6798 181.188C36.8563 181.298 37.0328 181.407 37.2147 181.52C36.3322 182.616 35.4497 183.711 34.5405 184.84C34.5405 183.844 34.5405 183.844 35.1589 183.014C35.3961 182.74 35.6332 182.466 35.8776 182.184C36.0375 181.986 36.1975 181.787 36.3623 181.582C36.4671 181.452 36.5719 181.322 36.6798 181.188Z" fill="#B6B6B6"/>
<path d="M187.835 32.3823C188.199 32.4233 188.199 32.4233 188.571 32.4653C187.714 33.406 187.025 33.634 185.896 33.7931C186.541 32.8081 186.791 32.4819 187.835 32.3823Z" fill="#EBCD61"/>
<path d="M189.641 42.7563C189.994 42.8659 190.347 42.9754 190.71 43.0883C189.651 44.2386 189.651 44.2386 188.571 45.4121C188.394 45.3026 188.218 45.193 188.036 45.0801C188.566 44.3133 189.095 43.5464 189.641 42.7563Z" fill="#F4D256"/>
</svg>
