<svg width="231" height="231" viewBox="0 0 231 231" fill="none" xmlns="http://www.w3.org/2000/svg">
<circle cx="115.5" cy="115.5" r="115.5" fill="#EDEDED"/>
<path d="M51.8884 33.4841C53.3615 34.5475 54.5417 35.6567 55.3248 37.3366C56.0469 38.8416 57.1915 39.5978 58.5041 40.5481C59.3344 41.1517 60.1147 41.7867 60.8958 42.4555C62.1125 43.4896 63.3541 44.4829 64.6098 45.4663C65.8499 46.4423 67.0629 47.4499 68.2719 48.4661C69.7802 49.7337 71.3038 50.9748 72.8522 52.1901C74.5654 53.5349 76.2431 54.9226 77.9127 56.3239C79.9582 58.0395 82.016 59.7301 84.1151 61.3759C85.0872 62.143 86.0416 62.9312 86.9961 63.7213C87.7932 64.3723 88.6011 65.0073 89.4106 65.6419C90.7861 66.7214 92.1332 67.8322 93.4718 68.9594C94.9937 70.2404 96.5368 71.4853 98.1057 72.7049C99.9199 74.1161 101.682 75.5809 103.43 77.077C105.011 78.4242 106.632 79.7103 108.269 80.9844C109.616 82.0338 110.929 83.1163 112.231 84.2246C113.391 85.196 114.581 86.1264 115.771 87.0594C116.514 87.6458 117.247 88.2436 117.978 88.8463C118.404 89.1891 118.83 89.532 119.256 89.8743C120.909 91.2025 122.547 92.5493 124.173 93.9116C124.362 94.0684 124.551 94.2251 124.745 94.3866C125.529 95.0387 126.306 95.6931 127.066 96.3741C127.274 96.5562 127.482 96.7383 127.696 96.9259C127.863 97.0778 128.029 97.2297 128.2 97.3863C129.709 98.1478 131.599 97.639 133.181 97.3183C134.86 96.9955 136.54 96.7104 138.231 96.4621C140.026 96.1957 141.814 95.8932 143.599 95.5659C143.804 95.5285 144.008 95.4911 144.218 95.4526C145.239 95.265 146.259 95.0756 147.279 94.8839C149.396 94.4895 151.509 94.1559 153.646 93.8954C155.101 93.7158 156.529 93.4642 157.964 93.1625C163.453 92.0542 168.976 91.2031 174.516 90.4089C176.126 90.1769 177.736 89.9395 179.346 89.7024C179.472 89.3012 179.472 89.3012 179.601 88.892C179.882 88.0477 180.225 87.3398 180.648 86.5633C181.117 85.6232 181.293 85.2315 181.255 84.1555C181.175 83.9142 181.095 83.6728 181.012 83.4242C180.417 81.5886 180.51 79.4365 181.257 77.6554C182.028 76.3904 183.277 75.4066 184.622 74.863C186.487 74.6724 188.318 74.5706 189.898 75.7192C190.184 75.9252 190.471 76.1312 190.766 76.3434C191.907 77.3803 192.532 78.5788 192.791 80.1201C192.907 82.2004 192.235 83.7502 190.901 85.2981C189.779 86.3566 188.342 86.9759 186.847 87.2265C186.134 87.4726 186.026 87.7071 185.691 88.3881C185.541 88.6885 185.541 88.6885 185.387 88.9949C185.283 89.2107 185.18 89.4265 185.073 89.6489C184.963 89.8706 184.853 90.0922 184.74 90.3206C184.419 90.9688 184.103 91.6192 183.789 92.2707C183.645 92.5654 183.502 92.8601 183.354 93.1636C183.096 93.6956 182.838 94.2281 182.582 94.7611C181.889 96.1721 181.167 97.5675 180.444 98.9624C179.297 101.184 178.22 103.431 177.124 105.683C183.906 105.683 190.687 105.683 197.673 105.683C199.595 120.066 199.595 120.066 196.565 124.228C194.077 127.376 191.099 130.099 188.064 132.674C187.146 133.453 186.237 134.243 185.335 135.04C185.076 135.267 185.076 135.267 184.811 135.498C182.597 137.484 181.474 139.021 181.192 142.066C181.217 143.641 181.409 145.21 181.567 146.777C176.894 146.777 172.221 146.777 167.405 146.777C167.405 149.414 167.405 152.051 167.405 154.767C164.931 154.767 162.457 154.767 159.908 154.767C159.095 161.453 159.095 161.453 161.396 167.484C163.101 169.486 165.063 171.234 167.094 172.878C168.33 173.888 169.375 175.051 170.419 176.264C171.83 177.891 173.317 179.32 174.951 180.707C181.792 186.664 181.792 186.664 182.145 190.94C182.322 193.654 181.868 196.296 181.567 199C178.177 199 174.786 199 171.293 199C171.379 198.005 171.465 197.011 171.553 195.986C171.599 193.386 170.929 191.702 169.209 189.835C167.986 188.573 166.692 187.39 165.368 186.243C164.221 185.226 163.186 184.117 162.173 182.959C161.906 182.659 161.634 182.363 161.357 182.072C160.503 181.165 159.787 180.283 159.144 179.206C157.981 177.463 156.641 175.982 154.581 175.44C150.858 174.755 146.993 174.963 143.231 175.05C142.049 175.069 140.867 175.056 139.685 175.043C138.537 175.034 137.389 175.044 136.241 175.059C135.697 175.064 135.153 175.064 134.609 175.059C131.039 175.037 131.039 175.037 128.057 176.848C127.331 177.631 126.676 178.457 126.03 179.309C125.676 179.725 125.319 180.14 124.959 180.551C124.814 180.727 124.668 180.903 124.518 181.084C123.743 181.997 122.901 182.84 122.063 183.69C121.878 183.879 121.692 184.068 121.502 184.263C120.918 184.86 120.333 185.456 119.748 186.051C118.974 186.839 118.201 187.627 117.429 188.417C117.254 188.594 117.079 188.772 116.898 188.955C116.121 189.748 115.382 190.542 114.697 191.421C114.497 191.662 114.296 191.903 114.09 192.151C113.907 192.151 113.723 192.151 113.535 192.151C113.535 194.317 113.535 196.483 113.535 198.715C110.236 198.715 106.937 198.715 103.538 198.715C102.909 188.448 102.909 188.448 104.335 186.341C105.092 185.505 105.939 184.874 106.882 184.276C107.463 183.848 107.861 183.402 108.318 182.838C109.38 181.563 110.516 180.382 111.678 179.202C111.892 178.983 112.107 178.763 112.328 178.537C113.236 177.609 114.145 176.682 115.055 175.755C115.723 175.073 116.39 174.391 117.058 173.709C117.26 173.503 117.463 173.297 117.671 173.085C118.606 172.129 119.507 171.164 120.363 170.131C120.961 169.414 121.563 168.79 122.276 168.195C123.931 166.792 125.079 165.621 125.304 163.354C125.353 162.17 125.328 160.998 125.284 159.815C125.279 159.323 125.276 158.831 125.275 158.339C125.271 157.146 125.234 155.962 125.197 154.767C123.365 154.767 121.532 154.767 119.644 154.767C119.644 152.13 119.644 149.494 119.644 146.777C114.879 146.777 110.113 146.777 105.204 146.777C105.187 142.817 105.187 142.817 105.196 141.587C105.146 138.993 104.605 137.602 102.983 135.647C102.721 135.269 102.464 134.886 102.212 134.5C102.093 134.323 101.975 134.145 101.852 133.963C101.6 133.583 101.349 133.202 101.101 132.82C100.503 131.907 99.9104 131.036 99.186 130.224C97.1556 127.782 97.282 125.745 97.2937 122.632C97.2714 120.742 97.2295 119.561 96.023 118.097C95.5742 117.66 95.1173 117.231 94.652 116.813C94.2607 116.333 93.8786 115.846 93.5065 115.35C93.3243 115.116 93.1421 114.881 92.9544 114.639C92.3085 113.801 91.6697 112.957 91.0323 112.112C89.9741 110.713 88.9062 109.322 87.8404 107.929C87.4253 107.387 87.0105 106.844 86.5958 106.301C86.4597 106.123 86.3236 105.944 86.1834 105.761C85.9243 105.422 85.6652 105.083 85.4062 104.743C84.8801 104.055 84.3524 103.368 83.8201 102.685C83.2978 102.013 82.7816 101.337 82.2667 100.66C80.992 98.9838 79.6996 97.3245 78.39 95.6774C77.068 94.0132 75.7787 92.3283 74.51 90.6209C72.8951 88.4483 71.2522 86.2974 69.5562 84.1911C68.4936 82.8662 67.4776 81.5091 66.4669 80.1424C65.0696 78.2538 63.6352 76.4053 62.1628 74.5777C61.5422 73.8001 60.9238 73.0208 60.3058 72.2412C60.1572 72.0546 60.0087 71.8681 59.8556 71.6759C58.9749 70.5648 58.1265 69.4347 57.2941 68.2849C56.6506 67.4063 55.9794 66.5512 55.3074 65.6955C54.2011 64.2802 53.1002 62.861 52.0099 61.4327C51.8847 61.2687 51.7595 61.1048 51.6305 60.9358C51.0051 60.1163 50.3807 59.2961 49.757 58.4753C49.2553 57.8153 48.751 57.1576 48.2449 56.5011C47.6773 55.7644 47.121 55.02 46.5679 54.2716C44.9458 52.1094 43.534 50.5485 41.2442 49.1372C40.0018 48.2511 39.2823 47.0995 38.5595 45.7551C38.46 45.5774 38.3605 45.3997 38.258 45.2167C37.3231 43.1849 37.3494 40.4747 37.9705 38.361C39.3142 35.4126 41.2665 33.5636 44.2 32.4139C46.9771 31.5476 49.3433 32.109 51.8884 33.4841Z" fill="#F9C829"/>
<path d="M119.644 146.777C135.314 146.777 150.984 146.777 167.128 146.777C167.128 149.414 167.128 152.051 167.128 154.767C164.746 154.767 162.363 154.767 159.908 154.767C159.096 161.453 159.096 161.453 161.396 167.484C163.101 169.486 165.064 171.234 167.094 172.878C168.33 173.889 169.375 175.051 170.42 176.264C171.831 177.891 173.317 179.32 174.951 180.707C181.793 186.664 181.793 186.664 182.145 190.94C182.322 193.654 181.869 196.296 181.568 199C178.177 199 174.787 199 171.294 199C171.379 198.005 171.465 197.011 171.554 195.986C171.599 193.386 170.93 191.702 169.209 189.835C167.987 188.573 166.693 187.39 165.369 186.243C164.221 185.226 163.186 184.117 162.174 182.959C161.907 182.659 161.634 182.363 161.358 182.072C160.503 181.165 159.787 180.283 159.144 179.206C157.981 177.463 156.641 175.982 154.581 175.44C150.859 174.756 146.994 174.963 143.231 175.05C142.049 175.069 140.868 175.056 139.685 175.043C138.537 175.034 137.39 175.044 136.242 175.059C135.698 175.064 135.154 175.064 134.609 175.059C131.04 175.037 131.04 175.037 128.057 176.848C127.331 177.631 126.677 178.457 126.031 179.309C125.676 179.725 125.32 180.14 124.96 180.552C124.814 180.727 124.668 180.903 124.518 181.084C123.744 181.997 122.901 182.84 122.063 183.69C121.785 183.974 121.785 183.974 121.502 184.263C120.918 184.86 120.333 185.456 119.748 186.051C118.974 186.839 118.202 187.627 117.429 188.417C117.167 188.683 117.167 188.683 116.899 188.955C116.122 189.749 115.383 190.542 114.697 191.421C114.497 191.662 114.297 191.903 114.09 192.151C113.907 192.151 113.724 192.151 113.535 192.151C113.535 194.317 113.535 196.483 113.535 198.715C110.236 198.715 106.937 198.715 103.538 198.715C102.91 188.448 102.91 188.448 104.336 186.341C105.092 185.505 105.94 184.874 106.882 184.276C107.463 183.848 107.862 183.402 108.319 182.838C109.381 181.563 110.517 180.382 111.678 179.202C112 178.873 112 178.873 112.328 178.538C113.236 177.609 114.146 176.682 115.056 175.755C115.724 175.074 116.391 174.391 117.058 173.709C117.261 173.503 117.463 173.297 117.672 173.085C118.607 172.129 119.508 171.164 120.364 170.131C120.962 169.415 121.564 168.79 122.277 168.195C123.932 166.792 125.079 165.621 125.305 163.354C125.353 162.17 125.328 160.998 125.285 159.815C125.28 159.323 125.277 158.831 125.275 158.339C125.271 157.146 125.234 155.962 125.198 154.767C123.365 154.767 121.532 154.767 119.644 154.767C119.644 152.13 119.644 149.494 119.644 146.777Z" fill="#676767"/>
<path d="M129.918 117.384C136.608 117.384 143.297 117.384 150.189 117.384C150.189 124.447 150.189 131.509 150.189 138.786C160.544 138.786 170.899 138.786 181.568 138.786C181.568 141.423 181.568 144.06 181.568 146.777C176.894 146.777 172.221 146.777 167.406 146.777C167.406 149.414 167.406 152.051 167.406 154.767C167.314 154.767 167.222 154.767 167.128 154.767C167.128 152.13 167.128 149.494 167.128 146.777C146.693 146.777 126.258 146.777 105.204 146.777C105.204 144.14 105.204 141.503 105.204 138.786C113.36 138.786 121.515 138.786 129.918 138.786C129.918 131.723 129.918 124.661 129.918 117.384Z" fill="#EF8C2B"/>
<path d="M177.68 92.8415C176.596 95.1102 175.466 97.351 174.311 99.5821C173.27 101.6 172.288 103.638 171.293 105.683C164.329 105.683 157.364 105.683 150.189 105.683C150.189 109.544 150.189 113.405 150.189 117.384C143.5 117.384 136.81 117.384 129.918 117.384C129.918 111.921 129.918 106.459 129.918 100.832C134.422 99.9419 138.923 99.0545 143.438 98.2279C143.709 98.1781 143.98 98.1284 144.259 98.0771C147.387 97.5041 150.505 96.9639 153.663 96.5947C156.405 96.2548 159.105 95.6756 161.814 95.132C165.063 94.4819 168.299 93.9503 171.591 93.585C172.785 93.4494 173.945 93.2233 175.117 92.9579C175.987 92.7942 176.798 92.8021 177.68 92.8415Z" fill="#FEFEFC"/>
<path d="M54.6655 36.3379C56.5577 36.7403 58.3775 37.2743 60.2192 37.8717C62.3667 38.5584 64.5077 39.164 66.7031 39.663C68.0285 39.9704 69.255 40.4008 70.5185 40.906C71.5187 41.2565 72.5352 41.4906 73.5655 41.7243C75.476 42.1605 77.305 42.7351 79.1542 43.3905C81.2356 44.1233 83.3461 44.7201 85.4693 45.3095C88.0994 46.043 90.7022 46.8504 93.2952 47.7104C94.0515 47.9509 94.8065 48.1426 95.5807 48.3123C96.9783 48.6203 98.3364 49.0356 99.7026 49.465C99.9422 49.5393 100.182 49.6136 100.429 49.6902C101.383 49.9873 102.333 50.2872 103.275 50.6243C103.943 50.8428 104.586 51.0092 105.27 51.1594C106.678 51.4697 108.046 51.8862 109.422 52.3187C109.661 52.393 109.901 52.4673 110.148 52.5439C111.102 52.841 112.052 53.1409 112.994 53.478C113.642 53.6898 114.253 53.8461 114.917 53.9863C117.107 54.4687 119.226 55.2432 121.356 55.9494C123.148 56.5331 124.893 57.0392 126.755 57.3234C127.49 57.4695 128.146 57.71 128.842 57.9905C130.074 58.4776 131.304 58.8088 132.591 59.0963C136.158 59.9033 139.634 61.1268 143.081 62.3591C144.052 62.6728 145.026 62.8177 146.03 62.9745C146.703 63.1277 147.266 63.3124 147.903 63.5686C149.138 64.0622 150.392 64.3705 151.682 64.6789C154.198 65.3019 156.627 66.0948 159.072 66.9614C161.238 67.7237 163.354 68.3464 165.612 68.7321C166.392 68.8899 167.108 69.1569 167.844 69.4633C168.791 69.8337 169.754 70.1455 170.721 70.4577C170.903 70.5176 171.085 70.5775 171.273 70.6392C172.439 71.0139 173.606 71.3057 174.8 71.5691C175.999 71.851 177.176 72.2099 178.357 72.5623C178.601 72.6342 178.844 72.7061 179.095 72.7802C181.068 73.3645 181.068 73.3645 182.027 73.6747C183.332 74.0951 184.533 74.4065 185.906 74.4886C186.333 74.5167 186.333 74.5167 186.768 74.5454C186.976 74.5561 187.184 74.5667 187.399 74.5777C187.399 74.6719 187.399 74.7661 187.399 74.8631C187.224 74.8671 187.05 74.8712 186.87 74.8754C185.012 74.9817 183.893 75.463 182.401 76.5753C181.62 76.9765 181.279 76.7316 180.456 76.4594C180.167 76.3657 179.879 76.2719 179.581 76.1754C179.269 76.0719 178.957 75.9685 178.635 75.8619C175.765 74.9303 172.886 74.0588 169.981 73.2501C168.794 72.916 167.629 72.5755 166.48 72.1175C165.566 71.7642 164.736 71.5451 163.778 71.3673C161.728 70.9369 159.755 70.3185 157.757 69.6801C155.395 68.9272 153.018 68.2336 150.634 67.5569C149.134 67.1307 147.64 66.6903 146.15 66.2268C144.978 65.8651 143.8 65.5224 142.622 65.1783C142.106 65.0271 141.59 64.8758 141.073 64.7246C140.826 64.6522 140.578 64.5797 140.323 64.5051C139.141 64.1592 137.959 63.812 136.778 63.4638C135.983 63.2312 135.188 63.0012 134.392 62.7727C131.988 62.0792 129.606 61.359 127.245 60.5232C125.732 59.9883 124.289 59.5888 122.703 59.3438C121.308 59.0504 119.971 58.5675 118.619 58.1141C117.239 57.655 115.868 57.2591 114.455 56.9203C112.538 56.46 110.693 55.8279 108.831 55.1724C106.684 54.4165 104.558 53.7559 102.34 53.2608C100.908 52.939 99.5511 52.4912 98.1699 51.9932C97.491 51.7685 96.8467 51.6207 96.1447 51.4983C94.8495 51.2582 93.6357 50.8363 92.396 50.3924C90.4222 49.6901 88.4387 49.1295 86.4084 48.6267C83.6239 47.9354 80.8941 47.1215 78.1592 46.2479C76.64 45.7631 75.1134 45.3087 73.5828 44.8634C71.6467 44.2999 69.7143 43.7256 67.7854 43.1365C66.5744 42.7686 65.3593 42.4205 64.1404 42.0816C57.0009 40.0881 57.0009 40.0881 55.4986 38.3355C55.1514 37.6756 54.9099 37.0494 54.6655 36.3379Z" fill="#CDCDCD"/>
<path d="M41.6772 109.376C42.9882 110.181 43.9763 111.109 44.6689 112.532C44.7005 112.925 44.7159 113.319 44.7224 113.713C44.7269 113.957 44.7313 114.201 44.7359 114.453C44.7483 115.573 44.7597 116.694 44.7661 117.814C44.7707 118.404 44.7782 118.993 44.7888 119.583C44.8041 120.435 44.8101 121.287 44.8142 122.139C44.8205 122.4 44.8268 122.661 44.8333 122.93C44.8275 124.746 44.4347 125.976 43.2804 127.371C42.6093 127.97 41.982 128.513 41.0589 128.513C41.0418 128.672 41.0246 128.831 41.0069 128.995C40.4402 130.652 38.8894 131.469 37.449 132.223C37.2658 132.223 37.0825 132.223 36.8937 132.223C36.8078 132.399 36.7218 132.576 36.6333 132.758C36.4424 133.15 36.2515 133.543 36.0606 133.935C35.9022 135.269 35.9389 136.253 36.5292 137.467C37.3926 138.474 37.938 138.983 39.2594 139.172C40.7783 139.253 41.915 139.172 43.1036 138.152C44.0256 137.123 44.7707 135.967 45.5019 134.791C45.8685 134.885 46.235 134.979 46.6126 135.077C46.521 135.265 46.4294 135.453 46.335 135.647C46.2544 136.241 46.1801 136.836 46.1093 137.431C45.768 139.741 44.9311 140.917 43.2468 142.411C41.3617 143.749 39.0795 143.598 36.8937 143.352C34.9053 142.603 33.5669 140.864 32.4507 139.072C31.8841 137.325 31.8164 134.593 32.4507 132.829C33.6903 130.839 34.9314 129.232 37.1714 128.513C37.0054 128.326 37.0054 128.326 36.8362 128.136C36.6891 127.966 36.5419 127.796 36.3904 127.621C36.2454 127.456 36.1004 127.29 35.9511 127.12C34.7372 125.475 34.5476 124.134 34.5615 122.137C34.5607 121.883 34.56 121.63 34.5591 121.369C34.5586 120.836 34.5601 120.303 34.5636 119.769C34.568 118.956 34.5636 118.142 34.5583 117.329C34.5588 116.809 34.5599 116.289 34.5615 115.769C34.559 115.407 34.559 115.407 34.5564 115.037C34.5761 113.322 34.8692 112.093 36.0433 110.796C36.2323 110.634 36.4213 110.471 36.616 110.303C36.805 110.136 36.994 109.969 37.1887 109.798C38.4693 108.835 40.2329 108.749 41.6772 109.376Z" fill="#EF8D2D"/>
<path d="M99.9282 104.542C104.785 104.542 109.642 104.542 114.646 104.542C114.646 110.286 114.646 116.031 114.646 121.949C109.789 121.949 104.932 121.949 99.9282 121.949C99.9282 116.205 99.9282 110.46 99.9282 104.542Z" fill="#CEE9E9"/>
<path d="M130.196 154.767C138.26 154.767 146.324 154.767 154.633 154.767C154.633 158.063 154.633 161.359 154.633 164.755C146.569 164.755 138.505 164.755 130.196 164.755C130.196 161.459 130.196 158.163 130.196 154.767Z" fill="#FDFDFD"/>
<path d="M97.4291 79.1437C97.9845 79.1437 97.9845 79.1437 98.465 79.6252C98.673 79.843 98.881 80.0608 99.0953 80.2852C99.675 80.7688 100.257 81.2433 100.848 81.712C101.194 81.9891 101.54 82.2663 101.886 82.5436C102.065 82.6872 102.245 82.8307 102.429 82.9786C103.359 83.7272 104.282 84.485 105.204 85.2435C105.374 85.3826 105.543 85.5216 105.718 85.6649C106.76 86.5227 107.791 87.3938 108.814 88.2756C108.43 89.1625 107.984 89.7741 107.321 90.4635C107.13 90.6634 106.939 90.8633 106.743 91.0692C106.536 91.2818 106.33 91.4944 106.118 91.7134C105.905 91.9335 105.693 92.1536 105.474 92.3803C105.025 92.8445 104.576 93.3079 104.126 93.7705C103.436 94.4808 102.75 95.1954 102.065 95.9104C101.629 96.3607 101.192 96.8107 100.755 97.2604C100.447 97.5827 100.447 97.5827 100.133 97.9115C99.9406 98.1078 99.7479 98.3041 99.5493 98.5063C99.3808 98.6803 99.2123 98.8543 99.0387 99.0336C98.5399 99.4051 98.5399 99.4051 97.4291 99.4051C97.4209 99.6004 97.4127 99.7958 97.4042 99.997C97.0304 101.232 96.2288 101.902 95.3292 102.776C95.1582 102.947 94.9873 103.117 94.8112 103.293C94.3905 103.712 93.9663 104.127 93.5416 104.542C93.2121 103.526 93.3204 102.98 93.4819 101.926C93.5369 101.563 93.5919 101.201 93.6485 100.827C93.7111 100.431 93.7738 100.034 93.8366 99.637C93.9 99.227 93.9634 98.817 94.0268 98.4071C94.5072 95.333 95.0548 92.2738 95.6278 89.2167C96.132 86.5261 96.5764 83.8378 96.9157 81.1199C97.1259 79.4553 97.1259 79.4553 97.4291 79.1437Z" fill="#FEFDF9"/>
<path d="M38.5601 45.7551C39.1284 46.4852 39.6966 47.2155 40.2609 47.9489C40.7666 48.6132 40.7666 48.6132 41.3369 49.1796C41.3872 49.9705 41.4024 50.7324 41.3932 51.5233C41.3922 51.8911 41.3922 51.8911 41.3912 52.2664C41.3882 53.0928 41.3813 53.9192 41.3745 54.7456C41.3716 55.3361 41.3689 55.9266 41.3665 56.5171C41.3592 58.1243 41.3485 59.7315 41.3371 61.3387C41.3259 63.0168 41.3178 64.6949 41.3093 66.373C41.2929 69.5526 41.2736 72.7321 41.2532 75.9117C41.2302 79.5307 41.2104 83.1497 41.1908 86.7687C41.1505 94.2151 41.1062 101.661 41.0592 109.108C40.2345 109.108 39.4098 109.108 38.5601 109.108C38.5601 88.2014 38.5601 67.295 38.5601 45.7551Z" fill="#CCCCCC"/>
<path d="M82.4333 66.8727C85.2334 69.0021 87.9554 71.2358 90.6717 73.4764C91.7128 74.3294 92.765 75.1678 93.8184 76.0046C92.7491 77.4291 91.5738 78.6395 90.2432 79.8036C89.2667 80.6711 88.4284 81.6055 87.5922 82.6139C86.7041 83.6779 85.7254 84.6038 84.6895 85.5111C83.6851 86.3986 82.8382 87.3635 82.0016 88.4172C81.803 88.6296 81.803 88.6296 81.6003 88.8463C81.417 88.8463 81.2337 88.8463 81.0449 88.8463C80.9872 85.9984 81.1397 83.2124 81.3851 80.3784C81.4855 79.2177 81.5807 78.0565 81.6751 76.8953C81.7028 76.5557 81.7028 76.5557 81.731 76.2093C81.8956 74.1481 82.0067 72.0865 82.0748 70.0195C82.1123 68.9418 82.186 67.9226 82.4333 66.8727Z" fill="#FEFDFA"/>
<path d="M94.6521 78.8583C95.0101 79.5941 94.9019 79.9761 94.7942 80.7879C94.7582 81.0603 94.7222 81.3327 94.6851 81.6134C94.6258 82.0418 94.6258 82.0418 94.5653 82.479C94.5289 82.7591 94.4926 83.0392 94.4552 83.3278C94.2515 84.8355 93.9586 86.2423 93.5413 87.7048C93.3517 88.6821 93.1958 89.6646 93.038 90.6477C92.6146 93.2159 92.1622 95.7769 91.6843 98.335C91.595 98.8163 91.595 98.8163 91.5039 99.3074C91.4478 99.6059 91.3917 99.9045 91.3339 100.212C91.2843 100.477 91.2346 100.741 91.1835 101.014C91.0422 101.688 91.0422 101.688 90.7645 102.544C89.6956 102.178 89.3068 101.515 88.6645 100.618C88.4165 100.279 88.1684 99.9401 87.9204 99.6013C87.7937 99.4269 87.6671 99.2526 87.5366 99.0729C87.0518 98.4081 86.5597 97.7495 86.0659 97.0917C85.8325 96.7805 85.5997 96.4688 85.3676 96.1566C84.8436 95.4523 84.3123 94.7581 83.7616 94.0756C83.5812 93.8508 83.4008 93.626 83.2149 93.3945C82.977 93.107 82.977 93.107 82.7344 92.8137C82.4339 92.2708 82.4339 92.2708 82.4835 91.7446C82.787 90.9259 83.234 90.4898 83.8392 89.8733C84.0783 89.6277 84.3173 89.3821 84.5636 89.1291C84.8233 88.8666 85.0831 88.604 85.3507 88.3336C85.6182 88.0603 85.8855 87.7868 86.1526 87.5131C86.8552 86.7943 87.5602 86.0782 88.2658 85.3626C88.9858 84.6314 89.7034 83.8979 90.4212 83.1645C91.8292 81.7267 93.2398 80.2917 94.6521 78.8583Z" fill="#FEFDF9"/>
<path d="M51.8888 33.4841C53.3634 34.5955 54.6755 35.7758 55.4987 37.4793C55.4071 37.6677 55.3155 37.856 55.2211 38.0501C54.9639 37.8078 54.9639 37.8078 54.7015 37.5607C52.8784 35.8954 52.8784 35.8954 50.5742 35.3619C49.8165 35.5062 49.5374 35.7397 48.9753 36.2754C48.7833 36.4572 48.5913 36.6389 48.3935 36.8262C48.1724 37.0417 47.9513 37.2573 47.7236 37.4793C47.4585 37.7333 47.1933 37.9873 46.9202 38.249C46.1743 38.9673 45.4395 39.6965 44.7086 40.4308C44.4027 40.736 44.0946 41.039 43.7844 41.3396C43.3305 41.7801 42.8842 42.2276 42.4389 42.6773C42.3001 42.8091 42.1612 42.9409 42.0182 43.0766C41.2532 43.8673 40.9712 44.441 40.9519 45.5309C41.0593 46.613 41.1598 47.0085 41.8401 47.8062C41.9915 47.9927 42.1429 48.1792 42.2989 48.3714C42.4396 48.5439 42.5803 48.7165 42.7252 48.8942C43.0113 49.3646 43.2937 49.8376 43.5583 50.3211C40.8638 49.3438 39.6611 47.6956 38.2519 45.2122C37.3312 43.1726 37.3487 40.4786 37.971 38.3611C39.3146 35.4126 41.2669 33.5637 44.2004 32.414C46.9728 31.5491 49.3501 32.103 51.8888 33.4841Z" fill="#6B6A69"/>
<path d="M67.7166 54.887C69.0707 55.9168 70.4035 56.9713 71.7257 58.044C73.9795 59.8719 76.262 61.6608 78.5463 63.4482C77.4069 64.8421 76.2265 66.1631 74.9754 67.4512C74.8004 67.6321 74.6253 67.8129 74.4449 67.9993C74.0785 68.3773 73.7116 68.755 73.3445 69.1323C72.7805 69.7124 72.2189 70.2948 71.6573 70.8773C71.2999 71.2455 70.9423 71.6136 70.5845 71.9815C70.4165 72.1562 70.2484 72.331 70.0753 72.5111C68.8909 73.7216 68.8909 73.7216 68.272 73.7216C68.1917 71.7273 68.1127 69.733 68.0347 67.7386C68.008 67.0619 67.9811 66.3853 67.9539 65.7087C67.8088 62.1004 67.664 58.499 67.7166 54.887Z" fill="#FEFEFB"/>
<path d="M79.9349 66.3019C79.8049 70.5371 79.5419 74.7578 79.2407 78.9831C79.2225 79.2416 79.2042 79.5001 79.1854 79.7664C79.1323 80.5157 79.0783 81.2649 79.0238 82.0141C79.0079 82.2375 78.992 82.4608 78.9756 82.6909C78.8725 84.0838 78.7247 85.4638 78.5465 86.8487C77.3695 85.6867 76.3329 84.4373 75.3011 83.1389C75.1319 82.9262 74.9627 82.7135 74.7884 82.4943C74.281 81.8542 73.7755 81.2126 73.2705 80.5705C73.0475 80.2888 73.0475 80.2888 72.8199 80.0013C72.4231 79.498 72.0303 78.9917 71.6391 78.4837C71.4165 78.1964 71.1938 77.9091 70.9644 77.6131C70.4937 76.8607 70.4937 76.8607 70.4937 75.7192C70.87 75.1585 70.87 75.1585 71.3788 74.5955C71.5581 74.3958 71.7374 74.196 71.9222 73.9902C72.0922 73.8074 72.2623 73.6246 72.4374 73.4362C72.6551 73.2008 72.8727 72.9654 73.097 72.7228C73.737 72.0963 74.3919 71.5002 75.0581 70.9035C75.9968 70.0541 76.8227 69.1779 77.618 68.188C79.1504 66.3019 79.1504 66.3019 79.9349 66.3019Z" fill="#FEFDF9"/>
<path d="M40.7813 128.798C40.5454 130.026 40.0396 130.543 39.1151 131.367C37.6501 132.223 37.6501 132.223 36.8937 132.223C36.8078 132.399 36.7218 132.576 36.6333 132.758C36.4424 133.15 36.2515 133.543 36.0606 133.935C35.9022 135.269 35.9389 136.253 36.5292 137.467C37.3926 138.474 37.938 138.983 39.2594 139.172C40.7783 139.253 41.915 139.173 43.1036 138.152C44.0256 137.123 44.7707 135.967 45.5019 134.791C45.8685 134.885 46.235 134.98 46.6126 135.077C46.521 135.265 46.4294 135.453 46.335 135.647C46.2544 136.241 46.1801 136.836 46.1093 137.431C45.768 139.741 44.9311 140.918 43.2468 142.412C41.3617 143.749 39.0795 143.599 36.8937 143.352C34.9053 142.603 33.5669 140.864 32.4507 139.072C31.8841 137.325 31.8164 134.593 32.4507 132.829C34.7075 129.206 36.6403 128.267 40.7813 128.798Z" fill="#6B6B6B"/>
<path d="M189.187 75.2019C189.539 75.4579 189.539 75.4579 189.898 75.7192C190.184 75.9252 190.471 76.1312 190.766 76.3434C191.907 77.3803 192.532 78.5788 192.791 80.1201C192.907 82.2004 192.235 83.7502 190.901 85.2981C189.922 86.2218 188.703 86.8681 187.399 87.134C187.027 87.0481 186.656 86.954 186.288 86.8487C186.469 86.5249 186.649 86.2012 186.835 85.8677C187.069 85.4338 187.304 84.9998 187.538 84.5657C187.657 84.3534 187.776 84.1412 187.899 83.9225C188.691 82.4372 188.976 81.4098 188.787 79.7144C188.034 78.7759 187.58 78.599 186.41 78.4302C185.264 78.6014 185.079 78.825 184.344 79.7144C183.984 80.3213 183.644 80.9408 183.32 81.5693C183.153 81.8901 182.986 82.2108 182.814 82.5413C182.488 83.2376 182.258 83.8127 182.123 84.5657C181.94 84.5657 181.756 84.5657 181.568 84.5657C180.585 82.6728 180.464 80.887 180.855 78.7802C181.383 77.0217 182.54 76.0602 184.018 75.1072C185.588 74.4729 187.622 74.6466 189.187 75.2019Z" fill="#6B6A68"/>
<path d="M65.2174 53.4602C65.4799 58.9819 65.5289 64.485 65.4951 70.0118C63.5148 67.9945 61.8209 65.7459 60.1149 63.4839C59.9992 63.3312 59.8835 63.1785 59.7643 63.0213C59.1111 62.1482 58.5411 61.257 57.9976 60.3091C58.9347 59.3319 59.8737 58.3566 60.8144 57.3829C61.1344 57.0512 61.4538 56.7191 61.7727 56.3864C62.2305 55.909 62.69 55.4335 63.1499 54.9584C63.3643 54.7337 63.3643 54.7337 63.583 54.5044C64.5988 53.4602 64.5988 53.4602 65.2174 53.4602Z" fill="#FEFCF4"/>
<path d="M55.2209 45.1844C56.117 45.3551 56.6315 45.6464 57.3242 46.249C57.5085 46.4069 57.6929 46.5648 57.8828 46.7275C58.0754 46.8952 58.268 47.0628 58.4664 47.2355C60.0117 48.5561 61.553 49.816 63.2738 50.8918C62.834 51.9865 62.1558 52.6852 61.3473 53.5181C61.2139 53.6559 61.0804 53.7936 60.9428 53.9355C60.6615 54.225 60.3796 54.5137 60.097 54.8018C59.6634 55.2442 59.2329 55.6897 58.8026 56.1355C58.5287 56.4166 58.2547 56.6976 57.9804 56.9783C57.7309 57.234 57.4814 57.4898 57.2244 57.7533C56.6093 58.3115 56.6093 58.3115 56.054 58.3115C55.3833 55.986 54.9132 53.6611 54.5441 51.2664C54.4855 50.9322 54.427 50.598 54.3667 50.2536C54.0445 48.1492 54.0647 46.9788 55.2209 45.1844Z" fill="#FEFCF8"/>
<path d="M112.424 91.4147C113.79 92.1919 114.983 93.1735 116.207 94.1614C116.428 94.3388 116.649 94.5161 116.876 94.6989C120.79 97.8535 120.79 97.8535 121.865 98.8344C121.865 98.9285 121.865 99.0227 121.865 99.1197C118.2 99.1197 114.534 99.1197 110.758 99.1197C110.939 97.257 111.134 95.6034 111.591 93.8225C111.64 93.62 111.69 93.4175 111.741 93.2088C112.107 91.7403 112.107 91.7403 112.424 91.4147Z" fill="#FEFDF8"/>
<path d="M109.37 91.7C109.697 92.7071 109.576 93.0662 109.31 94.0755C109.234 94.3689 109.158 94.6623 109.08 94.9645C108.998 95.2704 108.916 95.5763 108.832 95.8914C108.711 96.3552 108.711 96.3552 108.587 96.8284C108.388 97.5927 108.185 98.3563 107.982 99.1197C106.24 99.1197 104.499 99.1197 102.706 99.1197C103.261 97.9782 103.777 97.3818 104.652 96.4934C104.786 96.3557 104.921 96.2179 105.06 96.076C105.489 95.6386 105.919 95.2032 106.35 94.7678C106.642 94.4707 106.934 94.1734 107.226 93.876C107.939 93.1492 108.654 92.4241 109.37 91.7Z" fill="#FEFBF2"/>
<path d="M50.5005 42.3307C50.6877 43.2993 50.872 44.2685 51.0558 45.2379C51.1088 45.5118 51.1618 45.7856 51.2164 46.0678C51.2665 46.3336 51.3166 46.5994 51.3682 46.8732C51.4148 47.1168 51.4613 47.3604 51.5093 47.6114C51.6153 48.3521 51.6874 49.0042 51.6112 49.7503C50.7782 50.3211 50.7782 50.3211 50.2401 50.3211C49.3668 49.8859 49.0693 49.1602 48.5567 48.3235C48.11 47.8102 47.6553 47.3085 47.1889 46.8141C46.8906 46.3259 46.8906 46.3259 46.8971 45.7886C47.29 44.9132 47.8721 44.3591 48.5393 43.6862C48.7881 43.4316 49.0369 43.1771 49.2932 42.9148C49.9451 42.3307 49.9451 42.3307 50.5005 42.3307Z" fill="#6D6A63"/>
<path d="M97.4284 104.542C97.4284 106.802 97.4284 109.062 97.4284 111.391C97.2451 111.391 97.0619 111.391 96.873 111.391C96.6086 111.003 96.347 110.612 96.1007 110.211C95.4817 109.237 94.782 108.321 94.0962 107.396C94.5457 106.918 94.9974 106.443 95.4499 105.969C95.7012 105.704 95.9525 105.439 96.2114 105.166C96.873 104.542 96.873 104.542 97.4284 104.542Z" fill="#FEF9E9"/>
<path d="M53.277 43.1868C54.2589 43.7322 54.8847 44.2216 55.4985 45.1844C55.1319 45.8436 54.7654 46.5028 54.3877 47.182C54.2044 47.182 54.0212 47.182 53.8323 47.182C53.1947 44.4966 53.1947 44.4966 53.277 43.1868Z" fill="#747063"/>
<path d="M51.8884 49.7503C52.3303 50.9424 52.5029 51.8996 52.4438 53.1748C51.0175 51.7596 51.0175 51.7596 50.5 50.8918C50.5916 50.6093 50.6833 50.3268 50.7777 50.0357C51.3331 49.7503 51.3331 49.7503 51.8884 49.7503Z" fill="#FBF0CC"/>
<path d="M79.3799 66.3019C79.5632 66.3019 79.7465 66.3019 79.9353 66.3019C79.8436 68.4679 79.752 70.6339 79.6576 72.8655C79.566 72.8655 79.4743 72.8655 79.3799 72.8655C79.3254 71.8787 79.2742 70.8917 79.2237 69.9047C79.2081 69.6237 79.1926 69.3426 79.1765 69.0531C79.1564 68.6503 79.1564 68.6503 79.1359 68.2393C79.1228 67.9912 79.1097 67.7432 79.0962 67.4876C79.1022 66.8727 79.1022 66.8727 79.3799 66.3019Z" fill="#FDEDBC"/>
<path d="M187.399 78.2875C187.399 78.3817 187.399 78.4759 187.399 78.5729C186.961 78.6789 186.961 78.6789 186.514 78.7869C185.507 79.0772 184.845 79.5585 184.067 80.2851C184.707 78.3637 185.495 78.2137 187.399 78.2875Z" fill="#DEB532"/>
<path d="M45.5019 134.791C45.8684 134.885 46.2349 134.98 46.6126 135.077C45.9384 135.77 45.1881 136.255 44.3911 136.789C44.7254 136.077 45.0726 135.453 45.5019 134.791Z" fill="#828282"/>
</svg>
