<svg width="231" height="231" viewBox="0 0 231 231" fill="none" xmlns="http://www.w3.org/2000/svg">
<circle cx="115.5" cy="115.5" r="115.5" fill="#EDEDED"/>
<path d="M83.7791 32C84.4327 32.082 85.0863 32.164 85.7598 32.2485C86.3299 34.2357 86.8962 36.2237 87.4574 38.2128C87.5085 38.3935 87.5595 38.5741 87.612 38.7603C88.0004 40.1468 88.3282 41.5207 88.5505 42.9355C88.8519 44.6877 89.3317 46.3789 89.8448 48.0911C90.3947 49.9692 90.9291 51.8294 91.2772 53.7448C91.6212 55.6347 92.1489 57.4678 92.6919 59.3208C93.3207 61.4671 93.88 63.5898 94.2485 65.7822C94.5121 67.3129 94.9532 68.7756 95.4451 70.2611C95.6629 71.0164 95.6629 71.0164 95.6629 72.0104C95.8354 72.0099 96.0079 72.0095 96.1856 72.009C106.404 71.9812 116.623 71.9599 126.842 71.947C128.069 71.9454 129.295 71.9438 130.522 71.9422C130.766 71.9418 131.01 71.9415 131.262 71.9412C135.217 71.9358 139.173 71.926 143.129 71.9146C147.187 71.9029 151.244 71.896 155.302 71.8935C157.807 71.8918 160.311 71.8864 162.816 71.8763C164.532 71.8698 166.249 71.8678 167.966 71.8694C168.957 71.8702 169.948 71.8689 170.939 71.8623C172.012 71.8561 173.086 71.8576 174.16 71.861C174.631 71.8556 174.631 71.8556 175.111 71.85C177.224 71.8682 177.224 71.8682 178.317 72.6077C178.492 72.8206 178.668 73.0336 178.849 73.253C179.005 73.4292 179.161 73.6054 179.321 73.7869C180.267 75.0045 181.204 76.2275 182.134 77.4544C182.257 77.6162 182.379 77.7779 182.506 77.9446C183.248 78.9233 183.99 79.9024 184.731 80.8816C185.204 81.5061 185.677 82.1305 186.15 82.7548C186.388 83.0688 186.626 83.3828 186.864 83.6969C188.326 85.63 189.807 87.5502 191.315 89.4558C192.062 90.4025 192.787 91.3606 193.508 92.3228C194.259 93.3203 195.031 94.3027 195.817 95.2793C196.108 95.6445 196.108 95.6445 196.405 96.0171C196.791 96.5004 197.18 96.9818 197.573 97.461C197.75 97.6838 197.927 97.9066 198.109 98.1362C198.269 98.3337 198.429 98.5312 198.594 98.7347C199.022 99.4948 199.063 100 198.938 100.838C197.811 101.498 196.834 101.401 195.526 101.391C195.259 101.391 194.992 101.391 194.718 101.391C193.854 101.391 192.99 101.387 192.126 101.383C191.594 101.383 191.061 101.382 190.528 101.382C188.551 101.379 186.574 101.372 184.596 101.366C180.179 101.356 175.761 101.345 171.209 101.335C171.209 110.684 171.209 120.033 171.209 129.665C172.237 129.665 173.264 129.665 174.322 129.665C174.322 131.715 174.322 133.766 174.322 135.878C173.236 136.362 173.236 136.362 172.129 136.856C171.903 136.958 171.677 137.06 171.444 137.164C171.263 137.244 171.082 137.324 170.896 137.407C170.712 137.489 170.528 137.571 170.339 137.655C169.795 137.866 169.795 137.866 169.178 137.972C168.923 138.043 168.923 138.043 168.663 138.115C168.57 138.361 168.476 138.607 168.38 138.86C166.793 138.86 165.205 138.86 163.57 138.86C163.566 140.005 163.566 140.005 163.853 141.097C164.375 141.442 164.885 141.612 165.493 141.82C166.914 142.437 168.083 143.787 168.663 145.073C168.992 147.149 168.613 148.819 167.248 150.54C166.057 151.767 164.453 152.36 162.676 152.617C160.86 152.721 159.36 152.241 157.911 151.286C156.243 149.663 155.939 147.948 155.93 145.818C156.735 145.907 157.021 146.027 157.576 146.563C157.739 146.763 157.902 146.963 158.07 147.17C158.663 147.892 159.036 148.3 159.892 148.801C161.274 148.978 162.384 148.982 163.588 148.335C164.515 147.442 164.502 146.785 164.476 145.616C164.396 144.858 164.236 144.573 163.57 144.079C163.201 143.919 162.83 143.764 162.456 143.613C161.272 143.111 160.709 142.689 160.175 141.594C160.087 140.594 160.108 139.612 160.175 138.612C159.88 138.638 159.585 138.664 159.282 138.69C155.804 138.898 153.686 138.069 150.837 136.375C150.557 136.211 150.277 136.047 149.989 135.878C149.989 133.828 149.989 131.778 149.989 129.665C156.058 129.665 162.127 129.665 168.38 129.665C168.38 120.316 168.38 110.967 168.38 101.335C152.6 101.335 136.82 101.335 120.562 101.335C120.562 107.239 120.562 113.144 120.562 119.228C119.535 120.54 118.508 121.852 117.45 123.204C116.55 124.389 116.55 124.389 115.655 125.576C115.235 126.123 114.788 126.653 114.337 127.18C108.268 127.18 102.199 127.18 95.9458 127.18C96.0392 144.976 96.1326 162.772 96.2288 181.107C97.7227 181.763 99.2167 182.419 100.756 183.095C101.695 183.522 102.633 183.95 103.568 184.384C103.782 184.484 103.997 184.583 104.218 184.685C105.717 185.38 107.196 186.099 108.678 186.823C108.678 190.841 108.678 194.86 108.678 199C92.7117 199 76.7451 199 60.2946 199C60.2946 194.982 60.2946 190.963 60.2946 186.823C63.4679 185.295 66.6431 183.771 69.844 182.288C70.2252 182.11 70.2252 182.11 70.6141 181.928C70.8487 181.82 71.0833 181.712 71.3251 181.6C71.5314 181.505 71.7378 181.409 71.9504 181.311C72.4613 181.107 72.4613 181.107 73.0272 181.107C73.0272 154.782 73.0272 128.457 73.0272 101.335C69.9459 101.335 66.8646 101.335 63.69 101.335C63.69 105.435 63.69 109.536 63.69 113.76C54.7262 113.76 45.7625 113.76 36.5271 113.76C36.5271 109.66 36.5271 105.56 36.5271 101.335C35.2199 101.335 33.9127 101.335 32.5659 101.335C32.3791 101.171 32.1924 101.007 32 100.838C32.0712 99.5567 32.4141 98.7664 33.2556 97.7314C33.4595 97.4751 33.6633 97.2188 33.8734 96.9548C34.0375 96.7515 34.0375 96.7515 34.2049 96.5442C34.8068 95.7899 35.3821 95.0201 35.9612 94.2522C36.2028 93.9338 36.4445 93.6154 36.6863 93.297C36.9162 92.9941 37.1461 92.6913 37.376 92.3884C38.5078 90.8973 38.5078 90.8973 39.0549 90.177C39.4836 89.6118 39.9117 89.0462 40.3392 88.4802C41.528 86.9076 42.7272 85.3445 43.9666 83.8021C44.9055 82.619 45.8061 81.4133 46.7132 80.2113C47.2782 79.4664 47.8437 78.7219 48.4098 77.9776C48.7928 77.4721 49.1737 76.9653 49.5526 76.4574C49.7419 76.2047 49.9312 75.9519 50.1262 75.6915C50.2929 75.4676 50.4596 75.2437 50.6313 75.0129C50.8323 74.7602 51.0333 74.5074 51.2403 74.247C51.4033 73.9716 51.4033 73.9716 51.5696 73.6906C52.0532 72.985 52.4796 72.5204 53.221 72.0104C54.7699 71.6945 56.2934 71.7493 57.8708 71.792C58.3247 71.7962 58.7786 71.7994 59.2325 71.8016C60.4223 71.8101 61.6113 71.832 62.8007 71.8568C64.0164 71.8798 65.2322 71.89 66.4481 71.9012C68.8302 71.9251 71.2115 71.9633 73.5931 72.0104C73.5871 71.7918 73.5871 71.7918 73.5811 71.5688C73.5637 70.4686 73.5959 69.4864 73.9346 68.4186C74.0069 68.1844 74.0792 67.9502 74.1537 67.7088C74.2313 67.4677 74.3089 67.2265 74.3889 66.9781C74.5458 66.4704 74.7024 65.9627 74.8586 65.4549C74.9338 65.2134 75.009 64.9718 75.0864 64.7229C75.6225 62.9788 76.0774 61.2267 76.3938 59.4412C76.6914 57.8508 77.0939 56.2906 77.519 54.7233C78.2857 51.8521 79.0325 48.9766 79.6615 46.0793C80.0676 44.2253 80.6148 42.4126 81.1729 40.5902C81.8676 38.2944 82.3794 36.0099 82.7435 33.6561C82.9447 32.943 83.2347 32.5498 83.7791 32Z" fill="#F7CD38"/>
<path d="M82.4885 180.726C83.527 180.736 84.5647 180.727 85.6032 180.717C95.584 180.644 95.584 180.644 99.6562 183.222C100.4 183.681 101.201 184.032 102.011 184.395C102.526 184.637 103.04 184.88 103.553 185.124C104.078 185.372 104.603 185.62 105.128 185.868C105.351 185.974 105.573 186.079 105.802 186.187C106.382 186.457 106.971 186.712 107.561 186.966C107.561 190.937 107.561 194.908 107.561 199C91.4795 199 75.3982 199 58.8296 199C58.8296 195.029 58.8296 191.057 58.8296 186.966C59.7289 186.54 60.6282 186.115 61.5547 185.676C61.8223 185.549 62.09 185.422 62.3657 185.292C62.912 185.034 63.4629 184.784 64.0158 184.537C64.8429 184.158 65.603 183.726 66.375 183.269C71.4648 180.43 76.6437 180.638 82.4885 180.726Z" fill="#666666"/>
<path d="M94.9678 102.032C104.242 102.032 113.515 102.032 123.07 102.032C123.144 104.712 123.217 107.392 123.292 110.153C123.325 110.991 123.357 111.83 123.39 112.694C123.541 119.418 123.541 119.418 120.428 121.787C120.275 121.895 120.122 122.003 119.964 122.114C119.201 122.688 118.654 123.347 118.064 124.016C117.69 124.424 117.313 124.83 116.933 125.235C116.74 125.479 116.74 125.479 116.542 125.728C115.964 126.163 115.964 126.163 115.05 126.274C114.679 126.272 114.309 126.27 113.927 126.268C113.5 126.268 113.074 126.268 112.635 126.268C112.182 126.263 111.729 126.258 111.276 126.253C110.865 126.252 110.453 126.251 110.029 126.25C108.487 126.246 106.946 126.233 105.405 126.221C100.239 126.192 100.239 126.192 94.9678 126.163C94.9678 118.2 94.9678 110.237 94.9678 102.032Z" fill="#F08D2B"/>
<path d="M38.0229 98.8C46.1539 98.8 54.2849 98.8 62.6623 98.8C62.6623 103.778 62.6623 108.755 62.6623 113.884C54.5313 113.884 46.4003 113.884 38.0229 113.884C38.0229 108.906 38.0229 103.929 38.0229 98.8Z" fill="#C8C8C7"/>
<path d="M84.9723 37.9258C85.1561 38.0081 85.3398 38.0903 85.5292 38.1751C85.7172 38.9287 85.8741 39.6731 86.0164 40.4339C86.4738 42.7409 87.0591 45.0014 87.7268 47.2666C88.1537 48.7355 88.4753 50.195 88.7399 51.6941C88.912 52.6042 89.1621 53.4853 89.4269 54.3766C90.1929 57.1357 90.9019 59.8934 91.465 62.6915C91.8129 64.36 92.2467 66.0106 92.7276 67.6522C92.8041 67.9135 92.8805 68.1747 92.9593 68.4438C93.0292 68.6748 93.0992 68.9058 93.1713 69.1439C93.3247 69.8303 93.3247 69.8303 93.3247 71.3258C87.904 71.3258 82.4834 71.3258 76.8984 71.3258C77.3872 68.2625 78.1472 65.2667 78.9517 62.2592C79.6574 59.5996 80.2964 56.9333 80.8787 54.2496C81.2502 52.5517 81.6923 50.8868 82.1795 49.2123C82.6401 47.5632 82.9754 45.8884 83.3391 44.2205C83.8054 42.1018 84.3506 40.0123 84.9723 37.9258Z" fill="#FEFEFB"/>
<path d="M150.269 128.968C158.219 128.968 166.169 128.968 174.36 128.968C174.36 131.132 174.36 133.296 174.36 135.526C173.286 136.037 173.286 136.037 172.189 136.559C171.965 136.666 171.742 136.773 171.511 136.884C171.242 137.01 171.242 137.01 170.968 137.14C170.786 137.226 170.604 137.313 170.417 137.402C169.878 137.624 169.878 137.624 169.267 137.737C169.099 137.786 168.931 137.836 168.758 137.887C168.665 138.146 168.573 138.406 168.477 138.674C166.906 138.674 165.334 138.674 163.715 138.674C163.712 139.883 163.712 139.883 163.995 141.035C164.512 141.399 165.017 141.578 165.619 141.798C167.026 142.45 168.184 143.875 168.758 145.232C169.084 147.423 168.709 149.186 167.357 151.003C166.177 152.298 164.589 152.924 162.83 153.195C161.032 153.305 159.547 152.798 158.112 151.79C156.461 150.078 156.16 148.267 156.151 146.019C156.948 146.112 157.231 146.239 157.781 146.805C157.942 147.016 158.104 147.227 158.27 147.445C158.857 148.208 159.226 148.638 160.073 149.167C161.442 149.354 162.541 149.358 163.733 148.675C164.65 147.732 164.638 147.039 164.612 145.805C164.533 145.005 164.375 144.704 163.715 144.183C163.35 144.013 162.982 143.85 162.612 143.691C161.44 143.161 160.882 142.715 160.353 141.559C160.267 140.504 160.288 139.468 160.353 138.411C159.916 138.453 159.916 138.453 159.469 138.494C156.027 138.713 153.929 137.839 151.109 136.05C150.832 135.877 150.554 135.704 150.269 135.526C150.269 133.362 150.269 131.197 150.269 128.968Z" fill="#EF8D2D"/>
<path d="M52.4961 74.558C52.5985 74.558 52.7008 74.558 52.8063 74.558C52.8063 82.5579 52.8063 90.5577 52.8063 98.8C46.6629 98.8 40.5195 98.8 34.1899 98.8C34.7834 97.758 35.4663 96.8169 36.2067 95.8549C36.4908 95.4835 36.7748 95.1122 37.0588 94.7409C37.2027 94.5531 37.3466 94.3653 37.4949 94.1718C37.8725 93.678 38.248 93.1831 38.6222 92.6874C40.5082 90.1899 42.4284 87.7131 44.3497 85.2365C45.5663 83.6673 46.78 82.0967 47.9777 80.5164C48.0953 80.3613 48.2128 80.2063 48.334 80.0466C48.9781 79.1957 49.619 78.3429 50.2587 77.4893C50.4025 77.2982 50.5463 77.1071 50.6945 76.9101C50.9719 76.5414 51.2484 76.1721 51.524 75.8022C51.8399 75.3827 52.1669 74.9696 52.4961 74.558Z" fill="#FEFDF7"/>
<path d="M178.193 74.558C179.144 75.3784 179.7 75.9137 180.368 76.8616C181.445 78.3543 182.561 79.8221 183.691 81.2856C183.876 81.5266 184.062 81.7675 184.254 82.0157C184.641 82.5166 185.028 83.0174 185.415 83.5181C185.998 84.2719 186.58 85.0262 187.161 85.7805C190.15 89.6515 193.172 93.4998 196.311 97.2817C196.81 97.9828 196.81 97.9828 196.81 98.8C190.666 98.8 184.523 98.8 178.193 98.8C178.193 90.8001 178.193 82.8003 178.193 74.558Z" fill="#FEFDF7"/>
<path d="M105.37 104.726C109.887 104.726 114.405 104.726 119.059 104.726C119.059 107.748 119.059 110.77 119.059 113.884C114.541 113.884 110.024 113.884 105.37 113.884C105.37 110.862 105.37 107.84 105.37 104.726Z" fill="#CEE7E5"/>
<path d="M38.0229 98.8C40.1912 98.8 42.3595 98.8 44.5934 98.8C44.5934 103.778 44.5934 108.755 44.5934 113.884C42.4252 113.884 40.2569 113.884 38.0229 113.884C38.0229 108.906 38.0229 103.929 38.0229 98.8Z" fill="#C8C8C7"/>
<path d="M145.739 89.1032C146.889 89.958 147.777 90.8602 148.632 91.9117C148.892 92.2256 149.151 92.5394 149.411 92.8531C149.61 93.0943 149.61 93.0943 149.812 93.3404C150.482 94.1535 151.162 94.9615 151.842 95.7697C152.027 95.9908 152.027 95.9908 152.216 96.2163C152.705 96.7991 153.196 97.372 153.738 97.9251C154.101 98.327 154.101 98.327 154.101 98.8C148.68 98.8 143.26 98.8 137.675 98.8C139.067 96.5948 140.921 94.5761 142.673 92.543C143.02 92.1407 143.365 91.738 143.711 91.3352C145.4 89.3714 145.4 89.3714 145.739 89.1032Z" fill="#FEFCF6"/>
<path d="M166.835 89.1032C167.755 89.8148 168.391 90.546 169.036 91.4637C170.212 93.1112 171.468 94.707 172.727 96.3056C172.9 96.5263 173.072 96.747 173.25 96.9744C173.405 97.1722 173.561 97.3699 173.721 97.5736C174.092 98.0905 174.092 98.0905 174.361 98.8C169.482 98.8 164.604 98.8 159.577 98.8C159.996 97.8792 160.31 97.3181 160.949 96.5458C161.686 95.6397 162.402 94.7252 163.102 93.7964C163.287 93.5501 163.473 93.3037 163.664 93.0499C164.047 92.5401 164.43 92.0301 164.813 91.52C164.997 91.2761 165.18 91.0322 165.37 90.7809C165.535 90.5607 165.701 90.3404 165.871 90.1134C166.297 89.5762 166.297 89.5762 166.835 89.1032Z" fill="#FEFCF6"/>
<path d="M63.8971 89.1032C64.8268 89.8817 65.5697 90.6536 66.2658 91.6013C66.4501 91.8498 66.6345 92.0983 66.8244 92.3543C67.0115 92.6082 67.1986 92.8622 67.3914 93.1238C67.7544 93.6072 68.1184 94.0901 68.4833 94.5724C68.7458 94.92 68.7458 94.92 69.0136 95.2746C69.6859 96.1495 70.3828 97.0081 71.0873 97.8632C71.4233 98.327 71.4233 98.327 71.4233 98.8C66.5447 98.8 61.6661 98.8 56.6396 98.8C57.0817 97.8276 57.4215 97.2708 58.118 96.4645C59.0132 95.4053 59.8619 94.3283 60.6883 93.2273C61.7331 91.8368 62.7996 90.4622 63.8971 89.1032Z" fill="#FEFCF6"/>
<path d="M127.232 89.1032C127.439 89.1032 127.647 89.1032 127.86 89.1032C128.293 89.5512 128.293 89.5512 128.805 90.1887C129.697 91.2753 130.62 92.3385 131.582 93.3908C131.713 93.5344 131.843 93.678 131.978 93.8259C132.518 94.4195 133.059 95.0126 133.602 95.6049C134.004 96.0438 134.404 96.4836 134.804 96.9236C134.928 97.0579 135.051 97.1921 135.179 97.3305C136.033 98.2733 136.033 98.2733 136.033 98.8C130.432 98.8 124.83 98.8 119.059 98.8C119.377 97.8433 119.76 97.3561 120.493 96.5532C120.721 96.3017 120.949 96.0501 121.183 95.791C121.416 95.5352 121.648 95.2794 121.888 95.0159C122.301 94.5482 122.714 94.0801 123.126 93.6116C123.551 93.1334 123.977 92.6555 124.403 92.1778C124.527 92.038 124.651 91.8982 124.778 91.7541C125.162 91.3226 125.548 90.8927 125.935 90.4631C126.115 90.2597 126.115 90.2597 126.298 90.0521C126.593 89.7272 126.911 89.4139 127.232 89.1032Z" fill="#FEFCF6"/>
<path d="M103.14 89.1032C103.348 89.1032 103.555 89.1032 103.769 89.1032C104.303 89.6326 104.303 89.6326 104.928 90.3597C105.265 90.7488 105.265 90.7488 105.608 91.1459C106.39 92.0661 107.166 92.9888 107.941 93.9119C108.817 94.9307 109.753 95.9175 110.684 96.9079C111.942 98.2518 111.942 98.2518 111.942 98.8C106.34 98.8 100.739 98.8 94.9678 98.8C95.2817 97.8553 95.64 97.3885 96.3626 96.5975C96.5887 96.3478 96.8148 96.0981 97.0477 95.8409C97.2299 95.6409 97.2299 95.6409 97.4158 95.4368C97.9461 94.8509 98.4658 94.2598 98.986 93.6688C99.5117 93.0722 100.041 92.4772 100.571 91.8827C100.917 91.4945 101.262 91.1059 101.607 90.7172C101.802 90.5016 101.997 90.2861 102.197 90.064C102.366 89.8765 102.534 89.689 102.708 89.4958C102.851 89.3663 102.993 89.2367 103.14 89.1032Z" fill="#FEFCF6"/>
<path d="M159.577 74.558C164.456 74.558 169.334 74.558 174.361 74.558C173.868 75.3774 173.311 76.1186 172.698 76.8755C172.584 77.0162 172.471 77.1568 172.354 77.3018C170.619 79.4483 168.86 81.5816 167.103 83.7161C165.654 82.6543 164.692 81.3256 163.643 79.9887C163.274 79.5223 162.905 79.0561 162.536 78.59C162.358 78.3642 162.179 78.1383 161.995 77.9056C161.323 77.0702 160.622 76.2535 159.912 75.4403C159.577 75.0048 159.577 75.0048 159.577 74.558Z" fill="#FEFDF7"/>
<path d="M56.6396 74.558C61.5182 74.558 66.3968 74.558 71.4233 74.558C70.1728 76.6883 68.5127 78.6539 66.9542 80.6278C66.7498 80.8875 66.5466 81.148 66.3444 81.409C66.0479 81.7917 65.7474 82.1722 65.4468 82.5526C65.2716 82.7763 65.0963 83.0001 64.9158 83.2306C64.757 83.3909 64.5982 83.5511 64.4346 83.7161C64.1685 83.7161 63.9024 83.7161 63.6283 83.7161C63.1697 83.2082 62.7675 82.7111 62.3683 82.1707C62.1272 81.8535 61.886 81.5363 61.6449 81.2191C61.5256 81.0603 61.4064 80.9015 61.2835 80.7379C60.807 80.1047 60.3203 79.4774 59.8316 78.8509C59.5769 78.5242 59.5769 78.5242 59.3171 78.1909C58.5857 77.28 57.8141 76.3962 57.0344 75.515C56.6396 75.0159 56.6396 75.0159 56.6396 74.558Z" fill="#FEFDF7"/>
<path d="M117.416 74.558C123.559 74.558 129.703 74.558 136.032 74.558C135.466 75.4921 135.004 76.041 134.107 76.8196C133.183 77.6404 132.306 78.4656 131.484 79.3325C130.569 80.2959 129.623 81.2426 128.649 82.1805C128.519 82.3075 128.388 82.4346 128.254 82.5656C127.312 83.4664 127.312 83.4664 126.555 83.7161C125.361 82.556 124.169 81.3953 122.977 80.2342C122.571 79.8393 122.165 79.4445 121.759 79.0499C121.176 78.4825 120.593 77.9146 120.01 77.3466C119.829 77.1705 119.647 76.9943 119.46 76.8128C119.206 76.5647 119.206 76.5647 118.947 76.3116C118.798 76.1668 118.649 76.0219 118.496 75.8727C118.093 75.4512 117.754 75.0039 117.416 74.558Z" fill="#FEFDF7"/>
<path d="M137.675 74.558C143.095 74.558 148.516 74.558 154.101 74.558C153.608 75.3134 153.095 75.9702 152.484 76.6687C152.281 76.9013 152.078 77.1338 151.869 77.3734C151.551 77.7364 151.551 77.7364 151.226 78.1068C151.021 78.3417 150.816 78.5766 150.605 78.8187C150.19 79.2935 149.774 79.7678 149.357 80.2416C148.92 80.745 148.49 81.2495 148.067 81.7602C147.857 82.0113 147.647 82.2625 147.43 82.5213C147.241 82.7504 147.053 82.9796 146.858 83.2157C146.686 83.3809 146.513 83.546 146.336 83.7161C146.04 83.7161 145.745 83.7161 145.44 83.7161C144.942 83.2226 144.509 82.7399 144.077 82.2136C143.811 81.8982 143.545 81.5828 143.278 81.2674C143.074 81.0229 143.074 81.0229 142.866 80.7735C142.216 79.9986 141.551 79.2313 140.885 78.4645C140.761 78.3212 140.638 78.1778 140.51 78.0301C139.831 77.2493 139.131 76.4899 138.384 75.7457C137.675 75.0159 137.675 75.0159 137.675 74.558Z" fill="#FEFDF7"/>
<path d="M94.9678 74.558C100.569 74.558 106.17 74.558 111.942 74.558C110.714 75.9791 109.498 77.3826 108.191 78.7601C106.945 80.0789 105.748 81.4144 104.612 82.7858C104.343 83.1034 104.052 83.411 103.758 83.7161C103.558 83.7161 103.358 83.7161 103.152 83.7161C102.669 83.2345 102.225 82.7533 101.788 82.2503C101.515 81.9428 101.242 81.6354 100.969 81.328C100.829 81.169 100.689 81.01 100.545 80.8463C99.8742 80.0868 99.1924 79.3327 98.5103 78.5787C98.3304 78.3784 98.3304 78.3784 98.1468 78.1742C97.5317 77.4921 96.901 76.8235 96.2429 76.1635C95.574 75.4515 95.574 75.4515 95.574 75.0048C95.3739 75.0048 95.1739 75.0048 94.9678 75.0048C94.9678 74.8574 94.9678 74.7099 94.9678 74.558Z" fill="#FEFDF7"/>
<path d="M168.337 102.032C169.602 102.032 170.867 102.032 172.17 102.032C172.17 110.921 172.17 119.81 172.17 128.968C170.905 128.968 169.641 128.968 168.337 128.968C168.337 120.079 168.337 111.19 168.337 102.032Z" fill="#CFCECE"/>
<path d="M84.8074 168.832C85.0081 168.832 85.2089 168.832 85.4157 168.832C85.8127 169.254 86.1816 169.69 86.5374 170.131C86.7567 170.399 86.9761 170.667 87.1957 170.935C87.3056 171.07 87.4155 171.205 87.5287 171.345C88.8 172.897 90.1534 174.403 91.5982 175.872C92.2249 176.554 92.7686 177.276 93.3247 177.99C87.904 177.99 82.4834 177.99 76.8984 177.99C77.4299 177.015 78.0394 176.235 78.8376 175.38C79.1094 175.085 79.3811 174.789 79.6528 174.494C79.797 174.338 79.9412 174.182 80.0898 174.021C80.9084 173.132 81.7164 172.238 82.5259 171.345C82.8333 171.007 83.1406 170.668 83.448 170.33C83.5784 170.186 83.7088 170.042 83.8431 169.894C84.1645 169.54 84.4859 169.186 84.8074 168.832Z" fill="#FEFCF6"/>
<path d="M84.9566 117.116C86.182 117.418 86.5061 117.97 87.1455 118.747C87.3924 119.04 87.6398 119.332 87.8876 119.624C88.0803 119.852 88.0803 119.852 88.277 120.085C88.9329 120.851 89.6183 121.602 90.3029 122.353C93.3247 125.691 93.3247 125.691 93.3247 126.274C87.904 126.274 82.4834 126.274 76.8984 126.274C77.3425 125.454 77.6645 124.912 78.3125 124.214C78.4763 124.036 78.6401 123.858 78.8089 123.675C79.2198 123.237 79.6316 122.8 80.0437 122.362C80.2802 122.111 80.5167 121.86 80.7532 121.609C80.8717 121.484 80.9902 121.358 81.1123 121.229C82.0848 120.194 83.0017 119.136 83.8997 118.065C84.3367 117.574 84.3367 117.574 84.9566 117.116Z" fill="#FEFDF8"/>
<path d="M76.8984 128.968C82.3191 128.968 87.7397 128.968 93.3247 128.968C92.6278 130.255 92.6278 130.255 92.0426 130.887C91.9158 131.025 91.7891 131.164 91.6585 131.306C91.5244 131.451 91.3902 131.595 91.252 131.744C90.9713 132.05 90.6908 132.357 90.4106 132.663C90.2732 132.813 90.1358 132.963 89.9943 133.118C89.2867 133.898 88.6122 134.694 87.9336 135.488C87.1671 136.377 86.3737 137.252 85.5764 138.126C84.41 137.788 83.959 137.35 83.2968 136.576C83.105 136.355 82.9133 136.134 82.7157 135.906C82.5155 135.67 82.3154 135.435 82.1091 135.192C81.6947 134.713 81.2799 134.233 80.8646 133.754C80.6638 133.522 80.463 133.29 80.2562 133.05C79.327 131.99 78.3414 130.962 77.3452 129.936C76.8984 129.426 76.8984 129.426 76.8984 128.968Z" fill="#FEFDF8"/>
<path d="M160.538 138.126C161.413 138.126 162.289 138.126 163.191 138.126C163.186 138.457 163.18 138.788 163.175 139.13C163.223 139.742 163.223 139.742 163.457 140.304C164.01 140.727 164.577 140.997 165.201 141.298C166.548 142.065 167.664 143.461 168.233 144.931C168.542 147.205 168.187 149.035 166.906 150.92C165.789 152.263 164.285 152.913 162.618 153.194C160.915 153.308 159.508 152.783 158.15 151.737C156.585 149.96 156.3 148.081 156.292 145.748C157.046 145.845 157.315 145.977 157.835 146.563C157.988 146.783 158.141 147.002 158.299 147.228C158.855 148.019 159.205 148.466 160.007 149.014C161.303 149.208 162.345 149.213 163.473 148.504C164.343 147.526 164.331 146.806 164.307 145.526C164.231 144.696 164.082 144.383 163.457 143.842C163.105 143.674 162.751 143.51 162.395 143.349C161.536 142.929 161.344 142.769 160.803 141.903C160.391 140.668 160.486 139.414 160.538 138.126Z" fill="#6A6A6A"/>
<path d="M84.9566 144.052C86.1384 144.872 87.0589 145.734 87.9397 146.742C88.0697 146.888 88.1997 147.035 88.3336 147.186C88.612 147.501 88.8895 147.815 89.1662 148.131C89.626 148.654 90.0895 149.175 90.5535 149.697C90.864 150.047 91.1743 150.398 91.4845 150.748C91.6323 150.915 91.7802 151.081 91.9326 151.253C92.0695 151.409 92.2065 151.564 92.3477 151.725C92.4691 151.863 92.5906 152 92.7158 152.142C93.0147 152.523 93.0147 152.523 93.3247 153.21C87.904 153.21 82.4834 153.21 76.8984 153.21C78.6415 150.892 78.6415 150.892 79.3258 150.143C79.4761 149.978 79.6264 149.812 79.7812 149.642C79.9358 149.473 80.0903 149.305 80.2495 149.131C80.5764 148.773 80.9033 148.414 81.2302 148.055C81.3889 147.881 81.5476 147.707 81.7111 147.528C82.5494 146.609 83.3758 145.683 84.2048 144.759C84.6467 144.281 84.6467 144.281 84.9566 144.052Z" fill="#FEFDF9"/>
<path d="M76.8984 102.032C82.3191 102.032 87.7397 102.032 93.3247 102.032C91.6724 104.683 89.5105 107.157 87.4554 109.616C87.1972 109.93 87.1972 109.93 86.9338 110.251C86.7707 110.444 86.6077 110.637 86.4396 110.836C86.2954 111.008 86.1512 111.181 86.0027 111.359C85.862 111.481 85.7214 111.603 85.5764 111.729C85.2696 111.729 84.9628 111.729 84.6467 111.729C84.0854 111.152 83.5894 110.583 83.097 109.969C82.9492 109.789 82.8014 109.61 82.6491 109.424C82.1755 108.847 81.7064 108.268 81.2374 107.689C80.7676 107.113 80.2968 106.538 79.8258 105.964C79.5328 105.605 79.2406 105.247 78.9493 104.888C78.4081 104.222 77.8719 103.57 77.2665 102.94C76.8984 102.53 76.8984 102.53 76.8984 102.032Z" fill="#FEFDFA"/>
<path d="M84.7957 89.1032C85.0042 89.1032 85.2126 89.1032 85.4274 89.1032C85.9424 89.682 86.4198 90.2603 86.8884 90.8608C87.1739 91.2189 87.4597 91.5769 87.746 91.9346C87.9591 92.2017 87.9591 92.2017 88.1765 92.4741C89.6611 94.3136 91.2754 96.0884 92.9298 97.8398C93.3247 98.3151 93.3247 98.3151 93.3247 98.8C87.904 98.8 82.4834 98.8 76.8984 98.8C77.161 97.994 77.3094 97.6457 77.8781 96.9974C78.0152 96.8397 78.1523 96.6819 78.2935 96.5194C78.4419 96.3517 78.5903 96.184 78.7432 96.0112C78.8955 95.8367 79.0478 95.6623 79.2047 95.4825C79.6912 94.9259 80.1803 94.3705 80.6694 93.8152C80.9976 93.4405 81.3256 93.0657 81.6534 92.6907C82.2543 92.004 82.8562 91.3177 83.4592 90.632C83.9064 90.1233 84.3521 89.6138 84.7957 89.1032Z" fill="#FEFDFA"/>
<path d="M76.8984 156.442C82.3191 156.442 87.7397 156.442 93.3247 156.442C91.2479 159.089 91.2479 159.089 90.2447 159.997C89.1942 160.973 88.2443 161.975 87.315 163.008C86.6693 163.713 85.9772 164.387 85.2665 165.061C84.4054 164.495 83.7504 163.947 83.1358 163.243C81.8116 161.761 80.4089 160.316 79.0057 158.869C78.8229 158.679 78.6401 158.49 78.4517 158.295C78.287 158.125 78.1223 157.955 77.9525 157.78C77.5183 157.304 77.5183 157.304 76.8984 156.442Z" fill="#FEFEFC"/>
<path d="M76.8984 74.558C82.3191 74.558 87.7397 74.558 93.3247 74.558C91.2479 77.3706 91.2479 77.3706 90.2447 78.3357C89.1942 79.3724 88.2443 80.4373 87.315 81.5348C86.6693 82.2838 85.9772 83.0002 85.2665 83.7161C84.2381 83.0141 83.5273 82.2741 82.7871 81.398C81.4808 79.865 80.1266 78.3581 78.7538 76.8573C78.5263 76.6072 78.5263 76.6072 78.2943 76.3521C78.1595 76.2046 78.0247 76.0572 77.8858 75.9053C77.5176 75.4731 77.2076 75.0148 76.8984 74.558Z" fill="#FEFEFC"/>
<path d="M112.951 77.7903C113.16 77.7903 113.368 77.7903 113.583 77.7903C113.583 83.8347 113.583 89.879 113.583 96.1065C113.375 96.1065 113.166 96.1065 112.951 96.1065C112.686 95.7368 112.686 95.7368 112.415 95.3596C111.725 94.427 110.957 93.5498 110.16 92.6703C109.873 92.3477 109.587 92.0249 109.3 91.702C108.854 91.1994 108.406 90.6979 107.952 90.1989C107.511 89.7128 107.078 89.2231 106.646 88.7323C106.509 88.5837 106.371 88.4351 106.229 88.282C105.858 87.8546 105.858 87.8546 105.37 87.0705C105.544 86.4337 105.544 86.4337 106.002 85.8494C106.229 85.5492 106.229 85.5492 106.461 85.2429C106.724 84.9288 106.724 84.9288 106.993 84.6083C107.189 84.3739 107.386 84.1395 107.588 83.898C108.61 82.6967 109.639 81.4996 110.681 80.3088C110.892 80.0647 111.102 79.8205 111.32 79.569C111.521 79.3387 111.723 79.1084 111.931 78.8712C112.203 78.5592 112.203 78.5592 112.48 78.2409C112.635 78.0922 112.791 77.9435 112.951 77.7903Z" fill="#FEFCF5"/>
<path d="M154.102 102.032C154.824 102.032 155.547 102.032 156.292 102.032C156.292 110.921 156.292 119.81 156.292 128.968C155.569 128.968 154.846 128.968 154.102 128.968C154.102 120.079 154.102 111.19 154.102 102.032Z" fill="#CCCCCC"/>
<path d="M94.9678 74.558C95.7159 75.392 96.2276 76.0291 96.7921 76.9858C96.9394 77.2336 97.0866 77.4814 97.2383 77.7367C97.3914 77.9977 97.5445 78.2586 97.7023 78.5275C98.0188 79.0651 98.3355 79.6026 98.6522 80.1401C98.8049 80.3992 98.9575 80.6583 99.1148 80.9253C99.4835 81.541 99.8609 82.1454 100.25 82.745C100.438 83.0374 100.625 83.3298 100.818 83.6311C100.981 83.8767 101.144 84.1223 101.311 84.3753C101.582 85.0487 101.582 85.0487 101.461 85.6988C100.916 86.7765 100.314 87.8003 99.6896 88.8232C99.5556 89.0448 99.4215 89.2665 99.2834 89.4948C98.8636 90.1875 98.442 90.8787 98.0203 91.5699C97.7487 92.0177 97.4771 92.4656 97.2055 92.9134C96.9526 93.3281 96.6996 93.7427 96.4463 94.1572C96.327 94.3535 96.2077 94.5499 96.0847 94.7523C95.8038 95.2088 95.514 95.6585 95.2221 96.1064C95.1382 96.1064 95.0543 96.1064 94.9678 96.1064C94.9678 88.9955 94.9678 81.8845 94.9678 74.558Z" fill="#FEFDF8"/>
<path d="M117.416 77.7903C117.625 77.7903 117.833 77.7903 118.048 77.7903C118.515 78.2921 118.515 78.2921 119.055 78.9809C119.777 79.8842 120.51 80.7709 121.305 81.6367C121.483 81.8329 121.66 82.029 121.843 82.2311C122.188 82.6095 122.534 82.9874 122.885 83.3626C123.338 83.8478 123.783 84.3369 124.227 84.8268C124.375 84.9818 124.522 85.1367 124.674 85.2964C125.078 85.7474 125.078 85.7474 125.629 86.5821C125.395 87.4853 124.746 88.1338 124.05 88.8716C123.068 89.9319 122.12 91.006 121.187 92.0922C121.052 92.2489 120.917 92.4057 120.778 92.5672C120.187 93.2538 119.599 93.9416 119.015 94.6316C118.846 94.8312 118.676 95.0308 118.502 95.2365C118.358 95.4074 118.214 95.5783 118.066 95.7545C117.956 95.8706 117.846 95.9868 117.732 96.1065C117.628 96.1065 117.523 96.1065 117.416 96.1065C117.416 90.0622 117.416 84.0178 117.416 77.7903Z" fill="#FEFDF7"/>
<path d="M177.811 74.558C177.937 74.558 178.063 74.558 178.193 74.558C178.193 81.669 178.193 88.78 178.193 96.1064C177.098 95.0904 176.081 94.0909 175.089 93.023C174.944 92.8664 174.798 92.7099 174.648 92.5485C173.307 91.1013 171.995 89.6404 170.691 88.1749C170.057 87.4636 169.446 86.7829 168.675 86.1485C168.26 85.6158 168.26 85.6158 168.499 84.9136C169.007 84.221 169.544 83.5946 170.17 82.9577C171.358 81.7267 172.504 80.4797 173.633 79.2186C173.796 79.0366 173.959 78.8546 174.127 78.6671C174.842 77.8699 175.553 77.0714 176.259 76.2703C176.464 76.0386 176.669 75.8069 176.88 75.5681C177.054 75.3697 177.228 75.1712 177.407 74.9667C177.54 74.8319 177.674 74.697 177.811 74.558Z" fill="#FEFDFB"/>
<path d="M94.6375 156.442C94.7464 156.442 94.8553 156.442 94.9675 156.442C94.9675 162.309 94.9675 168.175 94.9675 174.219C94.0633 173.578 93.4673 173.149 92.8176 172.421C92.6715 172.259 92.5253 172.097 92.3748 171.93C92.1474 171.674 92.1474 171.674 91.9154 171.412C91.5947 171.056 91.2737 170.7 90.9526 170.343C90.795 170.168 90.6375 169.993 90.4752 169.812C89.4662 168.697 88.4203 167.6 87.3784 166.5C86.7185 165.798 86.7185 165.798 86.7796 165.243C87.0809 164.555 87.4896 164.055 88.0512 163.455C88.2593 163.23 88.4674 163.006 88.6818 162.774C89.0166 162.419 89.0166 162.419 89.3582 162.056C89.5822 161.814 89.8063 161.571 90.0371 161.322C90.7281 160.575 91.4242 159.832 92.1216 159.088C92.3602 158.832 92.5988 158.576 92.8447 158.312C93.0714 158.07 93.2981 157.829 93.5317 157.58C93.8388 157.251 93.8388 157.251 94.1521 156.916C94.3123 156.76 94.4725 156.603 94.6375 156.442Z" fill="#FEFCF6"/>
<path d="M94.6375 132.2C94.7464 132.2 94.8553 132.2 94.9675 132.2C94.9675 139.133 94.9675 146.066 94.9675 153.21C94.1115 152.313 93.3365 151.469 92.5888 150.52C92.395 150.275 92.2012 150.03 92.0015 149.777C91.7032 149.398 91.7032 149.398 91.3988 149.011C91.0051 148.512 90.611 148.012 90.2166 147.513C90.0231 147.267 89.8297 147.02 89.6304 146.766C89.22 146.26 88.7929 145.764 88.3518 145.277C88.1375 145.04 87.9232 144.802 87.7025 144.557C87.4072 144.241 87.4072 144.241 87.106 143.919C86.5771 143.022 86.7192 142.55 87.0462 141.599C87.4607 140.935 87.4607 140.935 87.9848 140.294C88.1773 140.055 88.3697 139.817 88.568 139.571C88.7738 139.322 88.9796 139.074 89.1916 138.817C89.3997 138.561 89.6078 138.306 89.8223 138.042C90.2398 137.529 90.6589 137.018 91.0796 136.507C91.5975 135.878 92.111 135.247 92.6223 134.615C94.0516 132.856 94.0516 132.856 94.6375 132.2Z" fill="#FEFCF6"/>
<path d="M94.6394 74.558C94.7477 74.558 94.856 74.558 94.9675 74.558C94.9675 81.669 94.9675 88.78 94.9675 96.1064C93.7954 95.0936 92.9976 94.1261 92.158 92.9167C91.2626 91.6425 90.3521 90.3904 89.346 89.1787C89.0951 88.8754 89.0951 88.8754 88.8392 88.566C88.5144 88.1771 88.1857 87.7906 87.8527 87.4069C86.7675 86.1018 86.7675 86.1018 86.7544 85.1672C87.1809 84.303 87.7011 83.5645 88.3027 82.7805C88.4283 82.6158 88.5539 82.4511 88.6833 82.2814C88.9694 81.9072 89.2568 81.5338 89.5451 81.1609C90.1178 80.4189 90.6848 79.6737 91.2519 78.9284C91.6699 78.3812 92.0882 77.834 92.5067 77.287C92.7112 77.0188 92.9158 76.7505 93.1266 76.4741C93.3179 76.2256 93.5092 75.977 93.7063 75.721C93.8783 75.4968 94.0502 75.2726 94.2273 75.0416C94.3633 74.882 94.4993 74.7225 94.6394 74.558Z" fill="#FEFDF7"/>
<path d="M52.8066 74.558C54.026 75.431 54.7602 76.0401 55.6283 77.0567C56.7926 78.3962 57.9914 79.7152 59.2172 81.0261C59.3819 81.2024 59.5466 81.3787 59.7163 81.5603C59.9555 81.8161 59.9555 81.8161 60.1995 82.0772C60.3528 82.2433 60.5062 82.4095 60.6642 82.5807C61.1085 83.0486 61.5834 83.5014 62.0589 83.9533C62.7071 84.7652 62.7071 84.7652 62.6248 85.4358C62.2721 86.2756 61.7842 86.8754 61.1076 87.606C60.8578 87.8782 60.608 88.1503 60.3507 88.4307C60.0828 88.7181 59.815 89.0056 59.539 89.3017C59.1356 89.7421 59.1356 89.7421 58.7241 90.1915C57.8948 91.0962 57.0593 91.9979 56.2223 92.899C55.7927 93.3647 55.7927 93.3647 55.3545 93.8398C55.0824 94.1328 54.8103 94.4257 54.5299 94.7275C54.2842 94.9928 54.0385 95.258 53.7853 95.5313C53.593 95.7211 53.4007 95.9109 53.2027 96.1064C53.072 96.1064 52.9413 96.1064 52.8066 96.1064C52.8066 88.9955 52.8066 81.8845 52.8066 74.558Z" fill="#FEFDFA"/>
<path d="M94.639 104.726C94.7474 104.726 94.8558 104.726 94.9675 104.726C94.9675 110.77 94.9675 116.814 94.9675 123.042C94.0567 122.365 93.4254 121.871 92.7436 121.103C92.5815 120.921 92.4195 120.739 92.2525 120.552C92.0847 120.361 91.9168 120.171 91.7439 119.974C91.4832 119.68 91.4832 119.68 91.2172 119.381C90.0745 118.091 88.9464 116.795 87.8401 115.488C87.4864 115.071 87.1218 114.66 86.7544 114.25C86.8471 113.182 87.4859 112.469 88.2674 111.59C88.3862 111.455 88.5051 111.32 88.6275 111.182C88.8789 110.898 89.1317 110.614 89.3856 110.332C89.7682 109.905 90.1471 109.477 90.5254 109.049C93.413 105.791 93.413 105.791 94.639 104.726Z" fill="#FEFDF7"/>
<path d="M136.032 77.7903C137.809 79.1823 137.809 79.1823 138.368 79.8565C138.493 80.0049 138.617 80.1534 138.746 80.3063C138.873 80.4613 139.001 80.6163 139.132 80.776C139.407 81.1054 139.683 81.4348 139.959 81.7641C140.095 81.9277 140.23 82.0913 140.37 82.2599C140.965 82.9749 141.569 83.6854 142.172 84.3959C142.367 84.6266 142.562 84.8573 142.763 85.0949C143.272 85.7126 143.272 85.7126 143.881 86.2107C144.001 86.3725 144.122 86.5342 144.245 86.7009C143.884 87.606 143.33 88.3111 142.623 89.0745C141.789 89.9874 140.971 90.9061 140.172 91.8378C139.866 92.1927 139.866 92.1927 139.555 92.5547C139.134 93.0435 138.715 93.5327 138.296 94.0224C138.094 94.2561 137.892 94.4898 137.684 94.7306C137.413 95.0473 137.413 95.0473 137.136 95.3703C136.664 95.859 136.664 95.859 136.032 96.1065C136.032 90.0622 136.032 84.0178 136.032 77.7903Z" fill="#FEFDF8"/>
<path d="M159.577 77.7903C160.998 79.1823 160.998 79.1823 161.446 79.8565C161.545 80.0049 161.645 80.1534 161.748 80.3063C161.85 80.4613 161.952 80.6163 162.057 80.776C162.277 81.1054 162.498 81.4348 162.718 81.7641C162.827 81.9277 162.936 82.0913 163.048 82.2599C163.524 82.9749 164.006 83.6854 164.489 84.3959C164.645 84.6266 164.801 84.8573 164.962 85.0949C165.342 85.643 165.736 86.1748 166.148 86.7009C165.702 87.6572 165.104 88.509 164.505 89.3772C164.278 89.7078 164.051 90.0384 163.824 90.3691C163.707 90.539 163.59 90.7088 163.47 90.8838C163.118 91.3999 162.769 91.9186 162.422 92.4382C162.255 92.6877 162.255 92.6877 162.084 92.9421C161.871 93.26 161.659 93.5785 161.447 93.8975C160.876 94.7466 160.323 95.3757 159.577 96.1065C159.577 90.0622 159.577 84.0178 159.577 77.7903Z" fill="#FEFDFA"/>
<path d="M71.1703 77.7903C71.2537 77.7903 71.3371 77.7903 71.423 77.7903C71.423 83.8347 71.423 89.879 71.423 96.1065C70.5225 95.2245 69.9784 94.6717 69.354 93.6623C68.6149 92.4939 67.8567 91.3413 67.0796 90.197C66.9744 90.0411 66.8693 89.8851 66.761 89.7244C66.164 88.8461 65.54 88.0101 64.8525 87.1959C65.1835 86.3039 65.5815 85.5896 66.1497 84.8223C66.8176 83.9081 67.4754 82.9892 68.12 82.059C68.2842 81.8224 68.4484 81.5858 68.6175 81.3421C68.9565 80.8529 69.2955 80.3637 69.6343 79.8744C69.7965 79.6407 69.9588 79.407 70.1259 79.1662C70.2721 78.9551 70.4184 78.744 70.569 78.5265C70.9176 78.0379 70.9176 78.0379 71.1703 77.7903Z" fill="#FEFEFB"/>
<path d="M153.861 77.7903C153.94 77.7903 154.02 77.7903 154.102 77.7903C154.102 83.8347 154.102 89.879 154.102 96.1065C153.278 95.2587 152.667 94.4399 152.043 93.4457C151.376 92.391 150.703 91.3478 149.982 90.3314C149.86 90.1564 149.737 89.9813 149.611 89.8009C149.373 89.4627 149.132 89.127 148.888 88.7939C148.362 88.0374 148.094 87.628 148.079 86.6796C148.378 85.8238 148.772 85.1936 149.293 84.4578C149.49 84.1758 149.686 83.8938 149.883 83.6118C149.984 83.4684 150.085 83.325 150.189 83.1773C150.683 82.4723 151.159 81.7551 151.637 81.039C151.978 80.5335 152.318 80.0282 152.659 79.523C152.789 79.3293 152.919 79.1356 153.053 78.9361C153.316 78.5495 153.587 78.1689 153.861 77.7903Z" fill="#FEFDFB"/>
<path d="M135.77 77.7903C135.857 77.7903 135.944 77.7903 136.033 77.7903C136.033 83.8347 136.033 89.879 136.033 96.1065C135.305 95.4214 134.805 94.9274 134.263 94.1496C134.071 93.8754 134.071 93.8754 133.874 93.5957C133.741 93.4033 133.608 93.2108 133.47 93.0125C133.191 92.6119 132.911 92.2113 132.632 91.8107C132.495 91.615 132.359 91.4193 132.219 91.2177C131.873 90.725 131.521 90.237 131.164 89.7513C130.976 89.4951 130.789 89.2389 130.596 88.9749C130.432 88.7538 130.269 88.5327 130.1 88.3049C129.684 87.6237 129.464 87.2428 129.462 86.4534C129.841 85.8147 130.217 85.2717 130.678 84.6898C130.944 84.3413 131.209 83.9926 131.475 83.6437C131.617 83.4592 131.759 83.2747 131.905 83.0846C132.857 81.8288 133.763 80.5417 134.678 79.2618C134.817 79.0697 134.956 78.8777 135.099 78.6799C135.284 78.4221 135.284 78.4221 135.472 78.1592C135.571 78.0375 135.669 77.9158 135.77 77.7903Z" fill="#FEFEFB"/>
<path d="M52.8066 98.8C54.7942 98.8 56.7818 98.8 58.8296 98.8C58.8296 103.778 58.8296 108.755 58.8296 113.884C56.842 113.884 54.8544 113.884 52.8066 113.884C52.8066 108.906 52.8066 103.929 52.8066 98.8Z" fill="#CBCACA"/>
<path d="M74.708 156.442C75.7048 157.165 76.2857 157.634 76.9852 158.469C77.8036 159.435 78.6581 160.37 79.5561 161.298C79.7694 161.522 79.9827 161.745 80.2025 161.975C80.6354 162.427 81.0731 162.877 81.5154 163.325C81.8149 163.64 81.8149 163.64 82.1205 163.962C82.3034 164.151 82.4864 164.339 82.675 164.533C82.9886 165.09 82.9886 165.09 82.7537 165.713C82.1798 166.49 81.5215 167.217 80.8357 167.943C80.5384 168.262 80.2413 168.58 79.9442 168.899C79.7913 169.062 79.6384 169.225 79.4808 169.393C79.0136 169.896 78.5528 170.4 78.094 170.907C77.9463 171.069 77.7985 171.232 77.6463 171.4C77.3631 171.712 77.0806 172.024 76.7989 172.337C76.1557 173.042 75.5379 173.617 74.708 174.219C74.708 168.353 74.708 162.486 74.708 156.442Z" fill="#FEFDFB"/>
<path d="M74.708 77.7903C75.7624 78.5524 76.3973 79.0841 77.148 79.9716C78.1634 81.1504 79.2067 82.3127 80.2728 83.4677C80.4907 83.7048 80.4907 83.7048 80.7131 83.9466C81.5595 84.8655 81.5595 84.8655 82.5362 85.7118C83.171 86.5147 82.8991 87.0647 82.5843 87.9385C82.1186 88.5404 81.6602 89.0693 81.1075 89.6247C80.7987 89.9462 80.4902 90.2678 80.1819 90.5896C80.0174 90.7593 79.853 90.9289 79.6836 91.1037C79.1212 91.6916 78.5746 92.286 78.0308 92.883C77.7516 93.1894 77.7516 93.1894 77.4668 93.5019C77.1002 93.9047 76.7341 94.3076 76.3683 94.7106C76.2014 94.8927 76.0344 95.0748 75.8624 95.2624C75.7139 95.4254 75.5653 95.5884 75.4122 95.7564C75.2928 95.8719 75.1735 95.9875 75.0505 96.1065C74.9374 96.1065 74.8244 96.1065 74.708 96.1065C74.708 90.0622 74.708 84.0178 74.708 77.7903Z" fill="#FEFDFB"/>
<path d="M74.708 104.726C75.5376 105.472 76.2992 106.166 77.0232 106.954C77.191 107.136 77.3589 107.318 77.5319 107.506C77.89 107.897 78.2481 108.289 78.606 108.68C79.4205 109.569 80.2353 110.455 81.1015 111.319C81.3528 111.573 81.6041 111.827 81.863 112.089C82.085 112.308 82.307 112.526 82.5358 112.751C83.0902 113.587 82.9824 113.994 82.615 114.874C82.149 115.486 82.149 115.486 81.5192 116.127C81.2763 116.379 81.0335 116.63 80.7833 116.89C80.6421 117.035 80.501 117.181 80.3556 117.33C79.7673 117.946 79.1953 118.569 78.6239 119.193C78.4073 119.429 78.1907 119.665 77.9675 119.909C77.5293 120.387 77.0915 120.866 76.6543 121.344C76.4521 121.564 76.2498 121.783 76.0415 122.009C75.8592 122.208 75.6768 122.407 75.489 122.612C75.3447 122.754 75.2004 122.896 75.0518 123.042C74.9383 123.042 74.8249 123.042 74.708 123.042C74.708 116.998 74.708 110.953 74.708 104.726Z" fill="#FEFEFB"/>
<path d="M74.708 132.2C75.7915 132.993 76.5276 133.645 77.3514 134.567C77.5861 134.829 77.8208 135.09 78.0625 135.36C78.9145 136.326 79.7569 137.297 80.5923 138.271C81.0768 138.815 81.5898 139.327 82.1308 139.842C82.9005 140.695 83.0481 140.871 82.8286 141.853C82.3091 142.574 81.673 143.23 81.0311 143.895C80.6597 144.29 80.2887 144.685 79.9182 145.08C79.6328 145.383 79.6328 145.383 79.3416 145.692C78.2562 146.859 77.2267 148.053 76.1939 149.246C75.8199 149.673 75.4344 150.095 75.0464 150.516C74.9347 150.516 74.823 150.516 74.708 150.516C74.708 144.472 74.708 138.427 74.708 132.2Z" fill="#FEFEFB"/>
<path d="M44.5933 98.8C45.1353 98.8 45.6774 98.8 46.2359 98.8C46.2359 103.778 46.2359 108.755 46.2359 113.884C45.6938 113.884 45.1518 113.884 44.5933 113.884C44.5933 108.906 44.5933 103.929 44.5933 98.8Z" fill="#6F6F6F"/>
<path d="M58.8296 98.8C60.0944 98.8 61.3592 98.8 62.6624 98.8C62.5359 103.778 62.4094 108.755 62.2791 113.884C61.1408 113.884 60.0024 113.884 58.8296 113.884C58.8296 108.906 58.8296 103.929 58.8296 98.8Z" fill="#696968"/>
<path d="M38.0229 98.8C38.7457 98.8 39.4685 98.8 40.2131 98.8C40.2131 103.778 40.2131 108.755 40.2131 113.884C39.5626 113.884 38.9122 113.884 38.242 113.884C38.1697 108.906 38.0974 103.929 38.0229 98.8Z" fill="#6A6A69"/>
</svg>
