<svg width="231" height="231" viewBox="0 0 231 231" fill="none" xmlns="http://www.w3.org/2000/svg">
<circle cx="115.5" cy="115.5" r="115.5" fill="#EDEDED"/>
<path d="M175.32 193.683C178.827 193.683 182.334 193.683 185.947 193.683C185.947 195.437 185.947 197.192 185.947 199C182.44 199 178.933 199 175.32 199C175.32 197.245 175.32 195.491 175.32 193.683Z" fill="#F09031"/>
<path d="M86.2534 32.0231C86.5754 32.0155 86.8973 32.0078 87.229 32C88.5089 32.1305 89.3955 32.5627 90.3049 33.5739C90.8184 33.6827 90.8184 33.6827 91.4029 33.6963C91.617 33.7077 91.831 33.7191 92.0515 33.7309C92.387 33.7446 92.387 33.7446 92.7292 33.7586C93.0677 33.7757 93.0677 33.7757 93.4131 33.7932C93.971 33.8211 94.529 33.8455 95.087 33.8694C95.087 34.0643 95.087 34.2593 95.087 34.4602C95.2381 34.4327 95.3891 34.4053 95.5447 34.3771C97.1883 34.2062 97.1883 34.2062 97.9482 34.8721C98.2472 35.2692 98.5367 35.6752 98.8189 36.0872C99.4338 36.9596 100.122 37.7288 100.832 38.5035C101.191 38.8982 101.191 38.8982 101.557 39.3009C101.789 39.5556 102.021 39.8104 102.26 40.0728C102.488 40.3287 102.715 40.5846 102.949 40.8483C103.489 41.4406 104.037 41.9881 104.618 42.5284C105.521 43.3977 106.292 44.3257 107.063 45.337C108.062 46.5967 109.155 47.7566 110.23 48.9349C110.674 49.4268 111.116 49.9193 111.559 50.412C111.951 50.8478 112.343 51.2836 112.735 51.7193C113.937 53.056 115.139 54.3926 116.341 55.7292C116.867 55.5343 117.393 55.3393 117.935 55.1384C118.071 55.2909 118.207 55.4434 118.347 55.6006C121.651 59.3074 124.959 63.0102 128.272 66.7085C129.873 68.497 131.474 70.2869 133.071 72.0801C134.463 73.6425 135.857 75.2024 137.255 76.7592C137.995 77.584 138.734 78.4101 139.47 79.2393C140.162 80.0191 140.857 80.7953 141.555 81.569C141.934 81.9905 142.309 82.4156 142.684 82.8409C143.021 83.2131 143.021 83.2131 143.366 83.5928C143.561 83.8109 143.756 84.0291 143.956 84.2538C144.136 84.394 144.317 84.5343 144.502 84.6788C145.048 84.5585 145.048 84.5585 145.565 84.3834C145.998 84.6838 145.998 84.6838 146.429 85.1665C146.593 85.3476 146.758 85.5286 146.928 85.7151C147.105 85.9178 147.283 86.1205 147.466 86.3294C147.75 86.6448 147.75 86.6448 148.039 86.9666C148.666 87.6649 149.289 88.3682 149.911 89.0718C150.344 89.556 150.777 90.0399 151.211 90.5235C152.353 91.7989 153.491 93.0788 154.628 94.3596C155.789 95.665 156.953 96.9663 158.117 98.2679C160.401 100.824 162.681 103.384 164.959 105.948C165.13 105.57 165.301 105.191 165.472 104.813C165.567 104.602 165.662 104.391 165.76 104.174C166.544 102.408 167.11 100.576 167.616 98.692C167.987 97.308 168.423 96.0213 168.982 94.719C169.255 94.065 169.255 94.065 169.425 93.0424C169.856 91.7057 170.512 91.0203 171.601 90.2914C172.458 90.0498 173.276 90.0544 174.156 90.0715C174.406 90.0693 174.655 90.0672 174.912 90.0649C175.733 90.0602 176.552 90.0682 177.373 90.0768C177.945 90.0771 178.517 90.0768 179.089 90.0759C180.285 90.076 181.482 90.0821 182.678 90.0928C184.212 90.1062 185.745 90.1065 187.278 90.1026C188.458 90.1006 189.638 90.1045 190.818 90.1103C191.384 90.1126 191.949 90.1133 192.515 90.1123C193.305 90.1121 194.094 90.1196 194.884 90.1292C195.117 90.1277 195.35 90.1262 195.591 90.1247C196.678 90.1458 197.234 90.1953 198.174 90.8555C199.092 91.9349 198.998 92.6669 198.997 94.1311C198.997 94.3463 198.997 94.5616 198.998 94.7833C198.998 95.5082 198.997 96.233 198.995 96.9578C198.995 97.4759 198.995 97.994 198.995 98.5122C198.995 99.922 198.994 101.332 198.992 102.742C198.99 104.214 198.99 105.686 198.99 107.158C198.989 109.947 198.987 112.736 198.984 115.525C198.981 119.293 198.979 123.061 198.978 126.829C198.975 132.768 198.97 138.707 198.965 144.646C183.798 144.646 168.63 144.646 153.004 144.646C153.004 145.426 153.004 146.205 153.004 147.009C153.45 146.988 153.45 146.988 153.905 146.967C155.013 146.918 156.121 146.888 157.229 146.863C157.708 146.85 158.187 146.831 158.666 146.808C162.644 146.621 162.644 146.621 163.745 147.559C164.158 148.248 164.433 148.895 164.693 149.668C166.067 151.989 167.48 154.276 168.911 156.554C170.199 158.606 171.477 160.664 172.718 162.751C173.699 164.4 174.7 166.035 175.702 167.669C175.874 167.95 176.047 168.231 176.225 168.521C177.085 169.921 177.948 171.32 178.815 172.715C180.717 175.777 182.568 178.876 184.42 181.976C184.878 182.774 184.878 182.774 185.467 183.528C186.162 184.973 186.08 186.252 186.051 187.865C186.049 188.183 186.048 188.502 186.046 188.831C186.04 189.845 186.027 190.859 186.013 191.873C186.008 192.563 186.003 193.252 185.999 193.941C185.988 195.628 185.967 197.313 185.947 199C182.44 199 178.933 199 175.32 199C175.32 197.245 175.32 195.491 175.32 193.683C176.284 193.683 177.249 193.683 178.242 193.683C178.212 192.932 178.178 192.181 178.143 191.43C178.135 191.22 178.126 191.009 178.118 190.792C178.004 188.493 177.464 187.047 176.067 185.319C175.8 184.978 175.532 184.636 175.265 184.294C175.136 184.13 175.007 183.966 174.874 183.797C174.44 183.236 174.03 182.658 173.626 182.07C172.63 180.623 171.592 179.214 170.554 177.804C169.813 176.796 169.083 175.782 168.374 174.745C168.243 174.554 168.112 174.364 167.977 174.167C167.731 173.807 167.486 173.444 167.244 173.079C166.619 172.164 166.619 172.164 165.761 171.555C165.103 171.521 164.484 171.571 163.83 171.657C163.593 171.687 163.356 171.717 163.112 171.748C162.842 171.785 162.842 171.785 162.568 171.823C162.561 172.147 162.554 172.471 162.547 172.805C162.532 173.234 162.517 173.664 162.501 174.094C162.498 174.307 162.494 174.52 162.49 174.739C162.43 176.189 162.207 176.969 161.239 178.026C160.505 178.435 159.899 178.35 159.081 178.34C158.79 178.338 158.499 178.335 158.199 178.332C157.975 178.329 157.751 178.325 157.52 178.322C157.535 178.541 157.551 178.76 157.567 178.985C157.733 183.293 156.696 187.212 154.066 190.433C153.911 190.626 153.757 190.819 153.597 191.017C151.12 193.736 147.61 194.964 144.215 194.977C140.895 194.903 138.127 193.621 135.735 191.024C135.561 190.838 135.386 190.652 135.207 190.461C133.923 188.97 133.239 187.307 132.547 185.411C132.404 185.092 132.261 184.772 132.114 184.442C131.679 183.131 131.659 182.083 131.7 180.703C131.704 180.473 131.707 180.243 131.711 180.006C131.72 179.444 131.734 178.883 131.75 178.322C130.435 178.322 129.12 178.322 127.765 178.322C127.781 179.263 127.781 179.263 127.798 180.223C127.783 184.485 126.562 187.861 123.869 190.97C121.206 193.738 117.921 195.102 114.284 195.017C110.642 194.809 107.812 193.239 105.336 190.246C102.508 186.401 102.122 182.844 102.26 178.026C102.007 178.04 101.754 178.054 101.493 178.068C101.16 178.079 100.827 178.089 100.484 178.1C100.154 178.114 99.8239 178.128 99.4841 178.142C98.3988 178.009 97.9842 177.678 97.2124 176.845C95.1425 179.385 93.1828 182.016 91.3147 184.742C90.8363 185.411 90.8363 185.411 90.4396 185.836C89.1098 187.33 88.9652 188.659 88.877 190.71C88.8588 190.997 88.8407 191.283 88.822 191.579C88.7785 192.279 88.7438 192.981 88.7109 193.683C89.763 193.683 90.815 193.683 91.899 193.683C91.899 195.437 91.899 197.192 91.899 199C88.3044 199 84.7099 199 81.0064 199C81.0064 197.245 81.0064 195.491 81.0064 193.683C80.9979 192.852 80.9893 192.022 80.9805 191.166C80.9841 189.938 80.9841 189.938 80.9886 189.328C80.9894 188.917 80.9859 188.507 80.9782 188.097C80.9184 184.639 81.7124 182.756 83.6631 180.094C84.0721 179.461 84.4648 178.819 84.8587 178.174C85.478 177.179 86.0975 176.184 86.7173 175.19C86.8259 175.016 86.9345 174.842 87.0463 174.662C87.3489 174.176 87.6517 173.691 87.9544 173.205C88.2992 172.649 88.6396 172.09 88.9766 171.527C84.5053 171.527 80.0341 171.527 75.4273 171.527C75.4273 173.087 75.4273 174.647 75.4273 176.254C74.0989 178.026 74.0989 178.026 73.5676 178.322C73.0698 178.342 72.5713 178.347 72.0732 178.34C71.8067 178.338 71.5403 178.335 71.2658 178.332C70.9586 178.327 70.9586 178.327 70.6452 178.322C70.6544 178.607 70.6637 178.893 70.6732 179.187C70.7573 183.685 69.7236 187.435 66.8988 190.796C63.9993 193.807 60.4538 194.993 56.5791 194.929C55.2415 194.874 54.0794 194.55 52.8452 193.978C52.578 193.865 52.578 193.865 52.3055 193.75C50.6204 192.939 49.3607 191.551 48.0631 190.138C47.822 189.876 47.5809 189.614 47.3325 189.344C45.5191 186.788 44.8314 183.454 44.8584 180.279C44.8608 179.911 44.8632 179.543 44.8656 179.164C44.8687 178.886 44.8718 178.608 44.875 178.322C44.6603 178.339 44.4455 178.356 44.2243 178.374C41.8823 178.484 41.8823 178.484 40.8401 177.62C40.0395 176.331 40.0609 175.382 40.0763 173.854C40.0775 173.631 40.0787 173.408 40.0799 173.179C40.083 172.628 40.0878 172.078 40.0929 171.527C39.8972 171.535 39.7016 171.543 39.5001 171.551C38.6129 171.582 37.7258 171.601 36.8384 171.62C36.5305 171.632 36.2226 171.645 35.9054 171.657C33.6221 171.694 33.6221 171.694 32.7246 170.82C32.5582 170.439 32.5582 170.439 32.3884 170.05C32.3007 169.855 32.213 169.66 32.1227 169.46C32.0924 168.655 32.0781 167.859 32.0757 167.054C32.0739 166.805 32.0722 166.556 32.0704 166.3C32.0651 165.472 32.0621 164.645 32.0594 163.817C32.0583 163.533 32.0572 163.25 32.0561 162.958C32.0506 161.452 32.0468 159.947 32.0443 158.442C32.0414 156.898 32.0323 155.354 32.0217 153.81C32.0147 152.615 32.0125 151.42 32.0115 150.224C32.0103 149.656 32.0072 149.088 32.0022 148.519C31.9659 144.085 32.36 140.105 34.0987 136.042C34.2622 135.648 34.4248 135.253 34.5864 134.858C34.6648 134.667 34.7431 134.476 34.8238 134.279C35.2905 133.092 35.6582 131.865 36.0403 130.642C36.4157 129.446 36.8063 128.257 37.2037 127.069C37.2679 126.875 37.3322 126.68 37.3983 126.48C38.1228 124.32 38.7627 122.491 40.6242 121.309C41.7127 121.052 42.7777 121.066 43.8871 121.079C44.2118 121.076 44.5364 121.073 44.8709 121.07C45.757 121.064 46.6425 121.065 47.5286 121.071C48.4576 121.075 49.3867 121.071 50.3157 121.068C51.875 121.065 53.4342 121.069 54.9935 121.078C56.7947 121.087 58.5957 121.084 60.3969 121.075C61.9459 121.066 63.4948 121.065 65.0438 121.07C65.9679 121.073 66.8919 121.073 67.816 121.067C68.8457 121.061 69.8751 121.07 70.9048 121.079C71.2101 121.076 71.5154 121.072 71.83 121.069C73.1294 121.092 73.8696 121.132 74.9533 121.968C75.7926 123.434 75.5998 125.274 75.5781 126.943C75.5784 127.527 75.5784 127.527 75.5787 128.123C75.5791 129.187 75.5713 130.25 75.562 131.314C75.5537 132.427 75.5529 133.54 75.5513 134.653C75.5472 136.759 75.5363 138.865 75.523 140.971C75.5053 143.817 75.4982 146.664 75.4904 149.511C75.4779 153.994 75.4515 158.478 75.4273 162.961C81.7397 162.961 88.052 162.961 94.5557 162.961C94.731 162.473 94.9064 161.986 95.087 161.484C95.3514 161.025 95.6291 160.576 95.9173 160.136C96.5831 159.102 97.2315 158.06 97.86 156.997C98.976 155.126 100.128 153.283 101.281 151.44C101.468 151.14 101.656 150.84 101.849 150.53C102.871 148.9 102.871 148.9 103.323 148.191C103.428 147.968 103.532 147.744 103.64 147.515C104.418 146.694 105.335 146.864 106.348 146.894C106.565 146.895 106.782 146.897 107.006 146.899C107.699 146.905 108.392 146.92 109.085 146.935C109.555 146.941 110.025 146.946 110.494 146.951C111.646 146.964 112.798 146.985 113.95 147.009C113.95 146.229 113.95 145.449 113.95 144.646C112.985 144.646 112.021 144.646 111.027 144.646C111.027 142.988 111.027 141.331 111.027 139.624C111.6 139.583 111.6 139.583 112.183 139.541C116.059 139.25 119.92 138.857 123.784 138.415C124.032 138.386 124.28 138.358 124.536 138.329C126.863 138.062 129.189 137.793 131.516 137.522C136.756 136.914 141.988 136.321 147.249 135.98C150.599 135.761 153.933 135.392 157.271 135.008C158.166 134.906 159.06 134.805 159.955 134.704C160.502 134.642 161.049 134.58 161.595 134.517C162.811 134.379 164.001 134.269 165.225 134.307C165.104 133.978 164.983 133.649 164.859 133.31C164.545 132.384 164.334 131.496 164.178 130.522C163.956 129.184 163.587 127.988 163.13 126.727C162.833 125.74 162.833 125.74 162.677 124.627C162.012 120.117 159.354 117.545 156.489 114.504C155.808 113.777 155.138 113.038 154.466 112.3C153.198 110.909 151.922 109.528 150.642 108.151C148.344 105.677 146.059 103.189 143.779 100.696C142.98 99.8222 142.176 98.9533 141.37 98.0881C140.753 97.4254 140.14 96.7582 139.527 96.0918C139.303 95.8541 139.079 95.6164 138.848 95.3715C138.647 95.151 138.445 94.9305 138.238 94.7033C138.061 94.5133 137.885 94.3233 137.703 94.1276C137.329 93.5409 137.329 93.5409 137.335 92.8098C137.327 91.7747 136.984 91.5003 136.33 90.782C136.109 90.5351 135.888 90.2883 135.66 90.034C135.414 89.7673 135.168 89.5005 134.915 89.2257C134.655 88.9391 134.396 88.6522 134.137 88.3649C133.579 87.7474 133.019 87.1322 132.458 86.5187C131.571 85.5493 130.688 84.5746 129.806 83.5991C128.253 81.8818 126.695 80.169 125.137 78.4573C122.789 75.8786 120.444 73.2965 118.103 70.7101C117.225 69.7404 116.346 68.7732 115.464 67.8078C114.917 67.2078 114.371 66.6061 113.826 66.0038C113.451 65.5906 113.074 65.1796 112.697 64.7687C112.475 64.5235 112.254 64.2784 112.026 64.0258C111.832 63.8129 111.638 63.5999 111.438 63.3806C111.027 62.8189 111.027 62.8189 111.027 61.9327C111.203 61.9327 111.378 61.9327 111.559 61.9327C110.954 60.703 110.201 59.7183 109.337 58.7105C109.195 58.5427 109.052 58.3749 108.906 58.202C107.593 56.6602 106.264 55.1361 104.931 53.6173C104.037 52.5993 103.149 51.5764 102.273 50.539C101.423 49.5318 100.56 48.5402 99.6865 47.5575C99.3581 47.183 99.0344 46.8036 98.7157 46.4189C96.7459 44.0358 96.7459 44.0358 94.0428 43.1366C91.8819 43.1588 90.0858 43.5332 88.2107 44.7704C87.2218 45.3405 86.3331 45.3522 85.2572 45.0947C83.9726 44.5471 82.699 43.9296 81.8034 42.7315C81.8034 42.5365 81.8034 42.3415 81.8034 42.1407C81.6281 42.1407 81.4527 42.1407 81.2721 42.1407C80.6111 40.1196 80.3718 37.8028 80.9722 35.7283C82.0222 33.3568 83.9793 32.0551 86.2534 32.0231Z" fill="#F9C828"/>
<path d="M86.2535 32.0231C86.5754 32.0155 86.8973 32.0078 87.229 32C88.5089 32.1305 89.3955 32.5627 90.305 33.5739C90.8184 33.6827 90.8184 33.6827 91.403 33.6963C91.617 33.7077 91.831 33.7191 92.0516 33.7309C92.387 33.7446 92.387 33.7446 92.7292 33.7586C93.0678 33.7757 93.0678 33.7757 93.4131 33.7932C93.971 33.8211 94.5291 33.8455 95.0871 33.8694C95.0871 34.0643 95.0871 34.2593 95.0871 34.4602C95.3136 34.419 95.3136 34.419 95.5448 34.3771C97.1884 34.2062 97.1884 34.2062 97.9483 34.8721C98.2472 35.2692 98.5368 35.6752 98.819 36.0872C99.4338 36.9596 100.122 37.7288 100.832 38.5035C101.071 38.7666 101.31 39.0298 101.557 39.3009C101.789 39.5556 102.021 39.8104 102.26 40.0728C102.488 40.3287 102.715 40.5846 102.949 40.8483C103.489 41.4406 104.037 41.9881 104.618 42.5284C105.521 43.3977 106.292 44.3257 107.063 45.337C108.062 46.5967 109.155 47.7566 110.23 48.9349C110.674 49.4268 111.116 49.9193 111.559 50.412C111.951 50.8478 112.343 51.2836 112.735 51.7193C113.937 53.056 115.139 54.3926 116.341 55.7292C116.867 55.5343 117.393 55.3393 117.935 55.1384C118.071 55.2909 118.207 55.4434 118.347 55.6006C121.651 59.3074 124.959 63.0102 128.272 66.7085C129.873 68.497 131.474 70.2869 133.071 72.0801C134.463 73.6425 135.858 75.2024 137.255 76.7592C137.995 77.584 138.734 78.4101 139.47 79.2393C140.162 80.0191 140.857 80.7954 141.555 81.5691C141.934 81.9905 142.309 82.4157 142.684 82.8409C142.909 83.089 143.134 83.3372 143.366 83.5928C143.561 83.811 143.756 84.0291 143.956 84.2538C144.137 84.394 144.317 84.5343 144.502 84.6788C145.048 84.5585 145.048 84.5585 145.565 84.3834C145.998 84.6838 145.998 84.6838 146.429 85.1665C146.594 85.3476 146.758 85.5286 146.928 85.7151C147.105 85.9178 147.283 86.1205 147.466 86.3294C147.655 86.5397 147.844 86.75 148.039 86.9666C148.667 87.6649 149.289 88.3683 149.911 89.0718C150.344 89.556 150.777 90.0399 151.211 90.5235C152.353 91.7989 153.491 93.0788 154.628 94.3596C155.789 95.665 156.953 96.9663 158.117 98.2679C160.401 100.824 162.681 103.384 164.959 105.948C165.13 105.57 165.301 105.191 165.472 104.813C165.567 104.602 165.662 104.391 165.76 104.174C166.544 102.408 167.11 100.576 167.616 98.692C167.987 97.308 168.424 96.0213 168.982 94.719C169.255 94.065 169.255 94.065 169.426 93.0424C169.856 91.7057 170.512 91.0203 171.601 90.2915C172.458 90.0498 173.276 90.0544 174.156 90.0715C174.531 90.0682 174.531 90.0682 174.912 90.0649C175.733 90.0602 176.553 90.0682 177.373 90.0768C177.945 90.0771 178.517 90.0768 179.089 90.0759C180.285 90.076 181.482 90.0821 182.678 90.0928C184.212 90.1063 185.745 90.1066 187.278 90.1026C188.458 90.1006 189.638 90.1045 190.819 90.1103C191.384 90.1126 191.949 90.1133 192.515 90.1123C193.305 90.1121 194.094 90.1196 194.884 90.1292C195.117 90.1277 195.351 90.1263 195.591 90.1247C196.678 90.1458 197.234 90.1953 198.174 90.8555C199.092 91.9349 198.998 92.6669 198.997 94.1311C198.997 94.454 198.997 94.454 198.998 94.7833C198.998 95.5082 198.997 96.233 198.995 96.9578C198.995 97.4759 198.995 97.994 198.995 98.5122C198.995 99.922 198.994 101.332 198.992 102.742C198.99 104.214 198.99 105.686 198.99 107.158C198.989 109.947 198.987 112.736 198.984 115.525C198.981 119.293 198.979 123.061 198.978 126.829C198.975 132.768 198.97 138.707 198.965 144.646C183.798 144.646 168.631 144.646 153.004 144.646C153.004 144.548 153.004 144.451 153.004 144.35C168.083 144.35 183.163 144.35 198.699 144.35C198.699 141.036 198.699 137.721 198.699 134.307C187.127 134.404 175.554 134.502 163.631 134.602C163.631 134.505 163.631 134.407 163.631 134.307C164.157 134.307 164.683 134.307 165.225 134.307C165.104 133.978 164.983 133.649 164.859 133.31C164.545 132.384 164.334 131.496 164.178 130.522C163.956 129.184 163.587 127.988 163.131 126.727C162.834 125.74 162.834 125.74 162.677 124.627C162.012 120.117 159.354 117.545 156.489 114.504C155.808 113.777 155.138 113.038 154.466 112.3C153.198 110.909 151.922 109.528 150.642 108.151C148.344 105.677 146.059 103.189 143.779 100.696C142.98 99.8222 142.176 98.9533 141.37 98.0881C140.753 97.4255 140.141 96.7582 139.527 96.0919C139.303 95.8541 139.079 95.6164 138.848 95.3715C138.647 95.151 138.445 94.9305 138.238 94.7033C138.061 94.5133 137.885 94.3233 137.703 94.1276C137.329 93.5409 137.329 93.5409 137.335 92.8098C137.327 91.7747 136.984 91.5003 136.33 90.782C136.109 90.5351 135.888 90.2883 135.66 90.034C135.414 89.7673 135.168 89.5005 134.915 89.2257C134.655 88.9391 134.396 88.6522 134.137 88.3649C133.579 87.7474 133.02 87.1322 132.458 86.5187C131.571 85.5493 130.688 84.5746 129.806 83.5991C128.253 81.8818 126.695 80.169 125.137 78.4573C122.789 75.8786 120.444 73.2965 118.103 70.7101C117.226 69.7404 116.346 68.7732 115.464 67.8078C114.917 67.2078 114.371 66.6061 113.826 66.0038C113.451 65.5906 113.074 65.1796 112.697 64.7687C112.475 64.5235 112.254 64.2784 112.026 64.0258C111.832 63.8129 111.638 63.5999 111.438 63.3806C111.027 62.8189 111.027 62.8189 111.027 61.9327C111.203 61.9327 111.378 61.9327 111.559 61.9327C110.954 60.703 110.201 59.7183 109.337 58.7105C109.123 58.4588 109.123 58.4588 108.906 58.202C107.593 56.6602 106.264 55.1361 104.931 53.6173C104.037 52.5993 103.149 51.5764 102.273 50.539C101.423 49.5318 100.56 48.5402 99.6865 47.5575C99.3582 47.183 99.0344 46.8036 98.7158 46.4189C96.746 44.0358 96.746 44.0358 94.0428 43.1366C91.8819 43.1588 90.0858 43.5332 88.2107 44.7704C87.2218 45.3405 86.3332 45.3522 85.2572 45.0947C83.9726 44.5471 82.6991 43.9296 81.8035 42.7315C81.8035 42.5365 81.8035 42.3415 81.8035 42.1407C81.6281 42.1407 81.4528 42.1407 81.2721 42.1407C80.6112 40.1196 80.3718 37.8028 80.9722 35.7283C82.0223 33.3568 83.9793 32.0551 86.2535 32.0231Z" fill="#F9C82B"/>
<path d="M43.887 121.08C44.2117 121.076 44.5363 121.073 44.8708 121.07C45.7569 121.064 46.6424 121.065 47.5284 121.071C48.4575 121.075 49.3865 121.071 50.3156 121.068C51.8749 121.065 53.4341 121.069 54.9934 121.078C56.7946 121.087 58.5956 121.084 60.3968 121.075C61.9458 121.067 63.4947 121.065 65.0437 121.07C65.9678 121.073 66.8917 121.073 67.8158 121.067C68.8455 121.061 69.8749 121.07 70.9046 121.08C71.3626 121.074 71.3626 121.074 71.8298 121.069C73.1282 121.092 73.8695 121.132 74.9532 121.966C75.7961 123.439 75.5996 125.294 75.578 126.97C75.5776 127.373 75.5777 127.775 75.5785 128.178C75.5788 129.253 75.5711 130.327 75.5617 131.402C75.5541 132.411 75.5538 133.421 75.5528 134.43C75.5459 137.38 75.5273 140.33 75.5102 143.28C75.4828 149.872 75.4554 156.464 75.4272 163.256C61.2243 163.256 47.0215 163.256 32.3883 163.256C32.3883 165.303 32.3883 167.35 32.3883 169.46C32.3006 169.46 32.2129 169.46 32.1226 169.46C32.0978 166.113 32.079 162.767 32.0675 159.421C32.062 157.867 32.0545 156.312 32.0424 154.758C32.0308 153.254 32.0245 151.751 32.0218 150.247C32.0198 149.677 32.016 149.107 32.0102 148.537C31.9669 144.093 32.3558 140.114 34.0985 136.042C34.2621 135.648 34.4247 135.253 34.5863 134.858C34.6646 134.667 34.743 134.476 34.8237 134.279C35.2904 133.092 35.6581 131.865 36.0402 130.642C36.4156 129.446 36.8062 128.257 37.2036 127.069C37.2678 126.875 37.332 126.68 37.3982 126.48C38.7409 122.478 39.983 121.033 43.887 121.08Z" fill="#F9C829"/>
<path d="M121.954 168.576C123.886 170.094 123.886 170.094 124.341 170.815C125.16 171.497 126.097 171.37 127.082 171.371C127.412 171.374 127.412 171.374 127.748 171.377C128.213 171.381 128.678 171.381 129.143 171.38C129.853 171.38 130.562 171.392 131.271 171.405C131.724 171.407 132.176 171.407 132.628 171.407C132.945 171.415 132.945 171.415 133.269 171.422C134.4 171.407 134.807 171.354 135.708 170.517C135.984 170.14 135.984 170.14 136.266 169.755C136.672 169.391 137.087 169.039 137.512 168.703C137.715 168.538 137.919 168.373 138.129 168.203C140.211 166.85 142.061 166.297 144.469 166.339C144.725 166.342 144.981 166.345 145.245 166.348C147.259 166.413 148.87 166.815 150.613 167.983C150.835 168.128 151.058 168.274 151.287 168.423C152.179 169.047 152.894 169.612 153.581 170.51C154.529 171.421 155.024 171.424 156.263 171.441C156.535 171.448 156.535 171.448 156.812 171.454C157.385 171.467 157.959 171.47 158.533 171.472C158.924 171.479 159.314 171.486 159.705 171.495C160.659 171.513 161.613 171.523 162.568 171.527C162.552 172.334 162.529 173.14 162.501 173.946C162.498 174.173 162.494 174.4 162.49 174.634C162.432 176.124 162.244 176.945 161.239 178.026C160.505 178.435 159.899 178.35 159.081 178.34C158.79 178.338 158.499 178.335 158.199 178.332C157.975 178.329 157.751 178.325 157.52 178.322C157.543 178.65 157.543 178.65 157.567 178.985C157.733 183.293 156.696 187.212 154.066 190.433C153.911 190.626 153.757 190.819 153.597 191.017C151.12 193.736 147.61 194.964 144.215 194.977C140.895 194.903 138.127 193.621 135.735 191.024C135.561 190.838 135.386 190.652 135.207 190.461C133.923 188.97 133.239 187.307 132.547 185.411C132.333 184.932 132.333 184.932 132.114 184.442C131.679 183.131 131.659 182.083 131.7 180.703C131.704 180.473 131.707 180.243 131.711 180.006C131.72 179.444 131.734 178.883 131.75 178.322C130.435 178.322 129.12 178.322 127.765 178.322C127.776 178.949 127.787 179.577 127.798 180.223C127.783 184.485 126.562 187.861 123.869 190.97C121.206 193.738 117.921 195.102 114.284 195.017C110.642 194.809 107.812 193.239 105.336 190.246C102.508 186.401 102.122 182.844 102.26 178.026C102.007 178.043 101.754 178.061 101.493 178.078C98.804 178.186 98.804 178.186 97.998 177.697C97.6441 177.288 97.6441 177.288 97.2124 176.549C97.5858 175.991 97.9613 175.437 98.3457 174.888C98.8185 174.2 98.8185 174.2 99.1676 173.448C99.615 172.613 99.9526 172.098 100.666 171.527C101.616 171.314 102.574 171.343 103.54 171.342C104.697 171.338 104.697 171.338 105.74 170.845C106.004 170.494 106.26 170.135 106.509 169.77C107.292 168.88 108.218 168.412 109.217 167.872C109.404 167.77 109.591 167.668 109.783 167.563C113.659 165.499 118.379 166.025 121.954 168.576Z" fill="#676765"/>
<path d="M172.654 134.277C173.573 134.279 174.491 134.279 175.41 134.279C177.142 134.28 178.874 134.282 180.606 134.285C182.581 134.289 184.556 134.29 186.531 134.292C190.587 134.295 194.643 134.3 198.699 134.307C198.699 137.621 198.699 140.935 198.699 144.35C183.62 144.35 168.54 144.35 153.004 144.35C153.004 145.325 153.004 146.3 153.004 147.304C140.116 147.304 127.228 147.304 113.95 147.304C113.95 146.427 113.95 145.55 113.95 144.646C112.985 144.646 112.021 144.646 111.027 144.646C111.027 142.989 111.027 141.331 111.027 139.624C111.409 139.597 111.79 139.569 112.183 139.541C116.059 139.25 119.92 138.857 123.784 138.415C124.032 138.386 124.28 138.358 124.536 138.329C126.863 138.062 129.189 137.793 131.516 137.522C137.111 136.873 142.693 136.272 148.309 135.907C150.8 135.742 153.279 135.464 155.76 135.174C156.435 135.096 157.11 135.019 157.785 134.943C158.195 134.896 158.604 134.849 159.013 134.8C163.559 134.284 168.089 134.266 172.654 134.277Z" fill="#EF8C2B"/>
<path d="M86.2535 32.0231C86.5754 32.0155 86.8973 32.0078 87.229 32C88.5089 32.1305 89.3955 32.5627 90.305 33.5739C90.8184 33.6827 90.8184 33.6827 91.403 33.6963C91.617 33.7077 91.831 33.7191 92.0516 33.7309C92.387 33.7446 92.387 33.7446 92.7292 33.7586C93.0678 33.7757 93.0678 33.7757 93.4131 33.7932C93.971 33.8211 94.5291 33.8455 95.0871 33.8694C95.0871 34.0643 95.0871 34.2593 95.0871 34.4602C95.3136 34.419 95.3136 34.419 95.5448 34.3771C97.1884 34.2062 97.1884 34.2062 97.9483 34.8721C98.2472 35.2692 98.5368 35.6752 98.819 36.0872C99.4338 36.9596 100.122 37.7288 100.832 38.5035C101.071 38.7666 101.31 39.0298 101.557 39.3009C101.789 39.5556 102.021 39.8104 102.26 40.0728C102.488 40.3287 102.715 40.5846 102.949 40.8483C103.489 41.4406 104.037 41.9881 104.618 42.5284C105.521 43.3977 106.292 44.3257 107.063 45.337C108.062 46.5967 109.155 47.7566 110.23 48.9349C110.674 49.4268 111.116 49.9193 111.559 50.412C111.951 50.8478 112.343 51.2836 112.735 51.7193C113.937 53.056 115.139 54.3926 116.341 55.7292C116.867 55.5343 117.393 55.3393 117.935 55.1384C121.374 58.9206 124.808 62.7078 128.237 66.5011C129.829 68.2622 131.422 70.0216 133.019 71.7772C134.411 73.307 135.8 74.8399 137.185 76.3765C137.92 77.1904 138.655 78.0026 139.394 78.8112C140.089 79.5718 140.78 80.3366 141.468 81.1046C141.843 81.5206 142.222 81.9322 142.6 82.3437C142.821 82.5918 143.042 82.8399 143.27 83.0955C143.464 83.3098 143.658 83.5241 143.858 83.7449C144.236 84.3834 144.236 84.3834 144.199 85.1546C143.876 86.1525 143.346 86.6873 142.666 87.4263C142.537 87.5684 142.408 87.7106 142.274 87.857C141.863 88.3083 141.447 88.7552 141.032 89.2021C140.751 89.5082 140.471 89.8146 140.191 90.1212C139.505 90.8704 138.817 91.6158 138.126 92.3593C137.227 91.9259 136.639 91.3709 135.947 90.6043C135.727 90.3612 135.506 90.1181 135.279 89.8676C135.039 89.6004 134.8 89.3333 134.553 89.058C134.296 88.774 134.039 88.4901 133.783 88.2064C133.087 87.4363 132.392 86.6644 131.698 85.892C131.119 85.2476 130.539 84.6041 129.959 83.9605C128.591 82.4431 127.225 80.924 125.859 79.404C124.449 77.8345 123.037 76.2677 121.624 74.7022C120.411 73.3586 119.199 72.0133 117.989 70.6666C117.266 69.8621 116.542 69.0582 115.817 68.2559C115.135 67.5021 114.456 66.7462 113.778 65.9886C113.409 65.5775 113.039 65.1686 112.668 64.7598C112.342 64.3939 112.342 64.3939 112.009 64.0205C111.818 63.8086 111.627 63.5967 111.431 63.3784C111.027 62.8189 111.027 62.8189 111.027 61.9327C111.203 61.9327 111.378 61.9327 111.559 61.9327C110.954 60.703 110.201 59.7183 109.337 58.7105C109.123 58.4588 109.123 58.4588 108.906 58.202C107.593 56.6602 106.264 55.1361 104.931 53.6173C104.037 52.5993 103.149 51.5764 102.273 50.539C101.423 49.5318 100.56 48.5402 99.6865 47.5575C99.3582 47.183 99.0344 46.8036 98.7158 46.4189C96.746 44.0358 96.746 44.0358 94.0428 43.1366C91.8819 43.1588 90.0858 43.5332 88.2107 44.7704C87.2218 45.3405 86.3332 45.3522 85.2572 45.0947C83.9726 44.5471 82.6991 43.9296 81.8035 42.7315C81.8035 42.5365 81.8035 42.3415 81.8035 42.1407C81.6281 42.1407 81.4528 42.1407 81.2721 42.1407C80.6112 40.1196 80.3718 37.8028 80.9722 35.7283C82.0223 33.3568 83.9793 32.0551 86.2535 32.0231Z" fill="#F08D2C"/>
<path d="M57.6937 166.432C57.9085 166.426 58.1232 166.42 58.3444 166.413C60.5859 166.397 62.3911 167.112 64.3189 168.37C64.5748 168.534 64.8306 168.697 65.0942 168.865C65.8632 169.46 65.8632 169.46 66.5014 170.398C67.4577 171.502 68.5679 171.446 69.8881 171.486C70.4394 171.493 70.9905 171.492 71.5419 171.49C71.9186 171.496 72.2953 171.502 72.672 171.509C73.5905 171.524 74.5088 171.529 75.4274 171.527C75.4635 172.279 75.4897 173.028 75.5104 173.78C75.5271 174.096 75.5271 174.096 75.5441 174.418C75.5688 175.614 75.4824 176.332 74.7912 177.276C73.8202 178.328 73.3964 178.357 72.0732 178.34C71.8068 178.337 71.5404 178.335 71.2659 178.332C71.0611 178.329 70.8563 178.325 70.6453 178.322C70.6591 178.75 70.6591 178.75 70.6733 179.187C70.7574 183.685 69.7237 187.435 66.8989 190.796C63.9993 193.807 60.4538 194.993 56.5792 194.929C55.2415 194.874 54.0794 194.55 52.8452 193.978C52.6671 193.903 52.489 193.827 52.3056 193.75C50.6205 192.939 49.3607 191.551 48.0631 190.138C47.822 189.876 47.5809 189.614 47.3325 189.344C45.5192 186.788 44.8315 183.453 44.8584 180.279C44.8608 179.911 44.8632 179.543 44.8657 179.164C44.8688 178.886 44.8719 178.608 44.875 178.322C44.6603 178.339 44.4456 178.356 44.2244 178.374C41.8824 178.484 41.8824 178.484 40.8401 177.62C40.0396 176.331 40.0609 175.382 40.0763 173.854C40.0775 173.631 40.0787 173.408 40.08 173.179C40.0831 172.628 40.0879 172.078 40.0929 171.527C40.3274 171.526 40.5619 171.525 40.8035 171.524C41.6776 171.516 42.5512 171.501 43.4252 171.482C43.8027 171.475 44.1802 171.471 44.5577 171.47C45.102 171.467 45.6457 171.455 46.1899 171.441C46.6803 171.434 46.6803 171.434 47.1807 171.427C48.2923 171.181 48.6662 170.699 49.3915 169.755C50.3098 168.87 51.2258 168.232 52.3139 167.632C52.5824 167.481 52.8509 167.331 53.1275 167.176C54.6363 166.451 56.0735 166.443 57.6937 166.432Z" fill="#686765"/>
<path d="M174.824 94.9811C175.02 94.9822 175.216 94.9833 175.417 94.9844C175.625 94.9843 175.834 94.9843 176.048 94.9842C176.725 94.9845 177.401 94.9867 178.078 94.989C178.494 94.9895 178.911 94.9898 179.327 94.9899C180.875 94.9915 182.423 94.9956 183.971 94.9994C187.429 95.0055 190.886 95.0116 194.449 95.0179C194.449 103.012 194.449 111.005 194.449 119.241C184.98 119.241 175.512 119.241 165.756 119.241C166.278 117.307 166.812 115.4 167.417 113.499C167.497 113.246 167.577 112.992 167.659 112.731C168.287 110.753 168.937 108.785 169.592 106.818C170.77 103.28 171.887 99.7228 172.934 96.1349C173.348 94.8311 173.629 94.9839 174.824 94.9811Z" fill="#CEE9E9"/>
<path d="M42.7498 126.626C51.9553 126.626 61.1609 126.626 70.6454 126.626C70.6454 132.085 70.6454 137.544 70.6454 143.169C59.5987 143.169 48.5521 143.169 37.1707 143.169C37.4692 141.177 37.4692 141.177 37.8431 140.18C37.926 139.955 38.0088 139.731 38.0941 139.499C38.1839 139.26 38.2737 139.021 38.3662 138.775C39.3413 136.128 40.2544 133.461 41.1402 130.776C41.2347 130.492 41.3292 130.208 41.4266 129.915C41.5091 129.665 41.5915 129.415 41.6765 129.157C41.9914 128.292 42.3747 127.46 42.7498 126.626Z" fill="#CEE9E9"/>
<path d="M32.3884 163.256C52.7283 163.256 73.0682 163.256 94.0244 163.256C93.4989 164.425 92.8868 165.481 92.2311 166.561C92.0056 166.934 91.78 167.308 91.5545 167.681C91.3829 167.95 91.3829 167.95 91.2078 168.224C90.8195 168.854 90.8195 168.854 90.5876 169.554C90.225 170.423 89.9118 170.916 89.2423 171.527C87.6362 171.941 86.0465 171.895 84.4052 171.87C83.9248 171.871 83.4443 171.873 82.9639 171.876C81.9577 171.878 80.9519 171.871 79.9458 171.858C78.6609 171.841 77.3771 171.847 76.0922 171.859C75.1 171.867 74.108 171.863 73.1158 171.855C72.6424 171.853 72.1691 171.854 71.6958 171.859C67.5455 171.888 67.5455 171.888 66.0116 170.368C65.6938 169.969 65.3782 169.568 65.0661 169.164C64.4869 168.702 63.9098 168.368 63.2728 168.001C62.9893 167.834 62.7057 167.667 62.4135 167.494C59.8402 166.216 55.794 166.299 53.1669 167.376C51.864 168.067 50.5024 168.804 49.4817 169.958C49.1258 170.346 49.1258 170.346 48.5944 170.346C48.4191 170.736 48.2437 171.126 48.0631 171.527C46.0016 171.565 43.9402 171.591 41.8786 171.609C41.1771 171.616 40.4756 171.626 39.7742 171.639C38.7665 171.657 37.7591 171.665 36.7513 171.672C36.2801 171.683 36.2801 171.683 35.7993 171.695C35.5069 171.695 35.2144 171.695 34.9131 171.695C34.5273 171.7 34.5273 171.7 34.1336 171.705C33.4511 171.527 33.4511 171.527 32.3884 170.05C32.3884 167.808 32.3884 165.566 32.3884 163.256Z" fill="#EF8C2A"/>
<path d="M86.2535 32.0231C86.5754 32.0155 86.8973 32.0078 87.229 32C88.5089 32.1305 89.3955 32.5627 90.305 33.5739C90.8184 33.6827 90.8184 33.6827 91.403 33.6963C91.617 33.7077 91.831 33.7191 92.0516 33.7309C92.387 33.7446 92.387 33.7446 92.7292 33.7586C93.0678 33.7757 93.0678 33.7757 93.4131 33.7932C93.971 33.8211 94.5291 33.8455 95.0871 33.8694C95.0871 34.0643 95.0871 34.2593 95.0871 34.4602C95.3136 34.419 95.3136 34.419 95.5448 34.3771C97.1884 34.2062 97.1884 34.2062 97.9483 34.8721C98.2472 35.2692 98.5368 35.6752 98.819 36.0872C99.4338 36.9596 100.122 37.7288 100.832 38.5035C101.071 38.7666 101.31 39.0298 101.557 39.3009C101.789 39.5556 102.021 39.8104 102.26 40.0728C102.488 40.3287 102.715 40.5846 102.949 40.8483C103.489 41.4406 104.037 41.9881 104.618 42.5284C105.521 43.3977 106.292 44.3257 107.063 45.337C108.062 46.5967 109.155 47.7566 110.23 48.9349C110.674 49.4268 111.116 49.9193 111.559 50.412C111.97 50.8693 112.381 51.3267 112.793 51.784C114.064 53.1975 115.335 54.6111 116.607 56.0246C115.564 57.414 114.478 58.7254 113.319 59.9941C113.174 60.1539 113.029 60.3136 112.88 60.4782C112.529 60.8652 112.177 61.2514 111.824 61.6373C110.875 60.5918 109.95 59.5251 109.035 58.4422C107.61 56.7612 106.172 55.0953 104.725 53.4374C103.853 52.4367 102.986 51.4312 102.131 50.4128C101.298 49.4229 100.454 48.4486 99.5988 47.483C99.2778 47.1152 98.9615 46.7423 98.6503 46.3642C96.7141 44.0139 96.7141 44.0139 94.0476 43.1406C91.8845 43.1641 90.0883 43.5316 88.2107 44.7704C87.2218 45.3405 86.3332 45.3522 85.2572 45.0947C83.9726 44.5471 82.6991 43.9296 81.8035 42.7315C81.8035 42.5365 81.8035 42.3415 81.8035 42.1407C81.6281 42.1407 81.4528 42.1407 81.2721 42.1407C80.6112 40.1196 80.3718 37.8028 80.9722 35.7283C82.0223 33.3568 83.9793 32.0551 86.2535 32.0231Z" fill="#999999"/>
<path d="M108.824 163.205C109.04 163.203 109.257 163.201 109.481 163.199C110.214 163.193 110.947 163.189 111.679 163.185C112.203 163.181 112.726 163.177 113.249 163.174C118.029 163.139 122.809 163.123 127.59 163.109C131.125 163.1 134.66 163.082 138.195 163.054C140.679 163.035 143.163 163.025 145.646 163.022C147.131 163.02 148.615 163.013 150.099 162.997C151.496 162.982 152.893 162.979 154.29 162.983C154.802 162.983 155.315 162.979 155.827 162.971C159.697 162.909 159.697 162.909 160.876 163.761C161.354 164.358 161.691 164.922 162.037 165.619C162.299 165.996 162.566 166.368 162.839 166.734C163.087 167.088 163.334 167.443 163.581 167.798C164.488 169.118 164.488 169.118 165.49 170.346C165.403 170.736 165.315 171.126 165.225 171.528C161.63 171.528 158.036 171.528 154.332 171.528C154.244 171.235 154.157 170.943 154.066 170.641C153.719 170.429 153.364 170.235 153.004 170.05C152.597 169.723 152.193 169.39 151.792 169.053C148.612 166.609 145.367 166.347 141.58 166.801C139.555 167.328 138.028 168.452 136.464 169.945C136.001 170.346 136.001 170.346 135.469 170.346C135.294 170.736 135.119 171.126 134.938 171.528C133.539 171.579 132.141 171.616 130.742 171.641C130.266 171.651 129.791 171.666 129.316 171.683C124.856 171.848 124.856 171.848 123.538 170.546C123.258 170.19 122.983 169.828 122.717 169.46C122.041 168.907 122.041 168.907 121.405 168.5C121.206 168.364 121.006 168.228 120.8 168.089C118.892 167.053 117.166 166.643 115.046 166.672C114.813 166.674 114.579 166.676 114.339 166.679C112.536 166.729 111.042 167.034 109.434 167.983C109.2 168.118 108.966 168.254 108.725 168.393C107.647 169.066 106.819 169.646 106.079 170.752C105.452 171.54 105.117 171.534 104.141 171.638C103.068 171.657 102.003 171.604 100.932 171.528C101.685 170.218 102.507 169.044 103.423 167.872C104.404 166.601 105.353 165.319 106.239 163.962C106.908 162.951 107.77 163.209 108.824 163.205Z" fill="#EF8D2A"/>
<path d="M83.6631 86.4512C85.2909 87.2308 86.1731 88.1706 86.8511 89.996C86.9262 90.8492 86.9631 91.6359 86.957 92.4873C86.9577 92.7225 86.9585 92.9577 86.9593 93.2C86.9598 93.6953 86.9584 94.1906 86.955 94.6859C86.9508 95.4393 86.955 96.1922 86.9601 96.9455C86.9596 97.4288 86.9585 97.9121 86.957 98.3954C86.9594 98.7297 86.9594 98.7297 86.9619 99.0707C86.944 100.587 86.6951 101.648 86.0541 102.994C85.2737 103.788 85.2737 103.788 84.4601 104.471C83.8362 105.122 83.3217 105.762 82.7996 106.52C82.1294 107.437 81.3581 107.976 80.4397 108.555C79.9129 108.923 79.5334 109.244 79.1466 109.788C78.8856 111.161 79.0438 112.23 79.6282 113.462C80.2313 114.248 80.6604 114.752 81.5999 114.909C83.1629 114.936 84.3245 114.808 85.5228 113.628C85.9766 113.039 86.3857 112.437 86.7816 111.798C87.1168 111.265 87.1168 111.265 87.6481 110.674C87.9112 110.674 88.1742 110.674 88.4452 110.674C87.7388 115.903 87.7388 115.903 86.0541 117.764C84.2255 119.139 82.384 119.465 80.2093 119.241C78.2999 118.715 77.0391 117.495 75.9586 115.696C75.1358 113.628 75.1602 111.131 75.7095 108.976C76.8057 106.931 78.0183 105.519 79.9436 104.471C79.6395 104.169 79.6395 104.169 79.3293 103.862C77.9386 102.171 77.6964 100.6 77.7124 98.3954C77.7113 98.0422 77.7113 98.0422 77.7101 97.6819C77.7096 97.1871 77.711 96.6923 77.7144 96.1976C77.7186 95.4436 77.7144 94.6901 77.7093 93.9361C77.7098 93.4532 77.7108 92.9703 77.7124 92.4873C77.71 92.1522 77.71 92.1522 77.7075 91.8102C77.7267 90.189 78.0134 88.9405 79.0231 87.7378C80.5952 86.4011 81.6868 86.1472 83.6631 86.4512Z" fill="#F08E2E"/>
<path d="M86.2535 32.0231C86.5754 32.0155 86.8973 32.0078 87.229 32C88.5089 32.1305 89.3955 32.5627 90.305 33.5739C90.8184 33.6827 90.8184 33.6827 91.403 33.6963C91.617 33.7077 91.831 33.7191 92.0516 33.7309C92.387 33.7446 92.387 33.7446 92.7292 33.7586C93.0678 33.7757 93.0678 33.7757 93.4131 33.7932C93.971 33.8211 94.5291 33.8455 95.0871 33.8694C95.0936 35.1681 95.0985 36.4669 95.1017 37.7656C95.103 38.2078 95.1048 38.6499 95.1071 39.0921C95.1103 39.7263 95.1119 40.3606 95.113 40.9948C95.1144 41.3769 95.1158 41.759 95.1173 42.1527C95.0871 43.0269 95.0871 43.0269 94.8214 43.3223C94.3234 43.3447 93.8253 43.3657 93.327 43.3783C91.353 43.4355 89.9652 43.6522 88.2294 44.7704C87.227 45.3297 86.3429 45.3545 85.2572 45.0947C83.9726 44.5471 82.6991 43.9296 81.8035 42.7315C81.8035 42.5365 81.8035 42.3415 81.8035 42.1407C81.6281 42.1407 81.4528 42.1407 81.2721 42.1407C80.6112 40.1196 80.3718 37.8028 80.9722 35.7283C82.0223 33.3568 83.9793 32.0551 86.2535 32.0231Z" fill="#F7C62A"/>
<path d="M111.027 139.624C111.115 139.624 111.203 139.624 111.293 139.624C111.293 141.184 111.293 142.743 111.293 144.35C125.057 144.35 138.822 144.35 153.004 144.35C153.004 145.325 153.004 146.3 153.004 147.304C140.116 147.304 127.228 147.304 113.95 147.304C113.95 146.427 113.95 145.55 113.95 144.646C112.985 144.646 112.021 144.646 111.027 144.646C111.027 142.988 111.027 141.331 111.027 139.624Z" fill="#A09B94"/>
<path d="M80.7407 40.0728C81.2721 40.959 81.2721 40.959 81.2721 42.1406C81.4474 42.1406 81.6228 42.1406 81.8034 42.1406C82.1605 42.6304 82.5144 43.1231 82.8661 43.6177C83.0507 43.7452 83.2352 43.8728 83.4254 44.0042C83.9288 44.5039 83.9288 44.5039 84.0554 45.268C84.0525 45.5765 84.0495 45.8851 84.0465 46.2029C84.0457 46.5571 84.0449 46.9113 84.0441 47.2762C84.0378 47.6652 84.0315 48.0543 84.025 48.4551C84.0221 48.8685 84.0197 49.2819 84.0177 49.6953C84.0109 50.8183 83.9975 51.9412 83.9829 53.0641C83.9688 54.2374 83.9607 55.4107 83.952 56.584C83.9346 58.8062 83.9118 61.0282 83.887 63.2503C83.859 65.7799 83.8371 68.3096 83.8158 70.8393C83.7716 76.0433 83.7199 81.2473 83.6631 86.4512C82.7864 86.4512 81.9097 86.4512 81.0064 86.4512C80.9187 71.1463 80.8311 55.8415 80.7407 40.0728Z" fill="#CFCECE"/>
<path d="M117.935 175.368C119.155 176.423 120.051 177.473 120.326 179.208C120.52 181.237 120.359 182.847 119.263 184.525C118.283 185.67 117.239 186.514 115.813 186.692C112.713 186.733 112.713 186.733 111.293 185.411C109.88 183.429 109.173 181.756 109.433 179.208C110.008 177.085 111.301 175.734 113.003 174.666C114.754 174.191 116.369 174.381 117.935 175.368Z" fill="#F7C628"/>
<path d="M147.687 175.517C148.93 176.544 149.931 177.905 150.189 179.635C150.26 181.886 149.791 183.383 148.487 185.116C147.353 186.386 146.241 186.699 144.652 186.796C142.905 186.711 141.75 186.206 140.517 184.821C139.486 183.381 138.984 181.999 139.096 180.151C139.414 177.928 140.239 176.459 141.845 175.072C143.861 173.952 145.816 174.235 147.687 175.517Z" fill="#F7C628"/>
<path d="M60.4004 175.257C61.6057 176.045 62.3341 177.063 63.0239 178.414C63.4809 180.401 63.3359 182.14 62.4095 183.934C61.3636 185.344 60.3821 186.456 58.6922 186.655C56.9987 186.74 55.274 186.51 53.9537 185.239C52.5092 183.45 52.1906 181.845 52.2299 179.466C52.3442 178.312 52.681 177.702 53.3767 176.845C53.5904 176.577 53.8041 176.309 54.0243 176.032C55.7378 174.359 58.3479 174.216 60.4004 175.257Z" fill="#F7C628"/>
<path d="M81.6373 104.859C81.9681 104.894 82.299 104.929 82.6398 104.966C82.8898 104.997 83.1398 105.029 83.3974 105.062C82.846 106.753 82.0425 107.35 80.7074 108.33C79.5731 109.118 79.5731 109.118 79.0314 110.394C79.0289 112.013 79.2295 112.943 80.2093 114.219C81.3472 115.063 82.3281 114.986 83.6631 114.81C85.1391 114.303 85.9288 113.175 86.7816 111.798C87.1168 111.265 87.1168 111.265 87.6481 110.674C87.9112 110.674 88.1742 110.674 88.4452 110.674C87.7388 115.903 87.7388 115.903 86.0541 117.764C84.2255 119.139 82.384 119.465 80.2093 119.241C78.2999 118.715 77.0391 117.495 75.9586 115.696C75.1358 113.628 75.1602 111.131 75.7095 108.976C77.1543 106.281 78.6477 104.514 81.6373 104.859Z" fill="#6A6A6A"/>
<path d="M81.0066 193.683C84.6011 193.683 88.1957 193.683 91.8992 193.683C91.8992 195.437 91.8992 197.192 91.8992 199C88.3046 199 84.7101 199 81.0066 199C81.0066 197.245 81.0066 195.491 81.0066 193.683Z" fill="#F09133"/>
<path d="M124.842 171.527C128.086 171.527 131.33 171.527 134.672 171.527C134.146 172.6 133.62 173.672 133.078 174.777C132.199 176.827 132.184 178.58 132.231 180.833C132.235 181.16 132.238 181.488 132.242 181.825C132.251 182.627 132.264 183.428 132.281 184.23C131.741 183.33 131.684 183.166 131.698 182.159C131.699 181.935 131.701 181.711 131.703 181.481C131.707 181.249 131.712 181.016 131.716 180.777C131.719 180.542 131.721 180.306 131.724 180.064C131.73 179.483 131.739 178.902 131.75 178.322C130.435 178.322 129.119 178.322 127.765 178.322C127.765 179.687 127.765 181.051 127.765 182.457C127.677 182.457 127.589 182.457 127.499 182.457C127.489 182.154 127.479 181.85 127.469 181.538C127.313 177.593 126.751 175.065 124.842 171.527Z" fill="#9D9A96"/>
<path d="M67.7229 171.527C70.2654 171.527 72.8079 171.527 75.4274 171.527C75.4548 172.271 75.4822 173.014 75.5104 173.78C75.5286 174.126 75.5286 174.126 75.5471 174.479C75.5678 175.65 75.4675 176.352 74.7912 177.276C73.5001 178.675 72.3975 178.344 70.6453 178.322C70.6453 179.784 70.6453 181.246 70.6453 182.753C70.5576 182.753 70.47 182.753 70.3796 182.753C70.3693 182.228 70.3693 182.228 70.3589 181.694C70.2829 179.035 70.1381 176.899 69.0513 174.482C68.6129 173.507 68.1745 172.532 67.7229 171.527Z" fill="#9D9B98"/>
<path d="M154.598 171.527C157.228 171.527 159.858 171.527 162.568 171.527C162.546 172.326 162.524 173.124 162.502 173.946C162.497 174.195 162.493 174.444 162.489 174.7C162.429 176.161 162.224 176.967 161.24 178.026C160.505 178.435 159.899 178.35 159.081 178.34C158.308 178.331 158.308 178.331 157.52 178.322C157.52 179.589 157.52 180.856 157.52 182.162C157.433 182.162 157.345 182.162 157.255 182.162C157.244 181.67 157.244 181.67 157.234 181.167C157.116 177.278 156.351 175.037 154.598 171.527Z" fill="#9C9A97"/>
<path d="M40.093 171.527C42.6355 171.527 45.178 171.527 47.7975 171.527C47.2715 172.502 46.7454 173.477 46.2035 174.482C45.8066 175.641 45.8066 175.641 45.5725 176.734C45.4882 177.091 45.404 177.448 45.3172 177.816C45.259 178.081 45.2008 178.345 45.1408 178.617C41.6683 178.555 41.6683 178.555 40.8236 177.602C40.0377 176.322 40.0613 175.363 40.0764 173.854C40.0819 173.086 40.0874 172.318 40.093 171.527Z" fill="#9C9A98"/>
<path d="M86.2535 32.0231C86.5754 32.0155 86.8973 32.0078 87.229 32C88.2688 32.106 88.8924 32.37 89.7736 32.9831C89.949 33.2756 90.1243 33.568 90.305 33.8694C89.8195 33.8859 89.8195 33.8859 89.3243 33.9028C88.8929 33.9222 88.4615 33.9419 88.0302 33.9617C87.8177 33.9683 87.6052 33.975 87.3862 33.9819C85.6509 34.0685 84.2744 34.3539 83.0156 35.7895C82.4328 37.2411 82.3949 38.5074 82.6005 40.0728C83.2217 41.5339 83.9908 42.261 85.2572 43.0269C86.1314 43.2043 86.9936 43.2321 87.8807 43.2484C88.1143 43.2572 88.3479 43.2659 88.5885 43.275C89.1605 43.2957 89.7328 43.3097 90.305 43.3223C88.8582 44.6327 87.7978 45.2521 85.9162 45.2101C84.3993 44.9445 82.7947 44.0576 81.8035 42.7315C81.8035 42.5365 81.8035 42.3415 81.8035 42.1407C81.6281 42.1407 81.4528 42.1407 81.2721 42.1407C80.6112 40.1196 80.3718 37.8028 80.9722 35.7283C82.0223 33.3568 83.9793 32.0551 86.2535 32.0231Z" fill="#6E6D6A"/>
<path d="M104.917 171.527C104.808 171.741 104.699 171.955 104.587 172.176C103.504 174.336 102.793 176.142 102.526 178.617C102.438 178.422 102.351 178.227 102.26 178.026C102.007 178.043 101.754 178.061 101.493 178.078C98.804 178.186 98.804 178.186 97.998 177.697C97.6441 177.288 97.6441 177.288 97.2124 176.549C97.5855 175.992 97.9607 175.437 98.3446 174.889C98.8191 174.198 98.8191 174.198 99.1769 173.437C100.571 170.856 102.489 171.265 104.917 171.527Z" fill="#999896"/>
<path d="M117.403 55.1384C117.579 55.2359 117.754 55.3334 117.935 55.4338C115.743 57.8709 113.551 60.308 111.293 62.8189C111.205 62.5264 111.118 62.234 111.027 61.9327C111.144 61.8245 111.26 61.7164 111.38 61.605C113.128 59.9462 114.728 58.1365 116.341 56.32C116.695 55.9258 117.049 55.5318 117.403 55.1384Z" fill="#E89441"/>
<path d="M101.7 171.383C102.086 171.393 102.472 171.41 102.858 171.435C103.056 171.442 103.254 171.448 103.458 171.455C103.944 171.473 104.431 171.499 104.917 171.527C104.917 171.625 104.917 171.722 104.917 171.823C104.533 171.834 104.533 171.834 104.141 171.846C103.805 171.863 103.469 171.879 103.124 171.897C102.624 171.917 102.624 171.917 102.115 171.938C101.09 172.139 100.77 172.408 100.135 173.3C99.9595 173.202 99.7842 173.105 99.6035 173.004C100.224 171.851 100.472 171.554 101.7 171.383Z" fill="#B69E7D"/>
<path d="M84.4601 34.1647C84.6355 34.2622 84.8108 34.3597 84.9915 34.4601C84.2901 35.24 83.5887 36.0199 82.8661 36.8234C82.8661 35.6606 83.2456 35.3091 83.9288 34.4601C84.1041 34.3627 84.2795 34.2652 84.4601 34.1647Z" fill="#DFB632"/>
<path d="M88.4452 110.674C88.1795 111.561 88.1795 111.561 87.6814 111.874C87.4951 111.966 87.3088 112.057 87.1168 112.151C86.7223 112.444 86.7223 112.444 86.3198 112.742C86.8142 111.516 87.1618 110.674 88.4452 110.674Z" fill="#828282"/>
</svg>
